<mxfile host="app.diagrams.net" modified="2023-06-01T11:07:37.188Z" agent="Mozilla/5.0 (Windows NT 10.0; Win64; x64) AppleWebKit/537.36 (KHTML, like Gecko) Chrome/112.0.0.0 Safari/537.36 OPR/98.0.0.0 (Edition Yx 05)" etag="j7Qxx86tq7Vu7BEXhWTy" version="21.3.6" type="device" pages="3">
  <diagram name="Логическая модель" id="EwMsFBvq8KC86laSaRwJ">
    <mxGraphModel dx="2261" dy="797" grid="1" gridSize="10" guides="1" tooltips="1" connect="1" arrows="1" fold="1" page="1" pageScale="1" pageWidth="827" pageHeight="1169" math="0" shadow="0">
      <root>
        <mxCell id="0" />
        <mxCell id="1" parent="0" />
        <mxCell id="FyC12AB4mqrPU83Jo8B3-1" value="База Данных" style="text;html=1;strokeColor=none;fillColor=none;align=center;verticalAlign=middle;whiteSpace=wrap;rounded=0;fontSize=25;" parent="1" vertex="1">
          <mxGeometry width="250" height="90" as="geometry" />
        </mxCell>
        <mxCell id="FyC12AB4mqrPU83Jo8B3-3" value="Hardware" style="shape=table;startSize=30;container=1;collapsible=1;childLayout=tableLayout;fixedRows=1;rowLines=0;fontStyle=1;align=center;resizeLast=1;html=1;" parent="1" vertex="1">
          <mxGeometry x="100" y="130" width="180" height="90" as="geometry">
            <mxRectangle x="110" y="130" width="70" height="30" as="alternateBounds" />
          </mxGeometry>
        </mxCell>
        <mxCell id="FyC12AB4mqrPU83Jo8B3-4" value="" style="shape=tableRow;horizontal=0;startSize=0;swimlaneHead=0;swimlaneBody=0;fillColor=none;collapsible=0;dropTarget=0;points=[[0,0.5],[1,0.5]];portConstraint=eastwest;top=0;left=0;right=0;bottom=1;" parent="FyC12AB4mqrPU83Jo8B3-3" vertex="1">
          <mxGeometry y="30" width="180" height="30" as="geometry" />
        </mxCell>
        <mxCell id="FyC12AB4mqrPU83Jo8B3-5" value="PK" style="shape=partialRectangle;connectable=0;fillColor=none;top=0;left=0;bottom=0;right=0;fontStyle=1;overflow=hidden;whiteSpace=wrap;html=1;" parent="FyC12AB4mqrPU83Jo8B3-4" vertex="1">
          <mxGeometry width="30" height="30" as="geometry">
            <mxRectangle width="30" height="30" as="alternateBounds" />
          </mxGeometry>
        </mxCell>
        <mxCell id="FyC12AB4mqrPU83Jo8B3-6" value="ID_H" style="shape=partialRectangle;connectable=0;fillColor=none;top=0;left=0;bottom=0;right=0;align=left;spacingLeft=6;fontStyle=5;overflow=hidden;whiteSpace=wrap;html=1;" parent="FyC12AB4mqrPU83Jo8B3-4" vertex="1">
          <mxGeometry x="30" width="150" height="30" as="geometry">
            <mxRectangle width="150" height="30" as="alternateBounds" />
          </mxGeometry>
        </mxCell>
        <mxCell id="FyC12AB4mqrPU83Jo8B3-7" value="" style="shape=tableRow;horizontal=0;startSize=0;swimlaneHead=0;swimlaneBody=0;fillColor=none;collapsible=0;dropTarget=0;points=[[0,0.5],[1,0.5]];portConstraint=eastwest;top=0;left=0;right=0;bottom=0;" parent="FyC12AB4mqrPU83Jo8B3-3" vertex="1">
          <mxGeometry y="60" width="180" height="30" as="geometry" />
        </mxCell>
        <mxCell id="FyC12AB4mqrPU83Jo8B3-8" value="FK" style="shape=partialRectangle;connectable=0;fillColor=none;top=0;left=0;bottom=0;right=0;editable=1;overflow=hidden;whiteSpace=wrap;html=1;" parent="FyC12AB4mqrPU83Jo8B3-7" vertex="1">
          <mxGeometry width="30" height="30" as="geometry">
            <mxRectangle width="30" height="30" as="alternateBounds" />
          </mxGeometry>
        </mxCell>
        <mxCell id="FyC12AB4mqrPU83Jo8B3-9" value="&lt;div&gt;type_h&lt;/div&gt;" style="shape=partialRectangle;connectable=0;fillColor=none;top=0;left=0;bottom=0;right=0;align=left;spacingLeft=6;overflow=hidden;whiteSpace=wrap;html=1;" parent="FyC12AB4mqrPU83Jo8B3-7" vertex="1">
          <mxGeometry x="30" width="150" height="30" as="geometry">
            <mxRectangle width="150" height="30" as="alternateBounds" />
          </mxGeometry>
        </mxCell>
        <mxCell id="FyC12AB4mqrPU83Jo8B3-16" value="Access" style="shape=table;startSize=30;container=1;collapsible=1;childLayout=tableLayout;fixedRows=1;rowLines=0;fontStyle=1;align=center;resizeLast=1;html=1;" parent="1" vertex="1">
          <mxGeometry x="-400" y="10" width="180" height="120" as="geometry" />
        </mxCell>
        <mxCell id="FyC12AB4mqrPU83Jo8B3-17" value="" style="shape=tableRow;horizontal=0;startSize=0;swimlaneHead=0;swimlaneBody=0;fillColor=none;collapsible=0;dropTarget=0;points=[[0,0.5],[1,0.5]];portConstraint=eastwest;top=0;left=0;right=0;bottom=1;" parent="FyC12AB4mqrPU83Jo8B3-16" vertex="1">
          <mxGeometry y="30" width="180" height="30" as="geometry" />
        </mxCell>
        <mxCell id="FyC12AB4mqrPU83Jo8B3-18" value="PK" style="shape=partialRectangle;connectable=0;fillColor=none;top=0;left=0;bottom=0;right=0;fontStyle=1;overflow=hidden;whiteSpace=wrap;html=1;" parent="FyC12AB4mqrPU83Jo8B3-17" vertex="1">
          <mxGeometry width="30" height="30" as="geometry">
            <mxRectangle width="30" height="30" as="alternateBounds" />
          </mxGeometry>
        </mxCell>
        <mxCell id="FyC12AB4mqrPU83Jo8B3-19" value="ID_A" style="shape=partialRectangle;connectable=0;fillColor=none;top=0;left=0;bottom=0;right=0;align=left;spacingLeft=6;fontStyle=5;overflow=hidden;whiteSpace=wrap;html=1;" parent="FyC12AB4mqrPU83Jo8B3-17" vertex="1">
          <mxGeometry x="30" width="150" height="30" as="geometry">
            <mxRectangle width="150" height="30" as="alternateBounds" />
          </mxGeometry>
        </mxCell>
        <mxCell id="FyC12AB4mqrPU83Jo8B3-20" value="" style="shape=tableRow;horizontal=0;startSize=0;swimlaneHead=0;swimlaneBody=0;fillColor=none;collapsible=0;dropTarget=0;points=[[0,0.5],[1,0.5]];portConstraint=eastwest;top=0;left=0;right=0;bottom=0;" parent="FyC12AB4mqrPU83Jo8B3-16" vertex="1">
          <mxGeometry y="60" width="180" height="30" as="geometry" />
        </mxCell>
        <mxCell id="FyC12AB4mqrPU83Jo8B3-21" value="FK" style="shape=partialRectangle;connectable=0;fillColor=none;top=0;left=0;bottom=0;right=0;editable=1;overflow=hidden;whiteSpace=wrap;html=1;" parent="FyC12AB4mqrPU83Jo8B3-20" vertex="1">
          <mxGeometry width="30" height="30" as="geometry">
            <mxRectangle width="30" height="30" as="alternateBounds" />
          </mxGeometry>
        </mxCell>
        <mxCell id="FyC12AB4mqrPU83Jo8B3-22" value="hardware_a" style="shape=partialRectangle;connectable=0;fillColor=none;top=0;left=0;bottom=0;right=0;align=left;spacingLeft=6;overflow=hidden;whiteSpace=wrap;html=1;" parent="FyC12AB4mqrPU83Jo8B3-20" vertex="1">
          <mxGeometry x="30" width="150" height="30" as="geometry">
            <mxRectangle width="150" height="30" as="alternateBounds" />
          </mxGeometry>
        </mxCell>
        <mxCell id="FyC12AB4mqrPU83Jo8B3-23" value="" style="shape=tableRow;horizontal=0;startSize=0;swimlaneHead=0;swimlaneBody=0;fillColor=none;collapsible=0;dropTarget=0;points=[[0,0.5],[1,0.5]];portConstraint=eastwest;top=0;left=0;right=0;bottom=0;" parent="FyC12AB4mqrPU83Jo8B3-16" vertex="1">
          <mxGeometry y="90" width="180" height="30" as="geometry" />
        </mxCell>
        <mxCell id="FyC12AB4mqrPU83Jo8B3-24" value="FK" style="shape=partialRectangle;connectable=0;fillColor=none;top=0;left=0;bottom=0;right=0;editable=1;overflow=hidden;whiteSpace=wrap;html=1;" parent="FyC12AB4mqrPU83Jo8B3-23" vertex="1">
          <mxGeometry width="30" height="30" as="geometry">
            <mxRectangle width="30" height="30" as="alternateBounds" />
          </mxGeometry>
        </mxCell>
        <mxCell id="FyC12AB4mqrPU83Jo8B3-25" value="human" style="shape=partialRectangle;connectable=0;fillColor=none;top=0;left=0;bottom=0;right=0;align=left;spacingLeft=6;overflow=hidden;whiteSpace=wrap;html=1;" parent="FyC12AB4mqrPU83Jo8B3-23" vertex="1">
          <mxGeometry x="30" width="150" height="30" as="geometry">
            <mxRectangle width="150" height="30" as="alternateBounds" />
          </mxGeometry>
        </mxCell>
        <mxCell id="DjejDNn8569znADVHvU2-7" value="Place" style="shape=table;startSize=30;container=1;collapsible=1;childLayout=tableLayout;fixedRows=1;rowLines=0;fontStyle=1;align=center;resizeLast=1;html=1;" parent="1" vertex="1">
          <mxGeometry x="-400" y="140" width="180" height="90" as="geometry" />
        </mxCell>
        <mxCell id="DjejDNn8569znADVHvU2-8" value="" style="shape=tableRow;horizontal=0;startSize=0;swimlaneHead=0;swimlaneBody=0;fillColor=none;collapsible=0;dropTarget=0;points=[[0,0.5],[1,0.5]];portConstraint=eastwest;top=0;left=0;right=0;bottom=1;" parent="DjejDNn8569znADVHvU2-7" vertex="1">
          <mxGeometry y="30" width="180" height="30" as="geometry" />
        </mxCell>
        <mxCell id="DjejDNn8569znADVHvU2-9" value="PK" style="shape=partialRectangle;connectable=0;fillColor=none;top=0;left=0;bottom=0;right=0;fontStyle=1;overflow=hidden;whiteSpace=wrap;html=1;" parent="DjejDNn8569znADVHvU2-8" vertex="1">
          <mxGeometry width="30" height="30" as="geometry">
            <mxRectangle width="30" height="30" as="alternateBounds" />
          </mxGeometry>
        </mxCell>
        <mxCell id="DjejDNn8569znADVHvU2-10" value="ID_P" style="shape=partialRectangle;connectable=0;fillColor=none;top=0;left=0;bottom=0;right=0;align=left;spacingLeft=6;fontStyle=5;overflow=hidden;whiteSpace=wrap;html=1;" parent="DjejDNn8569znADVHvU2-8" vertex="1">
          <mxGeometry x="30" width="150" height="30" as="geometry">
            <mxRectangle width="150" height="30" as="alternateBounds" />
          </mxGeometry>
        </mxCell>
        <mxCell id="DjejDNn8569znADVHvU2-11" value="" style="shape=tableRow;horizontal=0;startSize=0;swimlaneHead=0;swimlaneBody=0;fillColor=none;collapsible=0;dropTarget=0;points=[[0,0.5],[1,0.5]];portConstraint=eastwest;top=0;left=0;right=0;bottom=0;" parent="DjejDNn8569znADVHvU2-7" vertex="1">
          <mxGeometry y="60" width="180" height="30" as="geometry" />
        </mxCell>
        <mxCell id="DjejDNn8569znADVHvU2-12" value="FK" style="shape=partialRectangle;connectable=0;fillColor=none;top=0;left=0;bottom=0;right=0;editable=1;overflow=hidden;whiteSpace=wrap;html=1;" parent="DjejDNn8569znADVHvU2-11" vertex="1">
          <mxGeometry width="30" height="30" as="geometry">
            <mxRectangle width="30" height="30" as="alternateBounds" />
          </mxGeometry>
        </mxCell>
        <mxCell id="DjejDNn8569znADVHvU2-13" value="hardware_p" style="shape=partialRectangle;connectable=0;fillColor=none;top=0;left=0;bottom=0;right=0;align=left;spacingLeft=6;overflow=hidden;whiteSpace=wrap;html=1;" parent="DjejDNn8569znADVHvU2-11" vertex="1">
          <mxGeometry x="30" width="150" height="30" as="geometry">
            <mxRectangle width="150" height="30" as="alternateBounds" />
          </mxGeometry>
        </mxCell>
        <mxCell id="DjejDNn8569znADVHvU2-21" value="Hardware_Type" style="shape=table;startSize=30;container=1;collapsible=1;childLayout=tableLayout;fixedRows=1;rowLines=0;fontStyle=1;align=center;resizeLast=1;html=1;" parent="1" vertex="1">
          <mxGeometry x="100" y="280" width="180" height="60" as="geometry">
            <mxRectangle x="220" y="220" width="70" height="30" as="alternateBounds" />
          </mxGeometry>
        </mxCell>
        <mxCell id="DjejDNn8569znADVHvU2-22" value="" style="shape=tableRow;horizontal=0;startSize=0;swimlaneHead=0;swimlaneBody=0;fillColor=none;collapsible=0;dropTarget=0;points=[[0,0.5],[1,0.5]];portConstraint=eastwest;top=0;left=0;right=0;bottom=1;" parent="DjejDNn8569znADVHvU2-21" vertex="1">
          <mxGeometry y="30" width="180" height="30" as="geometry" />
        </mxCell>
        <mxCell id="DjejDNn8569znADVHvU2-23" value="PK" style="shape=partialRectangle;connectable=0;fillColor=none;top=0;left=0;bottom=0;right=0;fontStyle=1;overflow=hidden;whiteSpace=wrap;html=1;" parent="DjejDNn8569znADVHvU2-22" vertex="1">
          <mxGeometry width="30" height="30" as="geometry">
            <mxRectangle width="30" height="30" as="alternateBounds" />
          </mxGeometry>
        </mxCell>
        <mxCell id="DjejDNn8569znADVHvU2-24" value="ID_HT" style="shape=partialRectangle;connectable=0;fillColor=none;top=0;left=0;bottom=0;right=0;align=left;spacingLeft=6;fontStyle=5;overflow=hidden;whiteSpace=wrap;html=1;" parent="DjejDNn8569znADVHvU2-22" vertex="1">
          <mxGeometry x="30" width="150" height="30" as="geometry">
            <mxRectangle width="150" height="30" as="alternateBounds" />
          </mxGeometry>
        </mxCell>
        <mxCell id="DjejDNn8569znADVHvU2-28" value="Hardware_Property" style="shape=table;startSize=30;container=1;collapsible=1;childLayout=tableLayout;fixedRows=1;rowLines=0;fontStyle=1;align=center;resizeLast=1;html=1;" parent="1" vertex="1">
          <mxGeometry x="100" y="495" width="180" height="90" as="geometry">
            <mxRectangle x="220" y="220" width="70" height="30" as="alternateBounds" />
          </mxGeometry>
        </mxCell>
        <mxCell id="DjejDNn8569znADVHvU2-29" value="" style="shape=tableRow;horizontal=0;startSize=0;swimlaneHead=0;swimlaneBody=0;fillColor=none;collapsible=0;dropTarget=0;points=[[0,0.5],[1,0.5]];portConstraint=eastwest;top=0;left=0;right=0;bottom=1;" parent="DjejDNn8569znADVHvU2-28" vertex="1">
          <mxGeometry y="30" width="180" height="30" as="geometry" />
        </mxCell>
        <mxCell id="DjejDNn8569znADVHvU2-30" value="PK" style="shape=partialRectangle;connectable=0;fillColor=none;top=0;left=0;bottom=0;right=0;fontStyle=1;overflow=hidden;whiteSpace=wrap;html=1;" parent="DjejDNn8569znADVHvU2-29" vertex="1">
          <mxGeometry width="30" height="30" as="geometry">
            <mxRectangle width="30" height="30" as="alternateBounds" />
          </mxGeometry>
        </mxCell>
        <mxCell id="DjejDNn8569znADVHvU2-31" value="ID_HP" style="shape=partialRectangle;connectable=0;fillColor=none;top=0;left=0;bottom=0;right=0;align=left;spacingLeft=6;fontStyle=5;overflow=hidden;whiteSpace=wrap;html=1;" parent="DjejDNn8569znADVHvU2-29" vertex="1">
          <mxGeometry x="30" width="150" height="30" as="geometry">
            <mxRectangle width="150" height="30" as="alternateBounds" />
          </mxGeometry>
        </mxCell>
        <mxCell id="DjejDNn8569znADVHvU2-32" value="" style="shape=tableRow;horizontal=0;startSize=0;swimlaneHead=0;swimlaneBody=0;fillColor=none;collapsible=0;dropTarget=0;points=[[0,0.5],[1,0.5]];portConstraint=eastwest;top=0;left=0;right=0;bottom=0;" parent="DjejDNn8569znADVHvU2-28" vertex="1">
          <mxGeometry y="60" width="180" height="30" as="geometry" />
        </mxCell>
        <mxCell id="DjejDNn8569znADVHvU2-33" value="FK" style="shape=partialRectangle;connectable=0;fillColor=none;top=0;left=0;bottom=0;right=0;editable=1;overflow=hidden;whiteSpace=wrap;html=1;" parent="DjejDNn8569znADVHvU2-32" vertex="1">
          <mxGeometry width="30" height="30" as="geometry">
            <mxRectangle width="30" height="30" as="alternateBounds" />
          </mxGeometry>
        </mxCell>
        <mxCell id="DjejDNn8569znADVHvU2-34" value="type_p" style="shape=partialRectangle;connectable=0;fillColor=none;top=0;left=0;bottom=0;right=0;align=left;spacingLeft=6;overflow=hidden;whiteSpace=wrap;html=1;" parent="DjejDNn8569znADVHvU2-32" vertex="1">
          <mxGeometry x="30" width="150" height="30" as="geometry">
            <mxRectangle width="150" height="30" as="alternateBounds" />
          </mxGeometry>
        </mxCell>
        <mxCell id="DjejDNn8569znADVHvU2-35" value="Hardware_Value" style="shape=table;startSize=30;container=1;collapsible=1;childLayout=tableLayout;fixedRows=1;rowLines=0;fontStyle=1;align=center;resizeLast=1;html=1;" parent="1" vertex="1">
          <mxGeometry x="100" y="360" width="180" height="120" as="geometry">
            <mxRectangle x="220" y="220" width="70" height="30" as="alternateBounds" />
          </mxGeometry>
        </mxCell>
        <mxCell id="DjejDNn8569znADVHvU2-36" value="" style="shape=tableRow;horizontal=0;startSize=0;swimlaneHead=0;swimlaneBody=0;fillColor=none;collapsible=0;dropTarget=0;points=[[0,0.5],[1,0.5]];portConstraint=eastwest;top=0;left=0;right=0;bottom=1;" parent="DjejDNn8569znADVHvU2-35" vertex="1">
          <mxGeometry y="30" width="180" height="30" as="geometry" />
        </mxCell>
        <mxCell id="DjejDNn8569znADVHvU2-37" value="PK" style="shape=partialRectangle;connectable=0;fillColor=none;top=0;left=0;bottom=0;right=0;fontStyle=1;overflow=hidden;whiteSpace=wrap;html=1;" parent="DjejDNn8569znADVHvU2-36" vertex="1">
          <mxGeometry width="30" height="30" as="geometry">
            <mxRectangle width="30" height="30" as="alternateBounds" />
          </mxGeometry>
        </mxCell>
        <mxCell id="DjejDNn8569znADVHvU2-38" value="ID_HV" style="shape=partialRectangle;connectable=0;fillColor=none;top=0;left=0;bottom=0;right=0;align=left;spacingLeft=6;fontStyle=5;overflow=hidden;whiteSpace=wrap;html=1;" parent="DjejDNn8569znADVHvU2-36" vertex="1">
          <mxGeometry x="30" width="150" height="30" as="geometry">
            <mxRectangle width="150" height="30" as="alternateBounds" />
          </mxGeometry>
        </mxCell>
        <mxCell id="DjejDNn8569znADVHvU2-39" value="" style="shape=tableRow;horizontal=0;startSize=0;swimlaneHead=0;swimlaneBody=0;fillColor=none;collapsible=0;dropTarget=0;points=[[0,0.5],[1,0.5]];portConstraint=eastwest;top=0;left=0;right=0;bottom=0;" parent="DjejDNn8569znADVHvU2-35" vertex="1">
          <mxGeometry y="60" width="180" height="30" as="geometry" />
        </mxCell>
        <mxCell id="DjejDNn8569znADVHvU2-40" value="FK" style="shape=partialRectangle;connectable=0;fillColor=none;top=0;left=0;bottom=0;right=0;editable=1;overflow=hidden;whiteSpace=wrap;html=1;" parent="DjejDNn8569znADVHvU2-39" vertex="1">
          <mxGeometry width="30" height="30" as="geometry">
            <mxRectangle width="30" height="30" as="alternateBounds" />
          </mxGeometry>
        </mxCell>
        <mxCell id="DjejDNn8569znADVHvU2-41" value="hardware_v" style="shape=partialRectangle;connectable=0;fillColor=none;top=0;left=0;bottom=0;right=0;align=left;spacingLeft=6;overflow=hidden;whiteSpace=wrap;html=1;" parent="DjejDNn8569znADVHvU2-39" vertex="1">
          <mxGeometry x="30" width="150" height="30" as="geometry">
            <mxRectangle width="150" height="30" as="alternateBounds" />
          </mxGeometry>
        </mxCell>
        <mxCell id="DjejDNn8569znADVHvU2-44" value="" style="shape=tableRow;horizontal=0;startSize=0;swimlaneHead=0;swimlaneBody=0;fillColor=none;collapsible=0;dropTarget=0;points=[[0,0.5],[1,0.5]];portConstraint=eastwest;top=0;left=0;right=0;bottom=0;" parent="DjejDNn8569znADVHvU2-35" vertex="1">
          <mxGeometry y="90" width="180" height="30" as="geometry" />
        </mxCell>
        <mxCell id="DjejDNn8569znADVHvU2-45" value="FK" style="shape=partialRectangle;connectable=0;fillColor=none;top=0;left=0;bottom=0;right=0;editable=1;overflow=hidden;whiteSpace=wrap;html=1;" parent="DjejDNn8569znADVHvU2-44" vertex="1">
          <mxGeometry width="30" height="30" as="geometry">
            <mxRectangle width="30" height="30" as="alternateBounds" />
          </mxGeometry>
        </mxCell>
        <mxCell id="DjejDNn8569znADVHvU2-46" value="property" style="shape=partialRectangle;connectable=0;fillColor=none;top=0;left=0;bottom=0;right=0;align=left;spacingLeft=6;overflow=hidden;whiteSpace=wrap;html=1;" parent="DjejDNn8569znADVHvU2-44" vertex="1">
          <mxGeometry x="30" width="150" height="30" as="geometry">
            <mxRectangle width="150" height="30" as="alternateBounds" />
          </mxGeometry>
        </mxCell>
        <mxCell id="DjejDNn8569znADVHvU2-55" value="Repair" style="shape=table;startSize=30;container=1;collapsible=1;childLayout=tableLayout;fixedRows=1;rowLines=0;fontStyle=1;align=center;resizeLast=1;html=1;" parent="1" vertex="1">
          <mxGeometry x="340" y="260" width="180" height="90" as="geometry" />
        </mxCell>
        <mxCell id="DjejDNn8569znADVHvU2-56" value="" style="shape=tableRow;horizontal=0;startSize=0;swimlaneHead=0;swimlaneBody=0;fillColor=none;collapsible=0;dropTarget=0;points=[[0,0.5],[1,0.5]];portConstraint=eastwest;top=0;left=0;right=0;bottom=1;" parent="DjejDNn8569znADVHvU2-55" vertex="1">
          <mxGeometry y="30" width="180" height="30" as="geometry" />
        </mxCell>
        <mxCell id="DjejDNn8569znADVHvU2-57" value="PK" style="shape=partialRectangle;connectable=0;fillColor=none;top=0;left=0;bottom=0;right=0;fontStyle=1;overflow=hidden;whiteSpace=wrap;html=1;" parent="DjejDNn8569znADVHvU2-56" vertex="1">
          <mxGeometry width="30" height="30" as="geometry">
            <mxRectangle width="30" height="30" as="alternateBounds" />
          </mxGeometry>
        </mxCell>
        <mxCell id="DjejDNn8569znADVHvU2-58" value="ID_R" style="shape=partialRectangle;connectable=0;fillColor=none;top=0;left=0;bottom=0;right=0;align=left;spacingLeft=6;fontStyle=5;overflow=hidden;whiteSpace=wrap;html=1;" parent="DjejDNn8569znADVHvU2-56" vertex="1">
          <mxGeometry x="30" width="150" height="30" as="geometry">
            <mxRectangle width="150" height="30" as="alternateBounds" />
          </mxGeometry>
        </mxCell>
        <mxCell id="DjejDNn8569znADVHvU2-59" value="" style="shape=tableRow;horizontal=0;startSize=0;swimlaneHead=0;swimlaneBody=0;fillColor=none;collapsible=0;dropTarget=0;points=[[0,0.5],[1,0.5]];portConstraint=eastwest;top=0;left=0;right=0;bottom=0;" parent="DjejDNn8569znADVHvU2-55" vertex="1">
          <mxGeometry y="60" width="180" height="30" as="geometry" />
        </mxCell>
        <mxCell id="DjejDNn8569znADVHvU2-60" value="FK" style="shape=partialRectangle;connectable=0;fillColor=none;top=0;left=0;bottom=0;right=0;editable=1;overflow=hidden;whiteSpace=wrap;html=1;" parent="DjejDNn8569znADVHvU2-59" vertex="1">
          <mxGeometry width="30" height="30" as="geometry">
            <mxRectangle width="30" height="30" as="alternateBounds" />
          </mxGeometry>
        </mxCell>
        <mxCell id="DjejDNn8569znADVHvU2-61" value="hardware_r" style="shape=partialRectangle;connectable=0;fillColor=none;top=0;left=0;bottom=0;right=0;align=left;spacingLeft=6;overflow=hidden;whiteSpace=wrap;html=1;" parent="DjejDNn8569znADVHvU2-59" vertex="1">
          <mxGeometry x="30" width="150" height="30" as="geometry">
            <mxRectangle width="150" height="30" as="alternateBounds" />
          </mxGeometry>
        </mxCell>
        <mxCell id="8ERq5n5Qc_VJYVDK8V4o-2" value="" style="edgeStyle=orthogonalEdgeStyle;fontSize=12;html=1;endArrow=ERoneToMany;rounded=0;entryX=0;entryY=0.5;entryDx=0;entryDy=0;exitX=0.998;exitY=0.697;exitDx=0;exitDy=0;exitPerimeter=0;" parent="1" source="FyC12AB4mqrPU83Jo8B3-4" target="DjejDNn8569znADVHvU2-59" edge="1">
          <mxGeometry width="100" height="100" relative="1" as="geometry">
            <mxPoint x="290" y="180" as="sourcePoint" />
            <mxPoint x="480" y="220" as="targetPoint" />
            <Array as="points">
              <mxPoint x="310" y="181" />
              <mxPoint x="310" y="335" />
            </Array>
          </mxGeometry>
        </mxCell>
        <mxCell id="8ERq5n5Qc_VJYVDK8V4o-3" value="" style="edgeStyle=orthogonalEdgeStyle;fontSize=12;html=1;endArrow=ERoneToMany;rounded=0;entryX=1;entryY=0.5;entryDx=0;entryDy=0;exitX=0;exitY=0.5;exitDx=0;exitDy=0;" parent="1" source="yDe0HJ88ZmJv6lRPuch8-2" target="FyC12AB4mqrPU83Jo8B3-20" edge="1">
          <mxGeometry width="100" height="100" relative="1" as="geometry">
            <mxPoint x="280" y="168" as="sourcePoint" />
            <mxPoint x="600" y="255" as="targetPoint" />
            <Array as="points">
              <mxPoint x="-170" y="130" />
              <mxPoint x="-200" y="130" />
              <mxPoint x="-200" y="85" />
            </Array>
          </mxGeometry>
        </mxCell>
        <mxCell id="8ERq5n5Qc_VJYVDK8V4o-4" value="" style="edgeStyle=orthogonalEdgeStyle;fontSize=12;html=1;endArrow=ERoneToMany;rounded=0;entryX=1;entryY=0.5;entryDx=0;entryDy=0;exitX=1.001;exitY=0.823;exitDx=0;exitDy=0;exitPerimeter=0;" parent="1" source="FyC12AB4mqrPU83Jo8B3-4" target="DjejDNn8569znADVHvU2-39" edge="1">
          <mxGeometry width="100" height="100" relative="1" as="geometry">
            <mxPoint x="290" y="200" as="sourcePoint" />
            <mxPoint x="610" y="265" as="targetPoint" />
            <Array as="points">
              <mxPoint x="300" y="185" />
              <mxPoint x="300" y="435" />
            </Array>
          </mxGeometry>
        </mxCell>
        <mxCell id="8ERq5n5Qc_VJYVDK8V4o-5" value="" style="edgeStyle=orthogonalEdgeStyle;fontSize=12;html=1;endArrow=ERoneToMany;rounded=0;exitX=0;exitY=0.5;exitDx=0;exitDy=0;entryX=1;entryY=0.5;entryDx=0;entryDy=0;" parent="1" source="yDe0HJ88ZmJv6lRPuch8-2" target="DjejDNn8569znADVHvU2-11" edge="1">
          <mxGeometry width="100" height="100" relative="1" as="geometry">
            <mxPoint x="320" y="245" as="sourcePoint" />
            <mxPoint x="620" y="275" as="targetPoint" />
            <Array as="points">
              <mxPoint x="-170" y="140" />
              <mxPoint x="-200" y="140" />
              <mxPoint x="-200" y="215" />
            </Array>
          </mxGeometry>
        </mxCell>
        <mxCell id="8ERq5n5Qc_VJYVDK8V4o-6" value="" style="edgeStyle=orthogonalEdgeStyle;fontSize=12;html=1;endArrow=ERoneToMany;rounded=0;exitX=0;exitY=0.5;exitDx=0;exitDy=0;entryX=0;entryY=0.5;entryDx=0;entryDy=0;" parent="1" source="DjejDNn8569znADVHvU2-29" target="DjejDNn8569znADVHvU2-44" edge="1">
          <mxGeometry width="100" height="100" relative="1" as="geometry">
            <mxPoint x="330" y="255" as="sourcePoint" />
            <mxPoint x="630" y="285" as="targetPoint" />
            <Array as="points">
              <mxPoint x="80" y="540" />
              <mxPoint x="80" y="465" />
            </Array>
          </mxGeometry>
        </mxCell>
        <mxCell id="8ERq5n5Qc_VJYVDK8V4o-7" value="" style="edgeStyle=orthogonalEdgeStyle;fontSize=12;html=1;endArrow=ERoneToMany;rounded=0;entryX=0;entryY=0.5;entryDx=0;entryDy=0;exitX=-0.001;exitY=0.651;exitDx=0;exitDy=0;exitPerimeter=0;" parent="1" source="DjejDNn8569znADVHvU2-22" target="DjejDNn8569znADVHvU2-32" edge="1">
          <mxGeometry width="100" height="100" relative="1" as="geometry">
            <mxPoint x="100" y="330" as="sourcePoint" />
            <mxPoint x="640" y="295" as="targetPoint" />
            <Array as="points">
              <mxPoint x="70" y="330" />
              <mxPoint x="70" y="570" />
            </Array>
          </mxGeometry>
        </mxCell>
        <mxCell id="vhgGn6G0JSesjeX7bQMp-1" value="" style="edgeStyle=orthogonalEdgeStyle;fontSize=12;html=1;endArrow=ERoneToMany;rounded=0;exitX=0;exitY=0.5;exitDx=0;exitDy=0;entryX=0;entryY=0.5;entryDx=0;entryDy=0;" parent="1" source="DjejDNn8569znADVHvU2-22" target="FyC12AB4mqrPU83Jo8B3-7" edge="1">
          <mxGeometry width="100" height="100" relative="1" as="geometry">
            <mxPoint x="-40" y="425" as="sourcePoint" />
            <mxPoint x="120" y="485" as="targetPoint" />
            <Array as="points">
              <mxPoint x="70" y="325" />
              <mxPoint x="70" y="205" />
            </Array>
          </mxGeometry>
        </mxCell>
        <mxCell id="Vc8tX7xBZMjjq3iW9ZLF-1" value="" style="shape=image;verticalLabelPosition=bottom;labelBackgroundColor=default;verticalAlign=top;aspect=fixed;imageAspect=0;image=data:image/png,iVBORw0KGgoAAAANSUhEUgAAA5MAAAKQCAYAAAACDC6TAAAgAElEQVR4nOzdf1QU970//me/p+c6BtRdm7BVwMJCKiRoguC5Eo0ajRq8EaExh5MQjw1qrD9DNM31E0NDYtP8uP4gSEjzQ71cRUtjwgJWozYqmgRbduETxSx+hIHKD7O0YTfI6nD/8fsHzmT2xyy7qFk0z8c5Oa0zO+95zfv9ntl5zfu9w0+uXr16FUREREREREQB+P+CHQARERERERHdephMEhERERERUcCYTBIREREREVHAmEwSERERERFRwJhMEhERERERUcCYTBIREREREVHAmEwSERERERFRwJhMEhERERERUcCYTBIREREREVHAmEwSERERERFRwJhMEhERERERUcCYTBIREREREVHAmEwSERERERFRwAZ1MnnosxPIWf8qivd8HOxQNJkttSgoLFL+bXc4sCE3D3aHY8BlSpKEDbl5iIqNR1RsPMyW2hsRKt2CTOWVMJVXuvxb3d98EcVmvP7mJkiSdLPCI7ptiGIzUudlICo2Houyl17XNZzoVsJ7DiK6Hj8NdgBaivd8jJ8b7kLqrOn4xvbPYIfzg5EkCRtfewMZ6Wl4bWNesMOhQcTucKCsvAJJExKDHQrRbUUUm7G1oBB7du2EXqcLdjhEPxjecxDR9Rq0I5OLnnwMc2ZODXYY162gsEh52qceYbI7HFiUvdTjSWBHx0UYDGEoM1W4PCGXnxzKo1Ly9nKZZkutUpb7U3V1DOp1BYVFyn7NllpsyM2DJEkwlVcidV4GRLFZ+Zy8zv0JpvqYtJjKK7H3T39WnvqrR9a0noi6L5f37+uY3EeFCwqLlPjUn3ePQast1CMVUbHxLnWirm/1NqbySpfl6vjcRxkDVVV10iWRVLeft2OfMXsu3vtgO+ISEpX9+mq/7TuLsfdPf/ZY56s/aNWD+6ioegRfXQ+i2IzVOeuUuH21hbo8dRla9eA+iivvq6XlHy6fCeRpvFZ8WueSVp27l+Ne51qjZFptYW0451KP8j77OyZf54XWdUPdFvJxFBQWebSlOgZvx+utP8j9Sd5G63weKHV7q9vo9Jl6PDDp3/Hkwqf7vUapY3C/RpjKKzXr4djxKqzOWQdRbFbOB3UdaZ0X3urOn+uk1nmhbj/3fuJenj8jtL7K87WN1rVVjt3f+papr0XXWw++YvDG7nAobave3lReCUmS8Pqbm5R17v3aW9z9XR+0zs3+YgzkngPQ7vt2hwMFhUV4/c1NLu3nqx68laduJ61z0/071b1tvdWD+lxyr39f12r3fXGElsg/gzaZvJVsyd+mXHwSk1PQ1t4OoO/CNCYyEi2NVjTU16HGbIHZUgtJkrBpcz5Wr1yOlkYr6szVKN5VAlFsRpfdji3525CRnoaWRisy5qdh1+49EAQBuRvWw+m8DFFsRlXVSWTMT0P6/HkQxWYU7ypBnbkaLY1WrF65HJs257skX/tK+9ZHhId7xG93OLDtnXddlsUYo3H6TD3sDgdstk50X7qEK5KE9z/cgYnJSR7H1J9PDx/Bnl070VBfB5utU9nm/Q93KMeqrgdBEPDaxjy0NFrR0mjFxOQkfHroCIC+Lwen8zKOHj6geUxmSy225G9T/r1m1QqlrDpzNWy2TiVJ12oLAJg6ZTIa6uvQ0mjFsiXZOH2mHgCQnDTBpbwyUwXsDgfS589DS6MVRw8fwLKli9FQX4fiHR9c92iHKDbD2nAOifff3+9n5S9ROYYDFZ/gE1MFRLHZZ/s5nU7Un/0aDfV1qDNX47Njx5V60OoPWvXgD0mSsH1nMbq7u5V/+2qLQE2b9qDSzkBfwjDzoekYoRsBALDbHfjs2HEcPXwA+0pLUGaq8Dkl2D2+lkYrkpMmuHzG27mkrvOWRivS58+DXqdD8Y4P0NJoxdqc1dhXWqKsszsc2L6zGHt27fR6Pntri5//3IC7Y2PQ1CQC6LtBDA0NRcK99/isI63zwn3d6pXLsWv3Hpdtr6jqY82qFTAao33GEBEerlyj9pWWeMSivo6516v7+TwQZkstaswW5XyemJyE9z/cAQC40Nrq8xrl3n6yLrsdqXNmoaXRivzNbwGAZj2kTPp3PLdmFUo/+hhXrvS15aeHjmBicpLL8bqfF97q7svqUwDg8zrpj08PHUHJ3lLl3/Vnv4bBEKb0B2/X1kDK80Xr2qr1vem+nVzfQF/fOfLXo17bdiBx9xeDO71Oh5kPTVeOQT43p0170Od+teL2dX0A+j833Q3kngOAz+8LS20d4uPGoqXRio15udi+sxhDBaHfeggNDcXRwwdw9PABhIaGAvB9bgJA/ua3lBhCQ0PR0XFxQPWg5n6ttjscqDFblPNsbc5qv8si+rFjMnkDrM1Z7XJDFhEejt7eXtSYLchZ9wKiYuMRl5CofFldkW8KY4wA+r6I7o6NQZfdrpQn31yMH5cAp/MyJEmCIAjIfPwxrHx2LWrMFjwyZxaAvhuau2NjlIRFLvfKtSeuNlunz/h37d6DuLFjlQv7hdZWTE6ZBGvDOXz66WEYjdEYPmwYent74XRexvhxCQD6bmQmJiehra293zrKmJ8GvU7nso3d4YCltg4LMrOURLzx2g0Y4PrUMWfdC360RB+73YHiXSVYtnTx98tUT2WfXPg0Fj+9CHqdrt+2OPH5F4hLSERUbLxLnaufkKsfIPRH7g/eRlt92X/gIGY9PANDhwouy9V1J8dwobUVD6RMUj5jNEYjOSkR39hs/bZfRnoaBEFwqQet/nA99QBAuemVb1gDaQv3/uCtHvQ6HQyGMDQ1iZAkCRdaW5Wbmrb2dsyYlYru7m7oR+oRE2OEwRDmM15/EjT3c8nfm0q1piYRJXtLkZicgqjYeCzIzFLW+WqLB1ImKUnG6TP1mPXwDAiC4HUfMq3zAnB9Sq+OAehri8TkFGSkp7kkQgOJAeg7L175/R/wal6ux4MXb+fzQLS1tWNicpISj/raCgCrVy73eo0KtP0A7XowGqMRHzcWC3+9GFvyt7lcU2Tu5wXQ11/l/rDtnXex8KknlXW+rpPezguZKDbjs2PHkfVEZkDHpiXQ8rxdWyVJ0vzeBPq+63p6ejzKOn2mXpmFcb310F8MWsaPS4C14RwkSUJTk4iJyUlKX+7p6VGuY4HErcXXuenNQO45HA6Hz++LiPBw5bxQ33P4qocrkoSOixc94uvv3FS3RXzcWBiN0f3Wg3qbE59/4bFP92s1EQ0ck8mbSH4CJyea3kYyBmLqlMn93vjKrkgSui9dwki93uv68+cb4XRexvx5/+GyPCIiAj09Pfifkr24b/y4645Z7UJr6/f7UT1xb2m04mBlGYzGaJgttbDU1inr1E+hr0gSenp6oB/p/ZiOHa/CzIemIz5urLJM/aR3z66d2FpQ6NeIl/rpeUZ6Gja+9gYc10aOli3JDvgJvvyEtaXRCoMhDPVnv+53G2vDOTidl70mMfIT64GMIvji/hDCW3/o7e0dcD1829WFGrMFi7N/7XdM6rZQ9wdAux4enZuKr06fQUfHRcTFjVVuaiLCw3H0yMEbWmda59JAqB9QtTRa8drGPOVGS+vclPvHxYvf4MqVK/2OSgLa54UoNuMTU4Vy/XIfSZw6ZTJe//0rHqO5A4kBAF7//SuICA9HVdVJj3XezufBoq2tHWMiIz2W+6qHC62tWJuzWklerqjqT+u8UF8nX37pRfwubyPsDofP6yTg+/pQXvkXLFqY5fJdkpw0AWMiIwf0cMhbeb54u7ZKkuTze7OtrR0GQ5jXBxTqa2tLoxVrVq0YcD0M5LvbaIxGWNhd6Oi4iMbGJiXREgQBi59ehNy8jV7r1Vfc3vR3bgaDvcuO7kuXAGjXg/w5AJrf3VrUdXShtVWZTu6rHtSjmVOnTHZZ5+1ardfpsPjpRcpU9+udCUH0Y8Jk8iYZMmQI4uPGYv+Bgx7rhl77IpSnQfX9hqYOI/V6jNTrYbbUKYnO/gMHER83FoIgwO5wYGtBITIffwxjIiOVaSAj9Xqcb2xSpqfJN2RDBQFNTSLujo1RnuS5+5+Svch8/DGXL+eQkBCEjx6FjPQ0pM6ZhYR770FoaCguOy8jJOQOlyksZeUViIjw/4bc7nDgfGMTxo9LUEaOvN1AAn03UEOvHXdZeYWyvKlJhMEQ5nXqaFt7O0Sx2eNpv7vu7m502e0+26I/8nFXVZ0M6KYrUO99sN3vER4AGBMZqYyKAH3HdL6xCfHxcX63X0fHRXRfuoSYGKNmf7Bfe6o9kHqQX/ig13/fhtfTFlpGjx4Fp9OJv/29BrFGo8u6oYLQdxxddmWfvupYP1KPhnPnNB8AeDuX5GPS6uPexMQYcb6xyevDDs226LJDEASMiYzE8aoT+NmdP/O7v6jJ5wUAjBgxHPqRekiShDJThcdnM9LTYDCEuUxHG2gMQ4cOxfPrclBWXuEynbC/87mgsMjv34xFRISjxmxRkt/9Bw4iJOQOJWY5MbY7+qY/jx+X4LP9JEmCteGcMnKjplUPotgMp/MyEu+/HwZDGCYmJ7lMzfN2XvR7XBrXSV9OfP4FQkLu8DqdWJ5uGMjDIa3yAiUIgub3plzfj85N9Vg3flwCPjt2POA38HqL21cM/blv/DgcqzoBAC7fT0ZjNA5WlnkktAONu79z091A7jl0Op3f3xenz9S7zI7Sqgf5pwbu392+zs0bWQ8yb9dq+f7qnbe3eJ3mqv59OBG5GrTJpPxnQQ4eOY6602eRs/5VfFVvDXZYAXlkzizYbJ0ePxB3f1I5Y/ZcrFm1HEZjNIzGaPwqPQ0zZs9FVGw8ACB9/jzlNw8zH5oOozFaKbugsAhGYzRmPjRdmQZVVl6B59floP7s11iQmaX8pjMxOQUle0uRs/a3ypdX6pxZLommJEno7Ox7e25y0gSPp6QLn3oSZeUVSnkZ89P8uoGQp5wkJqdg0cIsZZ/q8tRTP+Un+XEJichZ+1tMfXAKgL5pLQsys1ymcbqTp2qqqaeCJSanIGlCIpKTJvhsC8B1KlZu3kYsfnoRdDodMtLTlKlT33Z1+X3TpZ7mKtdxf9RTkPwh9w35BTzr/vNFPLdmFfQ6Xb/tJx/TymfX4rk1qzBUEDT7w5B/G+KzHtR1J/dDOVHIeiLTY9Sqv7YYCPmmvv7s1xg9epTruqECZj08AzNmz0Vu3kavN6lqep0OL7/0ohKf+wsa3M8lef9ykuTvyzz0Oh0WLcxSrgHyNv2dm0DfzenBQ0c8EmctWueF/Lu/xOQUZDz+hOYI4zNLsmGzdbpM2Q40BvVxy/WrriNv57NsTGQkOv/5L2XEw5fkpAkwGMKUPmmzdeKZJdkAoCSrcQmJLtcorfazOxxYtmI1enp6PPqVzL0e1A8D5enq8rnq67wAXKe5zpg9F4sWZkGv02leJ/tz1513evR3+YbcV30HUl5/vF1bBUHw+r35jc2Gja+9gfc+2K6cFznrXkDOuhdgKq/0+A709+UpWnFrfXf3JybGiBMnP0dsbIxfdTCQuP09N9UGcs8B+P6+V/fJGrNFOZe06sFUXqm0mRzDex9sx8bX3kDCvfdonpuA6/emzdaJR65dawOtB5m3a3VV1UmfD96HCgIiwsNhs3Xyz20RufnJ1atXrwY7CLo5zJZafFl9yuWm0+5wYNfuPXhmSfaARi4GQr4xVL+4gm4+UWxG6Ucf47lnV/nV1gWFRXggZdINmYodjPIH236Dwds5fzvHYLbUYts77yJ/y38Nuj/pMRja4nYhSRK2vt2XiKtv9k3llYiICB8053ag19xbld3hwKbN+Xh+XY7X885bPXi7DxDFZhyrOoHFTy/6YQK/TvKoJM9pIleDdmSSiOh6yKNuYyIjB83N5s0i/3mBMlOFyxP92zUG+U8MDMZEcjC0Bf2w5BeRvfL7P+A3y5bc1omkL7drPcjHBTCRJPKGI5NEREREREQUMI5MEhERERERUcCYTBIREREREVHAmEwSERERERFRwJhMEhERERERUcCYTBIREREREVHAmEwSERERERFRwJhMEhERERERUcCYTBIREREREVHAmEwSERERERFRwAZtMin19uLtd3ciZ/2ryFn/Kr6qtwY7JKKbQpIkbMjNQ1RsPKJi45E6LwOi2BzssAYVU3mlUj9RsfEwlVcGOyTSoG4r9uXgKSgs4jlDREQ33U+uXr16NdhBePNVvRXf2P6JOTOn4qt6K0z7DyNnRTZGDB8W7NCIbipTeSVqzBbkblgPQRCCHc6gI0kSNr72BiYmJyF9/rxgh0MqpvJKlJVXIH/Lf0Gv0wU7nB+1gsIiPJAyCclJEyCKzcjb+Afk5b4IozE62KEREdFtZNCOTN6XEI85M6cCAKLGREA3YniQI9LmPrLkzxNg96fGi7KXwu5wQBSbUVBYpJQnLwcAUWxG6rwMj/3YHQ4syl7qUp7ZUuvXNgWFRS6fM1tqIYrNeP3NTZAkSTk2uTxftPbVX/2oRzI25OZBkiSP+pHXWRvOYXXOOqVO1PF5qwf34wv0Kb3ZUuu1Xt3bUN1O7tsMZETAYAiDIAgedSfXj7x/OR5TeaUyCmQqr1SOWz52uc7cR/jkbUSxGdt3FsPucGBDbh7sDodSvq/+oBWDr/q5XoIgICM9DTVmi9JXtGLQ6nta9QB4nk9yXRYUFrm0pdlSq7SH+zbqeNz7sfpc99YnfW3jvl7dH7bvLMbeP/3Za78LtC3U/cDbsXsjSRJqzBasXrncI5H0dW66xyfvR93v5PpWn89afdLXOeurztX79XaNcd9G6xolSZLPGLT46pPq8gZyLo0ePQqREeHosts9ypNjlo/TvU/Lx6sVg3s7yXXpXtfquvB1LhER0a1l0CaTai0X2gAAQ4b8W5Aj8e79D3dgYnISWhqtaGm0+j1asq+0BC2NVtSZqxERHq4sP3joCDLS09DSaEXG/DTs2r0HAGA0RuNgZRlaGq1oqK+DteGccrMRER6OOnM1Whqt2Fdagi+rT/m1zfnGJtgdDpw+U48YYzTa2tpdYvz00BGU7C31uy6mTpmMhvo65G9+y2v9NNTXocZscbnxqzFb0FBfh5ZGK17bmAdBELBm1QrlWNbmrFbWxceNxd2xMWhqEgEAHR0XERoaioR77/FaDzJf9dAfef9rc1YryyRJgtN5GUcPH3BpP0mScOSvR3H08AG0NFpd6sEX9Y1kWXkFFj71JIC+xOm1jXlK35qYnIRPDx1x2Vauw7KP9sJojMa0aQ/CZutUbvZOn6nHzIemKzf4+ZvfUuph6pTJfsUn0+oP7jEAUNqwpdGK1SuXK/14INxv6BdkZqGtvR1XVDef3mLwdW5q1YO9y464sWPRUF/n0ocenZsKa8M55Yb3y+pTyEhPAwBs2pyP1SuXK+dz8a4SiGIz0ufPQ0ujFUcPH8CypYvRUF+H4h0fQK/TafZJX9u4ny8Tk5Pw/oc7AABOpxP1Z79GQ30d6szV+OzYcaWPX09bmC212JK/rd/PyW0RE2P0ul7r3DSVV2JMZKTX64M/3PtkctIE5VjrzNUoM1Uo50KX3Y7UObM0z01JkrB9ZzG6u7uVZVp9SOsaJQiCzxh88dYnRbEZxbtKlLpbvXI5Nm3ODyjx6ui4iO5LlxATY4QoNuPIX4967UOhoaH4rrsbHR0X0dQkYtiwYbjQ2jqgGOT+3VBfh2VLFyvXxOSkCZrnEmdiEBHdegZ9MvmP1naUVR5C+qOzIQwZEuxwPNgdDthsnZg27cEbVubUKZOV5Gj8uAQ4nZc9Rj/iEhJx4vMvlG3a2tuRmJyCqNh4bHvnXSUZ0drG3mVHaGgoRo8ahRqzBTVmCxLvv88lDlFsxmfHjiPriUy/4u6y29HT0+OyTE66xo9LANCXHE1MTlKS1oHcRDyQMklJlk+fqcesh2f0u72vuvPFPbm+WeQEQr5Ry1n7W5dRITmJyln3gst2CzKzUGaqcJkSq9fpYDCEoalJhCRJuNDaekP6p1Z/8BYD4JogL8jMuq59uyfVRw8fwPDh389W8BbDjT43R48eBaDvxlxum4R77/FIovQ6He6OjVFGgbQMpE+2tbVjYnKScozq6wMA5Vxyj2GgbWG3O1C8qwTLli7u/7NddnRfuuR32cD3o5k5615Q6iGQh1fe+qR6RCwxOQVt7f6fw/KDGvnh0ED70PXE4K7LbsfdsTHKwyC5n13xI5lckJmFqNh4rHx2LZ5bswp6nQ6nz9TjvQ+2Iy4h0eWackWS0NPTg8T778Pf/l6DI389iskpk/yK4cTnX3iU54vWuURERLeeQZ1M/qO1He9u342MeXPwi8jw/je4DakTtF279yBpQqLX0RT1U/+XX3oRv8vbCLvD4XMbAJgy+QE885tVMBjC8LORI13WlVf+BYsWZsFgCPMr1ra2dmV65s0k33RcvPgNrly54tdNSH/1oOVCayvGREZ6LJdvvPQj9S7LBUHAb5YtwSu//4PfN1buYmKMys2s2VILS22d0rbuoynv/7EQbe3tqD/7tcvyR+em4qvTZ9DRcRFxcWNvyO/XtPqDtxhEsRmfmCqU0Qj1SNSN0GW3Y/iwYRh6ra9p1cNAyw4JucOjHwuCgFkPz8DpM/VoahLxQMqk6+rrA+2T/pAkCTZbJ4Dra4tjx6sw86HpiI8b2+9n5XPB3uU7iXYXGhqqxCb/l5w0wa9t3fukPLK4bEm211kfbW3tXs9nAPi2qws1ZgsWZ/86oPjd9RfDD0me/XKwsszlt5LyCKj835pVK5R1940fh/8p2Yuenh5ERET4tR95Roq/szFu9LlERETBM2iTye+6L+G/S/bhiQVpuC8hPtjhaJJvZquqTt6U8r+sPuUyEiHfCNWf/drv0TWtbcLC7sLE5AlYtnQxHp2bioiIcFxobQXQ96Q5JOQOv2/qJEmCteEcHp2b6rJcEASEhNyB02fqAfQ96S8rr0BERLgSW5mpIqApW4IgYExkJI5XncDP7vyZ3zchgdadr1GJpiYRBkOYR5ImSZLLlEd/p7m6lw1837ciwsMxVBCUulMbqdfj5ZdeREHhuy7TdkePHgWn04m//b0GsUbv0w4D4as/aMUwYsRw6EfqIUkSykyucbv/ZjcQdocD295512VE21sMAz03v6w+hQeujci4i4kx4kJrK746fUYZnZH3I7ebKDbDbKnDSL3eaxlqgfbJiIhw5beiALD/wEGvia96WiPguy20tLW3QxSb8cicWX59Xh4N3b6z2O/zWRAExMeNxf4DB/36vJqvPilfX6qqTiqjgvI1Sp4l4W7ja28gIz0Nev335/T1XN+9xTAQI/V65ecI6liGDjD5Gj8uAZ8dO+512q3BEIaEe+9B6pxZyEhPQ/joUXA6LyMkJOSGxgB4P5dk13N9ICKiH9agTSZN+w/D7vgOO3d/pPx5kEOfnQh2WB4EQcDz63JQVl5xw17Brp4yBED5jc6jc1Px3oc7EBUbjyN/PeoykqGe5jpj9lwsWpgFvU6nuU2X3Q6n0wlBEPB//vN5jzf83XXnnR6JoRb57ZrvfbAdM2bPVUbkcta9AFN5JRY+9aRSP4nJKciYn6bcAKbPnweDIUw5Xn9fwjB+XAIOHjrid6Lkq+68sTscyFn7W5TsLVXqdUv+NizIzMLWt/v+11vCIY+MBTJly/3lJNveeRfPr8uBIAhKOXEJichZ+1tMfXCKx/ZGYzTWrFqOGbPnKr81kxPu+rNfK1PK+rPvExMSk1OUY96Svw1lpgr0/u//9tsf3GMwGqNxd2xMX3s//oRHfQwVBESEh8Nm6/SrvdXTNN37kFYMgZ6bvf/biw25ebDU1mn+7k9+eOB0OpX/LwgCFj+9CLl5G5Xzb82q5f2+NTPQPgn0/R5Qfb7YbJ14Zkm2st7btMb+2sKXQKegr1m1wiU+f/40yCNzZsFm6/T6chf1tXBBZha25G9T+ri3Pim/nEmuh2+7uhARHo7vHN9h2YrV6Onp0Twfsp7I9KibgVzftWIYKKMxGjMfmq5ch8rKK5Trw40oT34pjr3LDqfzMoC+dlSfX9FRv7ihMQDezyUiIrr1DNo/DfJjJYrNKP3oYzz37KpbZtqPJEnY+nYhMh9/zOUG2lReiYiIcL9HNwNhttTiy+pTLtOzbiS7w4FNm/Px/Loclxud7TuL8dC0qbfE6/XVfxpgIG52X5RHHW5WG94MWn19MLje9r4V/BiO8cdiMJ9LRETkv0E7Mknkjfx6+jJThcuIDH1PfmHPmMjIQXnTLb+cBLh1Ekn5bbJxCYmY9fAM3vwSDRDPJSKi2wtHJomIiIiIiChgHJkkIiIiIiKigDGZJCIiIiIiooAxmSQiIiIiIqKAMZkkIiIiIiKigDGZJCIiIiIiooAxmSQiIiIiIqKAMZkkIiIiIiKigDGZJCIiIiIiooAxmSQiIiIiIqKA/TTYAWj5qt6Knbs/Uv799FOP476E+CBGRERERERERLKfXL169Wqwg+jPP1rb8ad9lfjN4iyMGD4s2OEQERERERH96N0S01wd33VDEIZgyJB/C3YoREREREREhEE8zRUADn12AgePHIcgDMHyxU9BGDIk2CERERERERERbqFprjt3f4Snn3ocv4gMD3Y4REREREREP3q3xDRXQ9id0OtGwPFdd7BDISIiIiIiItwiyaSt81+QpF5EjYkIdihERERERESEQfybSfn3kgCg141AzopsvsmViIiIiIhokLglfjNJREREREREg8stMc2ViIiIiIiIBhcmk0RERERERBQwJpNEREREREQUMCaTREREREREFDAmk0RERERERBQwJpNEREREREQUMCaTREREREREFDAmk0RERERERBQwJpNEREREREQUMCaTREREREREFDAmk+RVQWERzJZa2B0OFBQWQZKkYIdERERERESDyKBPJr+qtyJn/as49NmJYIfiQZIkvP7mJohiM0SxGa+/uQmSJCmJ2K3s0bmpyM3biMTkFIyJjDoA4wcAACAASURBVIQgCMEO6aYyW2oRFRuPqNh4bMjNY/JMQVdQWKT0SVN5ZbDDISIiIvLw02AH4Mt33Zfw6ZEqxI+NDXYoXgmCgFkPz8D+Awfx6NxUAIAoNsPpvIyEe+8JcnTXx2iMxsHKsmCH8YMwW2pRZqpAQ33dbZ80062hoLAIYyIj0dJoDXYoRERERJoG9cikaf9h3D/+HkSNiQh2KJoS7r0HTudlNIoiAKC88i+Y9fAMCIIAU3mlMqIgis1YnbMOdocDkiRhQ26eMuqgHnlQj3ACcCkD8D5aYXc4sCE3D3aHA0BfclRQWOSxvdZIqkz+rHqdHGt/I63u5WnFoK4H+Xjksk3llUidlwFRbFY+mzov44aMzrjXubqsr06fQcK99yAuIdFjnam80uuI5fadxdj7pz97lGcqr1SOW+t45W0WZS9VltsdDizKXqqsk+vEvQ7U9aMeTVVv429/cI/NPQZ/RmjVxxMVG6/sRx2DXPfq8tT1Kh+T++i+ep36GNyPQ6se3OtPrm/34/S3f/lqC1989T2t8xkArA3nvO5HXXdax3urz4wgIiKiW8OgTSa/qrfC8V03pk3592CH4pM8OvnMb1bhvQ+2o+HcOcTEGF0+I0kStu8sRnd3t7LNaxvz0NJoRUujFUcPH4C14Vy/N+6m8kpltKKhvg41ZstNv2n89NARlOwtvSFludeDmtlSixqzBWUf7YXRGA0A6LLbkTpnFloarcjf/NZ17fv9D3dgYnKSR91JkgRRbEb92a/RUF+HOnM1Pjt2XElgaswWNNTXoaXRionJSXj/wx0AAKfT6XWbadMehM3WqSQEp8/UY+ZD06HX6ZRY9pWWoM5cjYjwcKVeNm3Ox+qVy9HSaEWduRrFu0qUBGLqlMlKDMuWZOP0mXoAQHLSBKUP1ZmrUWaqUPbbH29tUVV1Ehnz05Q+GRoa6ldZ+0pLlBjUx+5e969tzFNGfi+0tmJfaQka6uswdcpkl8+LYjPONzahzlyNZUuysf/AQZ/716oHu8OB7TuLsWfXTrQ0WrF65XJs2pyPoYKA4h0foKXRirU5q5X40+fP6/dYtdrCF3XfU+9H63y2d9lx8NARxMeNRUujFRvzcrF9ZzEkSYLd4UCN2YI6c7USPxEREVGwDMpkUp7emv7obAhDhgQ7nH61tbVj2dLFePQ/UjF8+HCP9Z8eOgIASvIAuI5yvPL7P+A3y5YoN9onPv9CGSXLWfcCgL6b/xqzBTnrXkBUbDziEhJdkry29nYkJqcgKjYeCzKzXPav3ubE518oy9X78ZaUimIzPjt2HFlPZF5H7fiuBwBYkJmFMlMFcjesvynTTCVJgtN5GePHJQDoS+YnJiehra0dABAaGorFTy+CIAjQ63S4OzYGXXY72traMTE5SYlp/LgEOJ2XlaQ/Iz3NYxu9TgeDIQxNTSIkScKF1lZMm/agEofN1ukR35Vr5ckPIdTlAa7tVGO24JE5swC49qHE5BS0tbcrZfrqD4B2WwzEgswsJYaM9DQlcZZjGBMZ6VeiBvQd69y0X2H4sGEYKggYPy4BISEhAACbrdPrAxetemhqElGyt9RnPQRKqy202B0O2GydSh+Q9Xc+T50yWSlb7hdX/Pgdrzw9PTlpQqCHRkRERBSwQZlMtlxow0VbJ7a+sx0561/FwSPHcfDIcbz97k5Ivb3BDs+F3eHAZ8eOIykpEeGjR+OBSf+OqqqTyvpvu7pQY7ZgcfavXbaTb/paGq14+aUX8bu8jcqIjnr0Qz0iFxoaiqOHDygjHC2NVuWmMSI8XBmt2Fda4rKv/M1vKaMf6lEgeT/7SktQZqrAlStXXLYrr/wLFi3MgsEQdt31pFUPAPD+HwvR1t6O+rNfuyxva2vHmMjI6973zeaeJD46NxVfnT6Djo6LiIsbqyRXVyQJ3ZcuYaReH1D56v6QkZ6Gja+9Ace1UbdlS7KVETl1YuirP2i1Rfr8ebjQ2oqo2HjMmD0XPT09fsUnj+w11NehzFShPJiICA/H+38sRFm564ipnNx7q4epUybjQMUnHqOiyUkTYDCEeX3I4qse1uasdjlf1KOjA+GtLQb6siZf57MWvU6HxU8vwpMLn0ZUbDy25G8b0L6JiIiIboRBmUzelxCP/Dd+p/yXOms6UmdNx7PLnx50I5VNTSLujo1BrLFv9OC+8ePw2bHjys3zxtfe6But0et8FYPvvuuGvcuuuV4QBMTHje13yt+NcuLzLxAScscNG+HwVQ8j9Xq8/NKLKCh8V5naKUkSrA3nlNHE6yEIAkJC7lCmJNodDpSVVyAiIlxZJ9erPMUyJsaIiIhw1JgtSrKw/8BBhITc4ZGMdHRcRPelS8oI0ujRo+B0OvG3v9co/QL4vq/I03hlQ6+V19QkKjGYLXV+JZ0REX2JU1XVSZeRSV+02kL+zV6g01x9mZichIz5adi0OV+px46OiwD66skbvV6Pnp4eXJEknD5Tj5+NHAkAWLNqhZJ0uU979lYPMTFGnG9s8ut3jTeL3LbqB0yA7/NZP1KPhnPnlIcrVVUnYTCEQa/Twe5wYGtBId55e4vXaa78zSQRERH9kAZlMnmrkCQJZaYKPJAySVlmNEbj7tgY5eYx64lMjze7ur+QY8bsufhVeppHkuHukTmzYLN1en2By0DIU/Zy8zZi8dOLMHToUGXdXXfeqbyhNtDy5CmFW/K3KTe13upBzWiMxppVyzFj9lwcO16FZStWo6enRzPhCNTCp55EWXnF99Mx56cpifLCp56EpbYOUbHxWPnsWjy3ZhX0Op3HaJjN1olnlmQrZcrTO9XbAH2JwpjISNSf/VqJ32ypVepEjqFkbyly1v4WVyQJi59ehNy8jUp/WLNqudIf1PUqt5VOp0NGepoSw7ddXX5PWfXWFvIIe6Btrq6HuIREGAxhHg8g0ufPg8EQhmUrVuP48ROYMXsu4uPGao4Q6vU6TExOQmJyCsrKKzymiKoJgqBZD3qdDosWZmHG7Lk37E9seGsLXyOdgiDg+XU5St9Tx6B1Put1OqxeuVw5phqzRel3VVUnvT6QICIiIgqGn1y9evVqsIOg21NBYREeSJl0W/5+q79jc19vttTiy+pTWLNqhfIZu8OBXbv34Jkl2fyTJERERER0y+HIJNENJP+phzGRkbdlEk1EREREJOPIJBEREREREQWMI5NEREREREQUMCaTREREREREFDAmk0RERERERBQwJpNEREREREQUMCaTREREREREFDAmk0RERERERBQwJpNEREREREQUMCaTREREREREFDAmkzeRJEl4/c1NEMXmYIdCRERERER0Q/3k6tWrV4MdhDdf1Vuxc/dHyr+jfxGJZdlPQhgyJIhReWd3OJCz9rfo/Oe/8M7bW2A0RivrRLEZWwsK8WpeLvQ6ncvnq058rnwuPj7OY1siIiIiIqLB6qfBDsCXxPH3YtGTjwU7DJ/kZPHl3A3Y+vY2j/VGYzRmPjQdu3bvwZpVK5TlEeHhqDNXQ6/TQZIkbH278IcMm4iIiIiI6Lpwmut1MhqjsS1/M/R6neZnpk17EDZbJ+wOh19lmsorERUbj6jYeGzIzYMkScpyU3klAMBsqUVUbDzMllqYyitRUFikbC+KzVidsw52h8OlrKjYeKTOy1Cm3RYUFsFsqVXKltcVFBYp+5H3pY6DiIiIiIhoUCeTdafPImf9q8hZ/yq+qrcGO5wBGyoIAICmJrHfz5ottagxW9BQX4eWRismJifh/Q93uHxGFJtRvKsEdeZqJCdN8EhWT5+px8yHpivTavM3v4WWRisa6uswdcpkzX2WfbQXRmM0Hp2bCmvDOSV5/LL6FDLS0yBcOw4iIiIiIqJBO831voR45L/xOwDAP1rbsXP3R9CNGI5fRIYHObLACYIAgyHMr8+2tbVjYnKSkriNH5fgktjlrHsB06ZOQf6W/1KSRb1OB4MhDE1NIhLuvQcXWlux8Kkn/drfgswsZD2RidwN65V9jh49CgDQ0XER+pF6AEDCvff4f8BERERERHTbG9QjkzJD2J0Y9XP/krHBSJIkOJ2XMVKvv+6yXv/9K4gID0dV1UmX5Y/OTcVXp8+go+Mi4uLGKolmf97/YyHa2ttRf/ZrZZkgCJj18AycPlOPpiYRD6RM4qgkERERERG5uCWSyXPnRXxj+yd0I4YHO5QBuSJJ6OnpUUb5fImICEeN2aKMRO4/cBAhIXcoydzQoUPx/LoclJVXKL93BPpGE51OJ/729xrEGo1+xzZSr8fLL72IgsJ3Xf6ESUyMERdaW/HV6TOIifG/PCIiIiIi+nEYtMnkoc9OKL+XNO0/jJwV2RgxfFiww/JgdziwKHspEpNTULn/AGbMnuvxspqqqpMwGML8Gi1MTpoAgyEMcQmJiIqNh83WiWeWZLt8Rq/T4eWXXkRu3kblRTmCIGBMZCTqz36tTFP1l9EYjTWrlmPG7LlKgirH6nQ6/R7lJCIiIiKiH49B+3cmbxfe/s7kzVJQWIQHUiYhOWnCdZcl/7mSzMcf49++JCIiIiIiD4N2ZPJ2IEkSSj/6GM+tWXVTE8mCwiJExcZjTGTkdSeSkiRhQ24e4hISMevhGUwkiYiIiIjIK45MEhERERERUcA4MklEREREREQBYzJJREREREREAWMySURERERERAFjMklEREREREQBYzJJREREREREAWMySURERERERAFjMklEREREREQBYzJJREREREREAWMyeRNJkoTX39wEUWwOdihEREREREQ31KBOJr/rvoRX3ngbOetfxStvvI3vui8FOySvzJZaRMXGIyo2Hhty8yBJEgBAEARkPv4YthYUwu5wuGxjdziwKHupsp3ZUhuM0OkaJv5ERERERIEZtMnkd92X8MftJfh11gLkv/E7vLz+WYwYPizYYXmQJAlfVp9CnbkaDfV1AIBPDx1R1huN0Zj50HTs2r3HZZtNm/ORMT8NLY1WHD18AAWF7zKRISIiIiKiW8agTSZP1dTh/vH34BeR4cEOxSdBELBm1QrodToIgoCJyUken5k27UHYbJ3K6GRHx0WEhobikTmzAPQlnL9KT8PpM/UQxWakzstQRiyjYuNhKq8EAJjKK7H3T39W1hcUFin7UG+3KHupy0hoQWGRUpZ6nSRJ2JCb53V01D0OOQb38uTldocDG3LzlLLNllolPlN5pfI5UWzG6px1fsWgpaCwSPmcqbwSqfMylERcPUqsPlZ1DO6jkGZLLeISEvHeB9sxY/ZcZXRZFJvx+pubIEmSEqe8X/f6kfdlKq/0aBf5eH21nzpudT2o69H9ONT1YLbUKnG7t0VBYZFL+xERERER3QiDNpn8xvZPSFIv1ue9iZz1r6J4z8fBDqlfkiShxmxBRIRrAjxUEAAATU0iAKDLbkdIyB0Qri0HgIiIcFxobQUATJ0yGQ31dWhptCJ/81suZX16+Aj27NqJhvo62GydMFtqYXc4sH1nMfbs2omWRitWr1yOTZvzlem2ALCvtAR15mpEhH8f2/sf7kBGet/oaJ25GsW7SpQEq8tuR+qcWR4xmMorMSYyEi2NVjTU16HGbPF7iq4kSdi+sxjd3d1+xdAfs6UWNWYLyj7aC6MxGqLYjOJdfcepVQ/u5G2qTx7DsqWLcaDik756Vo0uy/8u2VvqskzdTsU7PoBep/N4cHD6TD1mPjQdep2urxwv7QcAyUkT0NJoVeqhzFThMTVai93hwLZ33tWsoy352/wqh4iIiIgoEIMymZR6e+H4rhstF9qQ939y8MYr/wnHd934qt4a7NB8ev/DHTAYwpCcNMFluSAIMBjCbsg+MuanuYyCtrW1o6lJRMneUiQmpyAqNh4LMrOUz0uSBJut06Mcu8MBS20dFmRmISo2HonJKWi8luxqkZPlnHUvICo2HnEJiS4JVlt7u9cYZHKCJie0A4lBtiAzC2WmCuRuWK8k5V12O+6OjVESt5gYIwDgyrVkUh33ic+/cN1G37eNIAjISE9TEnugL+H87NhxZD2R2W9cep0OBkMYmppESJKEC62tmDbtQWW9t/aT9yGPWCYmp6Ctvd2vegCAXbv3IG7sWISGhrost9sdKN5VgmVLF/tdFhERERGRv34a7AC8EYYMgW7EcNw//h4IQ4YAAOJ+GYNvbP/EfQnxQY7Ou4LCIthsncjdsN5jnSRJcDovY6ReDwAYqdfD6bwMSZKURKitrR1jIiMD2ueF1lZlm7U5q7Fm1QqPz9gdDnRfuqTsWy0iPBx15mol+VLTiic0NBRHDx+A0RjtsR91eWZLLb6sPqWs/7arC6LYjMXZv8b2Hf/tVwy+vP/HQpTs+RPqz37tkbxryd/8FtLnz4MkSdj6dqHf+yqv/AsWLcxyOR5fHp2bimNVJzBSr0dc3FjNY5PbTx6xXbYkG+nz58HucGDT5ny/9nX+fCOczsuYP+8/UF75F5d1x45XYeZD0/0qh4iIiIgoUINyZBIAfm64C//39NcA+kYqG/5fE35uuCvIUXlnKq9UEkn11FXZFUlCT08P9CP7ErrRo0ehp6cH9Wf7jk8Um/GJqQLjxyX4vU+7w4HzjU0YPy4BMTFGnG9s8jo9tKlJxN2xMR7JnzyCVlV10mMbSZJgbTjnEY8gCIiPG4v9Bw76Hads42tvICM9TRkB7C+G/ozU6/HySy+6vLhopF6P841NyvRQudyhXtpEXc75xibY7d//hrPMVIEHUiYBAE58/gVCQu7wO2EF+trX6XTib3+vQazR6PUz6vaTydOjq6pO+j0y+T8le5H5+GMe/a6tvR2i2Kz8LpeIiIiI6EYbtMnknJlTAQA561/F+pffRNwvYwblqKQoNuO9D3egZG8p4hISvb4Ap6rqJAyGMGWEShAELH56EXLzNiIqNh4rn12LvNwXPRI+b+SpmonJKVi0MAtGYzT0Oh0WLczCjNlzXV6MY7bUYkFmFrbkb1O2Kdlbipy1v4Xd4cDCp55EWXmFy581+eYbG5atWI2enh6MHj3KY/+PzJkFm63T60tufMl6IhMJ997jsdxbDL5+46hmNEZjzarlmDF7LsyWWuXNufJU27LyCjy/Lsdrgq8uY+ZD05Hy4EN474PtmJv2K0xMTlKSx7vuvBOPzk31Kx6ZIAgYExmJ+rNfe9Sht/aTp9bK032/7epy+W2r3H5RsfHIWfcC3vtwh5JAp86ZpdlvMtLTfB47EREREdH1+MnVq1evBjuI25koNmNrQSFezcsNeCqnO/mNnOnz5/n1eXmqqXr6q93hwK7de/DMkmwmGiry1NfMxx/zK6nvT0FhER5ImeQyohlo+/0QcRIRERERDdSgHZm8HUiShNKPPsZza1ZddyJJtwb5z6aMiYwMaGosEREREdGthiOTREREREREFDCOTBIREREREVHAmEwSERERERFRwJhMEhERERERUcCYTBIREREREVHAmEwSERERERFRwJhMEhERERERUcCYTBIREREREVHAmEwSERERERFRwJhM3kSSJOH1NzdBFJuDHQoREREREdEN9ZOrV69eDXYQ7qTeXry3Yw+a/9Hqsvzppx7HfQnxQYrKO0mSsPG1N1CytxQAkPVEJnI3rIcgCAAAUWzG1oJCvJqXC71Op2xXUFiELfnblH/vKy1BctKEHzZ4IiIiIiKiARqUyaQ7qbcXxXs+xiMPT8MvIsODHY5PBYVFGBMZifT585RlpvJKXGhtxZpVK1w+90DKJCQnTdBMOImIiIiIiAarW2Ka67nzIoQhQwZ9IilJEmy2TkREuMY5bdqDsNk6YXc4NLcdPWoUhgoCCgqLYLbUKsvtDgc25OYp2xYUFiEqNh5RsfFYlL3Ur+Vyee7Tbs2WWmWbqNh4l/1qMZVXumyzITcPkiQFtI16P+r4TOWVSJ2XocRndziwKHupx3bqY3U/XvdtCgqLYHc4sDpnnct044LCIpjKK33Wg/t+1MertY0oNuP1NzcpdWK21KKgsEg5PnmfotiM1TnrYHc4XLaR96muByIiIiKiwWjQJ5NSby9O1dRh+oOTgh2KJjmBiUtIhMEQ5jFddei1Ka9NTaLL8gWZWYiKjcfKZ9ci8/HHlKmx/dlXWoI6czUiwr9PWtesWoGWRitaGq1YvXI5du3e0285yUkTlG3qzNUoM1X4THhl+ZvfQkujFQ31dQgNDUVHx0Wfn0+fP89lP8W7SjwSJbOlFjVmC8o+2gujMRqSJGHT5nysXrlc2VZdr/tKS5Ty1PVg77IjbuxYNNTXYV9pCQBAr9Nh5kPTcfpMfd9nHA7YbJ2YNu1Bn/Ug1+m+0hKszVmNlkYrXtuYB0EQBlx3QF9Sv31nMbq7u12Wi2Izzjc2oc5cjWVLsrH/wEG/yiMiIiIiCoZBn0yeOy9CknphCLsz2KFo0ut0KN7xAVoarQCgjETJBEGAwRDmsZ2cEL3z9hZsLShUkhE5ydyQmwfpyvejfvLIpzfq0b8FmVku69ra2r1uI4rNSJ2XgajYeCQmp6Ct3fvn3OWsewFRsfGIS0hEfNxYGI3RPj/vvp/K/QfQZbcr6xdkZqHMVOHyW9OOjosIDQ1Fwr33+BVTf8aPS4C14RwkSUJTk4iJyUnKlOKB1MNA6w4APj10BABckuATn3+BuWm/wvBhwzBUEDB+XAJCQkICPEoiIiIioh/OoE4mpd5eHD95CtMfnARhyJBgh+OXB1ImwWbrdJn6KUkSnM7LGKnXe91m9OhRGD1qFOxdfQnWvtISNNTXAQDOnD2rfO6KJKH70iWPckSxGZ+YKnD08AFlJE228KknUVZeoSR/Jz7/Qolp+85iLFuS7XWEzxd5ZLKl0YoLra3K1E0tRmM0DlaWKduszVntsv79Pxairb0d9We/9mv/vnTZ7QgJucNjlNdojEZY2F3o6LiIxsYmZVRyIPVwPXX3bVcXaswWLM7+tcvyqVMm40DFJwgNDQ3gaImIiIiIgmdQJ5PnzvdNCx17tzHIkfjvy+pTmJic5JLMXJEk9PT0QD/SezLZ0XERHRcvaq6XNTWJuDs2xutI4IgRw6EfqYckSSgzVSjL1aOmDfV1mDplsst28u87q6pOBjS6NlBmSy0OHjrikhCP1Ovx8ksvoqDwXWX6q36kHg3nzgWcYH5ZfQoPpHifEn3f+HE4VnWir3y3Fx0NpB4Gss3G195ARnoa9HrPFy3p9Xr09PTgiiTh9Jl6/GzkSL/KJCIiIiIKhkGbTN4qo5LuL3xxf5Mr0JdsGAxhHgmM+jeTz61ZpaxfkJml/P5yYnISAOCr/3saCzKzsCV/mzK1smRvKXLW/hb6kXrcHRuDxOQUZDz+hF9TQwVBQEZ6mhLDt11dfo+uydNco2LjYbN14pE5s3x+3n0K7sa8XI+E2GiMxppVyzFj9lyYLbXQ63R4+aUXkZu30a8XBPX29mJDbh4stXWIifH+8CEmxogTJz9HbGzMddVDf9uc+PwLxCUkKse7JX+bEnvWE5ma7aPX6zAxOQmJySkoK69QRk+JiIiIiAajW+JPg9zKbtSf/TBbavFl9SmXPy9idziwa/cePLMk2++X9/yYiWIzSj/6GM89u+oHrS/1n4EhIiIiIrpd/DTYAdzOJEnqS15Uo470wxPFZqx8di3C7roT+Vv+i4k3EREREdENwJFJIiIiIiIiCtig/c0kERERERERDV5MJomIiIiIiChgTCaJiIiIiIgoYEwmiYiIiIiIKGBMJomIiIiIiChgTCaJiIiIiIgoYEwmiYiIiIiIKGBMJomIiIiIiChgTCZvIkmS8PqbmyCKzcEOhYiIiIiI6IYatMnkd92X8MobbyNn/avIWf8qivd8HOyQfJIkCRty87AoeynsDgcAQBAEZD7+GLYWFCrLZAWFRYiKjVf+M1tqgxE2ERERERHRgAzaZNK0/zAmTUxE/hu/wxuv/Cek3l78o7U92GFp+vTQEQBARHi4y3KjMRozH5qOXbv3eGyzr7QELY1WHD18AMW7SjwSTiIiIiIiosFq0CaTPzfchYb/1wSptxe2zn/B4eiGbsTwYIfllSg247Njx7E4+9de10+b9iBstk6fyeLoUaMwVBAgis14/c1NkCQJAGAqr4SpvFL5nHpEU71cHhn1tk5rm4LCImVE1O5wYENuHuwOh0sMcrnqkVOt8nxRb6MevTVbar2O0PqqB6243etKnmZsbWjAhtw8FBQWKdssyl7ab+yi2IzUeRku8cnbyGX4O7Is1+OG3DxIkuQRg3v7qcvzti9vsam3U9erur7VdeQ+DVurLUzllS5lFBQWeRyHeht1n1G3Y0FhkUsbeotPqx787Q9mS60Sm/wZdYzyOiIiIiK6foM2mZwzcyqmPzgJ619+E6b9h/HsiqcxYviwYIflQZIkbN9ZjEULs6DX67x+ZqggAACamkSX5QsysxAVG4+Vz65F5uOPQbj2OS2m8kqMiYxES6MVDfV1qDFblJvo9z/cgYnJSWhptKKl0Yr0+fP63cYfnx46gpK9pX7F0J99pSWoM1e7jN4mJ01QYq4zV6PMVHHDR2iH/NsQ5G5YD6fzMkSxGVVVJ5ExP02pI1+mTpmMhvo6tDRakb/5LQB9bb5pcz5Wr1yuxF28q6Tf38aGhobiu+5udHRcRFOTiGHDhuFCayuAvvbLSE/zKM99Xy2NViQnTYDRGI2DlWVoqK/DsqWLcfTwAWWdKDajeFdfXbc0WrF65XJs2pzfbxKl1Rbp8+chY34aqqpOQhSb4XReRu6G9QDgtR46Oi7i+XU5KDNVoMtuBwDUmPv6iLrOvfUHrXrwh93hwLZ33vVYXlV1EkkTEtFQXwcAqD/7tV/lEREREZFvgzaZ/KreCtP+w3jlxecQ98sYvLn1j/iu+1Kww/Lw6aEjMBjCkJw0QfMzgiDAYAjzWC5Pc33n7S0uv6s88fkXiEtIRFRsPHLWvQCgL4GpMVuQs+4FRMXGIy4hZAixeAAAIABJREFUUUny7A4HbLZOTJv2oEv5vraRyQltYnIK2tpdpxHLI65ZT2T6XZ43kiTBZuv0uk49wuYeg7d66C9uObZF2Utht3+flMq/X1357FrUmC14ZM6sfuPWcuVaUhYTYwQA6HU63B0boyROWtv09PQg8f778Le/1+DIX49icsokAH3tZ6mtczmmxmsPHjo6LiI0NBQJ997jd3xddjvujo2BXqdziVOOW91+Jz7/QtnOV1s8MmcWaswWlwcfvupBr9MhIz0NCzKz8N4H2/Hhjp1Y+NSTALT7g696AHz3BwDYtXsP4saORWhoqLIsZ90LyFn3AsZERkIQBExMTvK7HomIiIjIt58GOwBvpN5eHD95CumPzsaI4cMwZ+ZUfGP7J07V1GHOzKnBDk8hJ1cle0uxJX+bsrxkbyn2lZYoCaYkSXA6L2OkXu+1nNGjR2H0qFGwd/UlI1OnTEbZR3shCILLVMzQ0FAcPXwARmO0y/a+RvK0tpHJcdodDmzanO+yrrzyL1i0MAtfVp/yuzxvrkgSui9d8jh+eVR32ZJspM+f5xGDVj34ijt/81tInz8PBYVFOF51wiOWqVMmIyTkDr9jv9HuGz8OuXkbMeH++xAREYF//utfAPp+a1tnrlYSQNnNeBOwXEeSJGHr24UA+m8LADAYwjB1ymS/99PW1o5lSxejp6cHAGDv6ksytfoD4LsefPWH8+cb4XRexvx5/4Hyyr+4HCsRERER3RyDcmRSGDIEuhHD8Y3tnwD6kkvHd934ueGuIEfmShAEvLYxz2VqYNYTmagzV7uMVMqjUvqR3pPJjo6L6Lh4UXO9vK/4uLHYf+Cgxzp5Gm1V1Um/t+nPic+/QEjIHS7HMdDymppE3B0bo5mARkT0TXOsqjrpMTp6o9gdDmwtKETm449hTGQk3v9wx4DLcp+2LIrNMFvqNB8WyAyGMCTcew9S58xCRnoawkePgtN5GUOvjVy7tx8A6Efq0XDuXEBTM0fq9Tjf2KQ8ZJDLHdrPNGpAuy3e/3AHxkRGuryd2Fc92B0O1JgtmPXwDISGhuKRObOxfWcxJEnS7A96nU6zHvrzPyV7NaeKR0SE40JrKyRJgrXhXL/tRERERET+GZTJJACkPzobp2rqkLP+Vax/+U3E/TIG9yXEBzusAamqOgmDIcxjtEX9m8nn1qzyWO/ukTmzYLN1ery4RBCEvt+olVd4vChGa5v+3HXnnXh0bqrfMWgxW2qxIDMLW/K3KVMXS/aWImftb3FFkpSpkFGx8fi2q8vjbbiBkqdw2mydeOSR2QCA3v/txabN+Zj50HQYjdHKMcgv5AmUIAhY/PQi5OZtRFRsPGbMnos1q5b7HK21d9nhdF4GAKxZtcJjWvTCp550aT/5RTF6nQ4vv/Sisi9/XvYjv0E4MTkFUbHxKCuvwPPrcnz+JlcQBM22MJVX9tXnnFlK2XL7eauH0aNHYdPmfGSkpymJ28TkCTAYwvDuex9q9ge7w6FZD/1JvRabNwn33gObrRNxCYkICbkjoFF1IiIiItL2k6tXr14NdhC3M1FsxtaCQryal9tvsng7Mltq8WX1KaxZtUJZZnc4sGv3HjyzJLvflw7R7YX9gYiIiOj2MWhHJm8HkiSh9KOP/Rp1JCIiIiIiupVwZJKIiIiIiIgCxpFJIiIiIiIiChiTSSIiIiIiIgoYk0kiIiIiIiIKGJNJIiIiIiIiChiTSSIiIiIiIgoYk0kiIiIiIiIKGJNJIiIiIiIiChiTSSIiIiIiIgoYk8mbSJIkvP7mJohic7BDoR8ZU3klTOWVkCQJBYVFsDscwQ6JiIiIiG4zgzaZlHp78fa7O5Gz/lXkrH8VX9Vbgx2SV5IkYUNuHqJi45X/zJZaAIAgCMh8/DFsLSj0uJkvKCzyug3RjTBt2oMoK69AXEIiAECv0wU5IiIiIiK63fw02AFoKf14P+J+GYNnlz+N77ov4b9L9iFqTARGDB8W7NA8hIaG4ujhAzAaoz3WGY3RmPnQdOzavQdrVq1wWbevtATJSRMgis3YWlCImBgjb/rphtDrdCje8UGwwyAiIiKi29igHJmUensh9fYi7pcxAIARw4dBN2I4Wi60BTmygZk27UHYbJ0+pxqOHjUKQwUBBYVFLqOUdocDG3LzYHc4YCqvdBnN3JCbB0mSAABmS62yfFH2Upd9qUdB3dd5I4rNSJ2XoWyTOi/Dr6m67qO0pvJKrzGol2/fWYy9f/qzxzpfMajryGypdakHXzH4oq5bdXn+Hqt6G1/1rd6P1jGpiWIzXn9zk1K2PH3VWwzy9uo+I5dtKq90WS7vz2ypRUFhkc96NZVXesTaXx3ZHQ4syl7q0l/l/bjXkT/9QY6pv/r+/9m79+goqnxf4N9Z666hMA12Ryd9SHc4SSdeEg0wIZ11jCAoDmAYCMmIK0sii8NLBnkYwXEcmYzRDIpzQWKIeBQCN2LgcMTJi8NzeKqEOelOX6Gxw6XTieTBdOZOugmJFOcf7h9hF1XdVdXV4dEBf5+1XEuqUtW/3nvXrtr121Ud+DkDOS6UthloOYjrQlzegW1cS1sN3CawTFn9BcaqdFwE9inibQLrUNxOAuuFlYO47MRtMvBzxGWrVA6BbT+w7Ng69t1s9kbJcla/Wvov8XHl8bRgRcFqoc6UykEpBjVqZcfWy7U9tT5FqfyU+ge1PkWtHMSfo+U8wuKW61MC24nW/Sm141B1Ide/B/Ybav0K+xwWt7hdK9WT1uOZxc3aWaj+QdynsO+q5Zwlrgu5fkmuDNTaw0D6FKX+Xe18qnTdo9a3hroOCLc9qJUDIWSQDiYBgOevwX+5BwDwfVsHXP/XHeGIlPX29mLy1OmKA5GhHAcAaG72SJbPzstHfFIKlr2yCnnPPwfuxt+pKdnwJ7S6XWhyOqDT6dDZeQkeTwsqdlTCYatHq9uFFcuWYv2GEkkce3b3rzebTJq+08QJ49HkdKDV7cKSRQtw5qwz5Dafbt2GDGs6Wt0utLpdyJk1E0B/xz0yLk6Iu8FmF05qfX19cJ77Dk1OBxy2ehw5dlw48YSKwef3Y9NHH2uKQY3N3ogGm134rLXFRZrqgmWkjx7aB51OJyxfufxl4fNXLFuKHZ/vFNZdbGvDnt2VaHI6MHHC+JCfoebTrduQm5ONVrcLDls9KnZUBl002+yN+KBkU1j7lSvXREsCzpx1wuf3w+vtQs+VK7ga4uLFbDIJbXLP7kph+UDag8fTgsN/OSrUUYY1HZ9u3Sbsc8/uSqEc2I2bgRwXobYZSDkosVgSsL+uSigHV9P5kIMe8TatbpdQnmKsPVd9sUuYLaF2XIj7FHGb9HX7kDxqFJqcDkn9zZieBVfTeaFMTtWfRm5ONjiOgzV9nPAZDls9qqpr4fP7kTNrJlrdLhw9tA9LFi9Ek9OBim1bYNDrB1QOYgcOHkblrt2SZR5PCy64m+Gw1WPJogXYu2+/pn3xPI/y7RXo6ekJWQ6hYpCjVnaMXF+t1qd0+3zImjYFrW4XSjb8SViupX/QWg4+vx/l2yuwc8d2xWNJTWCfIm4nrW4X0selBZ0f5Wjp3wPrQql/Z2W6Z3clVhWskKxT66Nm/DILp+pPg+d5uJrOY9iwYfB1+1S3CeUqz2P9hhKsWLZUmMGk5bhg5aH1nCUnVN8KyB8XA+lTlPp3juOwtrhI2FeGNR0HDh6W3R+77lEjji2wLgbSHtTKgRAySAeT3JAhyJkxFbv21KLgjXdQvfcQEv45LtJhyQrsBI3GmKCOmOM4GI0xQduyC+CPPvxA8lwlG2SuKSwCf1V6si5Y/Trik1KQnJqGlORRsFgS0O3z4ZGkRGGKbGKiBUD/CYrneXi9XWF/r5Nff4Pk1DTEJ6WgwWbHs9OmqP49u7ieNOlJyXKe59Fgs0viDrzoYhdTBr0ejyQlotvn0xTDjs93InnUKGEgpxRDKHIXdKFc5Xl0XpI/oYnves7Oy9e8T1bvgRkncTkUrH4dQP93tTc6hG3SrJlwB1yM+Xx+VOyoxJLFCzXHAASX68W2NozPfByupvM4cOAQLJYEDB82sOnmA20PZ8468cmW8qByYMTlkJuTDYNeP6DjQm2bgZZDe0cH0qyZQe1BnPFKTk3Dya+/0VR+4jvuH5RswsW2Nkk5VFXXonDNG0J7HuhxoSQ2dgQAoLPzktBnpT72KABpNiXNmon2jo6Q+xtIOTAeTwuOHDuO/BfyhGUnv/4G07N/heHDhmEox2HM6FRERUVp2h+7gNV6000pBiVqZafWV4fbp4TqH+T6FLHAcmhu9qBy127ZdqxFYJ8CSLN4I+PiYE0fF/I7hWrHcnURbv+u1ke1t3cg7edj4fV2Ce3UFBuLa/99LWS/puTk198I/Za4DNSOC9anjIyL03TDlBG3B3ZshupbgeD2cCt9itL5XtweAmOQu+4Rl4O4TfI8j76+HzBmdCqA/uuvDGs62tv7v+9AzvdK5UAI6TcoB5MA8M9xJqwr+i1K1v0BSxbMAQDoHxwe4ahCeyLz8aBlrHOLNhhkt4mNHYHYESPg6+7vVFnmCgDOnjsn+Vt2h67V7cLFtraQU2mu8jx6rlxR/Gwl4qxgbk42iteu03wXOhDL4InvRMtdOAReTKnFcOGCG319P2DWzF8OKKZbxerKEC0tV4+nBX+urhW+rziTEaodsJsLTU4H+vp+kM3QijMP4sxfq9uF/XVVkud2jx0/gWeefgopyaM0fy+lcjWbzejt7cVnlbswdsxozfuTM9D2IG77rW6X5BlkcdlVVdeGzAgM9LgYSDkoZWh3fL4T6ePSZO/gKwm8eRWYKfv038rQ3tEB57nvwvpecrp9PkRFPRB00cVxHKb8YjLOnHWiudmDJzIfB8dxwl37JYsWCNkwLRddAykHpqbuPzFvbr7kZt3ECeOxr/bPkoGLFv/o7kaDzY6FC/5VslypHNRiUKJUdoBym1TrU4D+Ac7IuOCbrWr9g1KfolYOLFvD/tOaDVPqU8TZVi3nMi3CqQs1an3UQ9HRMBpj8NKvl2PC+Cc0baNm4oTxeO+Pb6OqulZyjlU7LswmEz79tzJU1dSGNd1SPINDfGyq9a1K7eFWift3m70R9kaH0F4D26TSdY9S33on3KlyIOR+MGgHk2Invv4ruCFD8M9xg/tuEM/zqKquDTqxX+V59Pb2Bg08mM7OS+i8dElxfSjRBgMuuJuFk8qJE18B6J9e29zswSNJibIvB7qd2FRe9tkMx3FISR6laZpZZ+cl9Fy5ImSD1HxWuStoarBSDKGMjIsLOpGHcuasE888/ZTsC5MefHA4DNEGoT0wbGoOy07cCoNeD6MxRvG7tnd0wONpCZlRDiRXrlFRUTDFjkBuTjaypk1B6mOPQqfTCQPqcAy0PYwZnYojx46HdeE0kONCbZvbWQ4M6yuc574LKyMH3Jw6KO5vog0GvPX7N1Fa9rFwM2Kgx8Wp+tOyN8eA/oztxbY2fHvmbNDxajabhM/TkpkEBlYOJ7/+BlFRD8hesBsMBvT29uIqz+PMWSceio4Oub/itev6s9oG6TGtVg5qMShRKju1vlqpT2FTLVkWhgnVP6iRK4fERAsuuJsH9DNXcn2KHHGGXU6odqxUF+H276H6KLPZhBnTs7Bk8UJkWMchKuoB9PX9oLlfk5Obky07q0ntuMiwpiN3VnZY043lhOpb5drDQPsUscDzvdlkwlCOg8/vR1VNbYitlXEch6ioB4THYtj+WL80kPM9oNw/EEIG8WDyW6dL+FmQv3n/jnlznot0SLICp6JkWNODpp2cOPEVjMaYoIGH+JnJV1cuF9bPzstHcmoajMYYZFjTJduw6R7xSSnwervw7LQpwhtj2XSPqppavLa6AM5z32F2Xj4+KNkkTG2p3LUbBat+E/KiXDwNqrCoGAvnz1O9GOA4Dq+tLkBVTW3QQ+/PTpsCr7dL8WULSuWgFkPWje+tNQY1ObNmwmiMET4r1MsMqmvqULD6daEuJk+djk+2lKN47TrExo7AI0mJ/dOWnn9BmMJmszdi8tTpSEkepViOrBwCp/IomfviHMl3DYxbbioPmxb0QckmzM7LD5quFliuPM+jq+vvAPqfcwp8I/FADKQ9BLZx8UswxNuw48aaPm5Ax4Uh2iC7DYDbXg4zpmfhk63bEJ+UgsN/OaopIxc4jTR9XFpQf2OxJGDl8qWYPHU6bPbGsI+La/99DWsKi2BvdCje2GHHaF9fn/D/HMchNydbqIt/dHdrykyqlYO4D2B1xur9Zw8/jBnTs+TjM+iRYU1HmjUTVTW1mqbj5b+QJxyvAHDtWuhyUItBiVzZ2eyNqm1Srk/x+f1Y8vIK9Pb2yt6gCtU/aC0HFvO8ufnCuwG09q2AfF8d+AIee6MDc1+co7qfUO1YqS7C7d8B5T6KDXgtlgT87revSfrXUP1aKC8tWgCvt0uIT0v/wL7bkpdXDPiFMKH6Vrn2MNBzLSDfv7P9J6emoWDVbzDxyQmSbeSue9SI236aNRO5s25OIR5Ie1AqB0JIv59cv379eqSDuJ+xn/14p6jwrv/sh83eiFP1pyUXvj6/Hzs+34mXFi0Y8AP7t1Np2WY8kfl4WHf2I42dNMUX8R5PC46dOImF8+dFKqz7wt1oD/fCcTHY8TyPjR+WIe/55+74rAexe7G/CCRXdtQmyY/B/XD8EkKCDdrM5P2A53ns/uJLSbaNEELuVewFQMmpaZjyi8l3dSB5r6OyI4QQcj+izCQhhBBCCCGEkLBRZpIQQgghhBBCSNhoMEkIIYQQQgghJGw0mCSEEEIIIYQQEjYaTBJCCCGEEEIICRsNJgkhhBBCCCGEhI0Gk4QQQgghhBBCwkaDSUIIIYQQQgghYaPBJCGEEEIIIYSQsNFgkhBCCCGEEEJI2P5HpAP4vq0DH5d/jqEch4KXF+DB4cOEdRU7v4TjzDkAwPwXn8fY1JRIhUkIIYQQQgghRCSig8lvnS4c/+o05uc/j+q9hyTrDh45CQAoWfcHXO65gn8rr4T+weH45zhTJEIlhBBCCCGEECIS0cHk2NQUjE1NwfdtHZLl/LVraL3Yjmd/MQkA4L/cA9/ly2j6v800mCSEEEIIIYSQQSDi01zlXLv23+D5a9A/OBzfOl2o3nsIaWMei3RYhBBCCCGEEEJuGNQv4Pk/Z7/D8a9O47ev/hr6B4dHOhxCCCGEEEIIITcMysHkkCE/BQD8nzPfYcmCOeCGDMHfvH+PcFSEEEIIIYQQQphBOc2VGzIEyf8zUfj/79s60PJ9G5568vEIR0YIIYQQQgghBAB+cv369euR+nD2syA8f01YljbmMcyb8xz4a9fwybadaPm+DQD9NAghhBBCCCGEDCYRHUwSQgghhBBCCLk3DcpnJgkhhBBCCCGEDG40mCSEEEIIIYQQEjYaTBJCCCGEEEIICRsNJgkhhBBCCCGEhI0Gk4QQQgghhBBCwkaDSUIIIYQQQgghYaPBJCGEEEIIIYSQsNFgkhBCCCGEEEJI2GgwSQghhBBCCCEkbDSYJIQQQgghhBASNhpMEkIIueOqa+pQXVMHnudRWrYZPr8/0iGRH7nSss2w2Rvh8/tRWrYZPM9HOiRCCLnnRHww+X1bB94oeh9vr/sQl3uuSNYdPHISBW+8g4qdX0YoOm1s9kbEJ6UgPikF8xYsllwkeTwtyJqZK7uOkFtRXVMntLusmbnweFoiHRIhiiZNehJVNbVITk0DABj0ek3blZZtFtp5dU3dnQyRqOB5HmsKi4S6WFNYdM8PvmZMz0JhUTHSrJkYGRcHjuM0bUdt8vYLbF82e2OkQ7pvsJsmhNwp/yOSH/6t04XjX53G/PznUb33kGRdxc4v8U/GnyFrylP4m/fvEYowNI+nBaVlH+PooX2wWBJQXVOH9RtKULjmDXR2XsLG0jLs3LFd84UTIVrlzJqJnFkzAfTf0CjfXoHCNW9oviAi5G4y6PWo2LYlrG1KyzZjZFwcWt2uOxQV0YLneRSvXQejMea+qguLJQH766rC2oba5O3H2lduTjbWFhdFOhxCSJgimpkcm5qCV5bOB8cNCVo3b85zmPbMxAhEFZ4zZ534VU42LJYEAMCz06ZAp9Ohs/MSzpx14onH/wVz5s5HfFIKSss2C9v5/H7MW7A46C5c/+B0s3CHjmUzfX4/VhSslmSfSss2C3dFxRlQ8d3SwLt94ruo4rur4vjU7kCzqWrs7957fz08nhb4/H6sKSwSMq/i2AI/S+udXLky8nhasKJgtfA5LFabvRHVNXWw2RthszcK0+gCY1KKQZzlY983sHzU1rGyq66pk9RzYLxyMQTW3UDuzLa3d8BojAk5kBR/z8C6Fd+9tNkbJevE2XdxbErtOHB54Pdh67W2heqaOkn2lR0jPM+rxiCuf9Yu2P7E5c/qKLB8AmcUyLUTACjfXoFd//4fty1boXTcejwteO/99eB5XtL2xeUUGF+o7yTXJll9s31X19QJ24hjEJdl4HLxulD9gxz2t66m87LZd6U+T61vZfGxvxEfq+GSO25ZDErtQa3+lPrWUPUnPjbvVJvs7LyEnitXMPfFObLlEG6bVOtbgbvTJkPFLSdUm1SaLXI726TSscS+Q2C/qHQtIP6ucm1Irg/X2o6UZmsplUNn5yUYjTGoqq6VncUltz+140LtPKdUDkptKPD/A49NufN9a+v3Qh2JYwnVvtTaw0DOc6yP+qBkE2bn5Qf1+0rn+8Djkx0vStdebJr4e++vD2r7atemrBwDv4fSsSlezmKkWVmDQ8Snud7rLra1wWw2Cf/mOA5RUQ+g2+fDxbY2HDh0GDt3bEeT0wGvtws2eyN4nsf6DSVYsWwpWt0uOGz1qNhRKRwQ+w8eRm5ONlrdLuTOysaOz3fCoNfjmaefwpmzTgD9B57X24VJk54UPnvihPFocjpQsuFPwrJPt25DhjUdrW4XmpwONNjskg5tz+5KIQavtws+vx8cx2FtcRFa3S60ul3IsKbjwMHDmsvEZm/EByWbhH9X19QJd3LlYpATWEatbhes6eNgsSTgkaRENDd7APSfhHQ6HVIfe1R1f2ox2OyNaLDZ0eR0oNXtwtriInAch5XLX0ar24U9uyuxqmCFZJ1S2U2a9KTw/0D/zYZnnn4KBr1eMQZ2d7zJ6cCSxQtx9NA+4fuGwjrUqppa2Qs9OSUb/iTEwG58iPn8fmz66OOg7VgZrCpYASC4jgLbsdlkgsNWL5ThqfrTmuJTkmhJwJmzTqHt91y5Av/ly6oxhMLzPMq3V6CnpwdAf7a31e3C0UP7sGTxQjQ5HajYtgUGvT6onWRY0/Hp1m0AgL6+PjjPfYcmpwMOWz2OHDt+Syc48XHb6nYJGWixAwcPo3LXbuHfSu1Y7TupHRczfpmFU/WnwfM8XE3nMWzYMPi6fQP+TuI4xf2DEl+3D/sPHkZK8ii0ul0oLipE+fYK4YKn2+dD1rQpaHW7hD4vVJsEgKuiv1m5/OVb+i6szxXHAGhrD4H1p0St/jyeFhz+y9E73ia7fT48kpQYcoaN1jap1rdGok1qrYtQbfJiWxv27K5Ek9OBiRPGA7izbTLwWNLpdLjc04POzktobvZg2LBhuNjWBqC/T2HXFeIYlNoQm0nA+nx2vpPri8Q8nhZU7KgU+n7WVtXKodvnwwclm4Kue9T2p3ZcAMrnOaVyGAil8/2D+gcBAD6fH0eOHcfRQ/uwZ3clqqprNU0ND2wPWtpQIJ/fj42lZfjoww+E+ksflyaUq/jv5M73rL5ZnYe69rI3OmSPC3Z9w+rC1XQ+rPKWOzY9nhZccDfDYavHkkULsHfffs37I3cGDSbvsBXLlsKg14PjOGRY09He3oGrNzqTxEQLgP7pX48kJaLb139SnDhhvHCAjhmdir6+H8DzPMaMToWr6Tx4nkdzswcZ1nSh4+z2+dDb2yv5bJ7n0df3A8aMTgUASQzM7Lx8xCelIM2aidycbGF/4jtTBatfl+y3YPXriE9KQXJqGk5+/Y1knc/nR8WOSixZvFCIocFml2yj5aStNkh8IvNxYWBy5qwTU34xWTUjd+3aNdUYTtWfRm5OdtjTQ+XKzqDXw2iMQXOzBzzP42JbGyZNenLA5RAKuyhbsWwpClb9RtMzueIYUpJHCVl1ZsfnO5E8ahR0Op2wTNxmmFDtuL2jA2nWTMQnpWDTRx9LBrvsQiXUhQlzsa0N4zMfh6vpPA4cOASLJQHDhw0Df1V7DLPz8oP2y26SmE2moHWB2ts7kGFNF9qJ+NgEILShwBjCJXejKJDH04Ijx44j/4U8YVm47VitTba3dyDt52Ph9XYJx7gpNlbY9uTX3yA5NS2ofxAvl7thFNg/hDJxwng8O20KgJt1fFXlYixUmzz59TfC8arlZs2tUGsPcvUHqPetcs6cdeKTLeWydREqhnDIHf+B7tU2qVQXSgZLmww8lq7yPHp7e5H287H463814PBfjmJ85uP9f+v3w97okJyz3DcGBaHaULjEN1DDKYdVBSuE7y/uW5X2F4rceU6tHADlNhS4P9b+lM73QP+5Z/KULPT09MAQbUBiogVGY0zIuOXaQzjnWnae83X7EDtiBGJjRwj7njE9S3LOAuTP90rUrr3MJpPw3cXHhTijqrVfY+SOzZNff4Pp2b/C8GHDMJTjMGZ0KqKiojTvk9wZNJi8RSPj4iQnWjaAizYYbsv+xYNEiyUBMTE/Q2fnJbjdzZKLTa3THAOxu09NTgeqqmuFaaL2RodwJ1B8xx2Q3vFjd1+ZY8dP4Jmnn0JK8ihhmU6nE7Jt4izjQLEB5qVLf8PVq1dDZiXvRAyAfNkB/R32t2fOorPzEpKTRwknwTsRA5OYaMHw4cM13aVn9dfqduFiW5tk2tKFC2709f2AWTN/KdnmYlsbRsbFhRWTODP51u/fxB+Kim/pBVRmsxm9vb1uSzD/AAAgAElEQVT4rHIXxo4ZHXYMe3ZXStb9o7sbDTY7Fi741wHHJIfneXi9Xbd1n4Fq6v4T8+bma7o4UaPWJh+KjobRGIOXfr0cE8Y/IdlOKSPHlrO78FevXpVsJ9c/DFR7e0fYbXLihPF4749va84Q3A5y7UGp/tT6ViXi47nV7ZLNbN1qmzSbTfB6u1TL7F5tk7cr7oGe+wfaJpWOpbFjRuOzyl3o7e2F2WwWlov7wla3C/vrqoQbiVra0L1G6TynVg5KbUi8v8BjU+l8bzaZcPTwfk03KsUG0h7UznNqlM73SrRee/m6fei50v9CzR2f70T6uLSw+zVA/ticOGE89tX+WdPgl9w9NJi8RWNGp+LIsePCRfKBg4fR29uL2NgRGBkXJ3QIPn//dIcxo1Mx9MaAj00X8HhaYLM7ZE9Cp+pPS7IhY8eMxrETJwHcfBsim/IzY3qWZFs25VY8NbaqplYyLVeJ2WTCUI4TttGivaMDHk+LcNeWxZCSPCrsaQiGaAOazp+H89x3Qes4jsPIuDgcP3ESDz38UMgB9JAhQ1RjENfT7RAbOwJ9fX346381IMliEWIeSDlo1dzswfBhwyR3IQfis8pdyHv+OUmZKmXKwmnHgcJ9ZjIqKgqm2BHIzclG1rQpSH3sUeh0Olzlrw44BvbCB4NB2x1vs9mEBptdaCd79+1HVNQDQe2PPV/G7s4Cwc98qmHleuLEV7LrT379DaKiHgi6ERFuOw7VJs1mE2ZMz8KSxQuRYR0nTN8fKLn+QU1gH3DixFcwGmOEKXOupvPCrAtGS5vMzcmG0RgjTAdlbsdzlHIC24NS/Q1E4PlHawxA/+wTrW8YT0y0oL2jQ/Fxh3u1TYZbF2ptkk2jDOyDb6VNKlE6lozGGKQ+9iiypk1Bbk42TLEj0Nf3A4ZyHIzGGNk+RWsb0spsNqGqpjZof2rlEG0wwGZ3CP3j3n37kZI8ChzHKe5vIFgmUalvHQi58z0zlOOg0+ng6/YJ31vLDf/A9jCQc60h2oDOS5ckj7GIyxWQP9+r0XrtdeasUzItnt30c577TnNmUu3YNBgM6O3txdUbmeuHoqM17ZPcOREdTLKfBdn4UTkuebvw1rsbhZ8BYT8Lsv/wcTjOnEPBG+/gW+fge3uaxZKAZ55+Sphi0GCzC2/UZB19cmoa0qyZmDc3HxZLAjiOw8L581BYVIz4pBRMnjodK5cvFe6OiadaAJBMBUxMtODkV18jKSkRwM23oH2ypRyTp04XpmcUrH4d1TV1mPviHFTV1N6cjjlLOpWGTfdITk2D0RgDa/o44W5TcmoaClb9BhOfnKC5POSmND07bQq83i7ZB/KVGPR6vPX7N4UyCpyiNGZ0KvYfPBzUec/Oy8fsvHx8ULIJadZMVO7ajRMnvlKNIWfWTBiNMUKZa33lvVzZATc7XOe57yQXFgMpBzXiqchV1bWa3+TKpuvEJ6XA6+2SXJBkTZsimfbq919GwarfoHLXbqGNs4f5nee+U23H4qk3k6dOx7y5+QN6qzHP8+jq6n+jszV9nOSu+ZCfDlGNQU3+C3mastqMNX2cpJ14vV14adECYT1rD8teWYVXVy6XfFez2QSXq0nThS/HcXhtdYFw3Aa+9OJnDz8cdOMIGFg7VmqT7DkriyUBv/vta5ovNljfVVhUjIXz52Ho0KGS9eFMeTTo9VixbKlQrg02O15atAA+vx9LXl4h3LQTC9W3Mi8tWgCvt0tSRkM5DmZT6AycVkrtQan+BiLw/BPYT6q1yXAY9HqUfPC/JG1SXHb3apsMty6U2qTN3ojJU6dLLtSZW2mTagKPJV+3D319PwDof/wh8CJcfC0grotQbShc1vRxyJ2VLeyP1Z9aOVgsCfhVTrZwDQPcvO5R2l8oSuc5pXIYKKXzPQBwQzlM+cVkTJ46HYVFxWG1NXF7ABD2ec6g12Pe3HxMnjpdOGcD0uvJwPO9FkrXXuLzPTsugP7M7SdbtyE+KQWH/3JUkpns7e0V6pxdr7FnOtWOTYNBjwxrOtKsmaiqqVV9JITcHT+5fv369UgHQW7yeFqw+4sv8eory2VPloHreZ7Hxg/LkPf8c5JOobqmDmaz6Y4/FxQpNnsjTtWfDjkdh12Ea30273YpLduMJzIfv+fL3+f3Y/2GEry2ukByIVq+vQJPT5oY9onofhWqvj2eFhQVv4uiwjepzAYxlpW81Wl+g+H4HwwxEPJjMNiPtdsZn9y1l9J1wu3YN7k30DTXewR7vfLbf3wXv16y6Ef7W4LsFeFV1bWSrNBgwbKFI+PiBu2JhdxdpWWbseyVVTSQHMRY/wrc+kCSEPLj8GM63w/2ay8SWZSZJIQQQgghhBASNspMEkIIIYQQQggJGw0mCSGEEEIIIYSEjQaThBBCCCGEEELCRoNJQgghhBBCCCFho8EkIYQQQgghhJCw0WCSEEIIIYQQQkjYaDBJCCGEEEIIISRsNJgkhBBCCCGEEBI2GkwSQgghhBBCCAlbxAeT37d14I2i9/H2ug9xueeKsJy/dg0ffrwdBW+8g4I33sG3TlcEoyT3ktKyzYhPSkF8Ugqqa+oiEoPH04L33l8Pnucj8vmEEEIIIYTcaf8jkh/+rdOF41+dxvz851G995Bk3fkLHiT/z0S8snQ+vnW6UL33EOJHmvHg8GERipbcC0rLNmNkXBxa3XTzgRBCCCGEkDspopnJsakpeGXpfHDcENl1056ZCACIH2mG/sHhdzs8TXx+P9YUFsHn9wPoH8xozYZV19QJGbQ1hUVCFktpOds/WzdvwWLhcz2eFmTNzA1aXl1Th13//h/CutKyzcLy0rLN4Hke772/Hh5PC2z2RqwpLIKr6byQVeN5HmsKi2CzN8Ln92PegsXC52vN/om/j9x3Uitb8efZ7I0AIMQUuJx9Z1fTecQnpSBrZi48nhbZstNSR+Lsorgc2L7EnxvYBiZPnY5PtpQjOTVN+KzAuMUxlG+vwK5//4+gddU1dZLvUVq2WSg/m71RUq4snsCsqM3eKKl3tm+PpwUrClbD5/dLtmHlFFh+4dQRU11TJ2mPhBBCCCHk/hHxaa5atF5sBwAMGfLTCEeizmZvxAclmzT/bYPNjianA61uF9YWF4HjuKDlGdZ0fLp1m2TbPbsr4bDVw2wyAei/oC/fXoGdO7aj1e3CimVLsX5DiTCYOHDoMHbu2I4mpwNebxds9kbkzJoJAGiw9V/8d/t8qKquxWurCzDkpzfL+cDBw6jctRsAYNDrUbFtC1rdLqwqWIE9uyvR6nYJ+1JTsuFPaHW70OR0QKfTobPzkurf8zyP9RtKsGLZUrS6XWh1u2BNHwcA+HTrNuTmZKPV7YLDVo+KHZXweFrg6/Zh/8HDSEkehVa3C8VFhSjfXgGe51FdUydkLJucDjTY7EEDHzXiclDDBmpHD+3DksULsa/2z/hzdS08nhZ8unUbMqzpsjH09fXBee47NDkdcNjqceTYcWEgl2hJwJmzTvj8fni9Xei5cgVXeR7W9HFC2Ths9aiqrtU8aON5HuXbK9DT0yNZ7vG04IK7GQ5bPZYsWoC9+/ar7kNcR+K6IIQQQggh979BP5j8vq0DVXUHkTNjKrghwRnMwcLn86NiRyWWLF6o6e9P1Z9Gbk42OI6TLG9v70CGNV1YPmZ0Kvr6fhCyY15vV9C+mps9qNy1G2nWTMQnpWB2Xr5kfe6sbBj0enAchwxrOtrbOwAAc1+cg63btuOTLeWYnZeP3Jz+v2M8nhYcOXYc+S/khVUWcgpWv474pBQkp6YhJXkULJYE1b/v7LwEnU6H1McelSz3+f2wNzowOy8f8UkpSLNmwt3sEdZPnDAez06bAgBITLQAAPyXL6PBZpfEoGVgyCiVgziG9o7+Mr3Y1oYnMh8X/sZiSYA1PQ1/83rR1/cDxoxOBYCgugAgtAeDXo9HkhLR7fPhYlsbxmc+DlfTeRw4cAgWSwKGDxsmxMUyzuIYtDhw8DAACDckAODk199gevavMHzYMAzlOIwZnYqoqCjFfVy9cbOClbM4biZn1kxUbNsiaVeEEEIIIeT+MKgHk9+3deDj8s+RO3Ma/jnOFHqDCDp2/ASeefoppCSPumOfcZXn0XPlCqINhqB1qwpWCFkqcaYz0MW2NuH/fd0+mE0m5L+QhyWLF0oGNgBQU/efmDc3H0ZjzC3HzjKTrW4XLra13dKLccwmExy2emF/++uqQg5OdTodjh7aJykjlukMRakcWGZWnCW+HQJvGpjNZvT29uKzyl0YO2Y0AODatWso316BJYsWhB3DP7q70WCzY+GCf5UsnzhhPPbV/hk6ne62fRdCCCGEEHL/GrSDycs9V/C/K/fghdnZGJuaEulwVLV3dMDjaREyYlqMjItDVXVt0LODZrMJDTa7sHzvvv2IinoAHMehudmDR5ISgwZOiYkWXHA3a3q+7YK7WciO7d23H89OmwqdTocpv5gsmVp58utvEBX1gOYB1+1miDag6fx5OM99J12u18NojMGJE1+F3ObEia9gNMbgn4xGpCSPUp2yqSTcchgZF4dT9aeFf7NpoykpyYiKegBnzjoB9NdFVU0tzObgAWBn5yX0XLmCxEQLoqKiYIodgdycbGRNm4LUxx6FTqeD70b2j21/4sRXmjOTxWvX9WehDcHZQoPBgN7eXlzleZw568RD0dGK+xl642ZF843McP9ztw7JzQ56ZpIQQggh5P4V0cEk+1mQjR+V45K3C2+9uxEVO78EAFTvPQSf/zK2f/6F8PMgB4+cjGS4quSmrKrJmTUTRmMMklPTJC+lsaaPkyz3ervw0qIFsNkbMTsvHx+UbBKmNVbu2o2CVb8BAMybm4/JU6fLvtyFTe9Ms2Zi3tx8WCwJwvoMa/8gKdpgwLy5+SjfXoFr//3f+NnDD2PG9KzbVj4sBvadQg28DXo93vr9mygsKg56ucvcF+egqqY26IU+Br0eK5YtFaafNtjseGnRAgDAs9OmwOvtkn15kZpwy4F9DnsBz+rfvolXVy6HQa+XxJ1mzUTurGzJIJXFveyVVXh15XIM5Th0df0dAGBNH4eVy18W/nbIT4cgNydb2OYf3d1BU1ZZG2LthpVf/gt5QdOHhXI36JFhTUeaNRNVNbWYNOlJxe/KcRwWzp8n1NHkqdOxcvnSkFliQgghhBByf/jJ9evXr0c6CBKazd6IU/WnJQMKn9+PHZ/vxEuLFigOZNmgUctLcsjt4/G0YPcXX+LVV5ZruslQWrYZT2Q+fscywXd6/4QQQggh5Mdn0E5zJYQQQgghhBAyeFFmkhBCCCGEEEJI2CgzSQghhBBCCCEkbDSYJIQQQgghhBASNhpMEkIIIYQQQggJGw0mCSGEEEIIIYSEjQaThBBCCCGEEELCRoNJQgghhBBCCCFho8EkIYQQQgghhJCw0WCSEEIIIYQQQkjYaDB5B/E8j/feXw+PpyXSodwTSss2w2ZvjHQYZJCqrqlDdU1dpMMghBBCCCE3RHww+X1bB94oeh9vr/sQl3uuCMu/dbpQ8MY7wn/fOl0RjFKdz+/HvAWLkTUzVzJw5DgOec8/h42lZfD5/RGMcPBjgwRr+rgIR0IGq2enTUGDzU43HAghhBBCBomIDia/dbpQvfcQ5uc/D27IEMm6sakpKFn3B5Ss+wNeXbYQBw6fkAw2BwuPpwV/KCrGW4VrkJRoCVpvsSTgmaefwo7Pd0YgunuDx9OCI8eOY+6LcyIdChnEOI7DwvnzULGjkm7OEEIIIYQMAhEdTI5NTcErS+eD44ao/p3/cg84bgiGDPnpXYpMO4slAZtKNsBg0Cv+zaRJT8Lr7ZJcAJeWbUZ8Uorw37wFi+Hz++HxtKC0bDPWFBZJlgP902bZ8vikFCGb5/G04L3314PneQCAzd6I0rLNsp8VOE2wuqZOWLemsEjYB8u2snUsG6QUg8/vR2nZZrz3/nrEJ6UEZWnVYjhz1olnnn4KBv3NMqyuqZPsg5UJz/Ow2RslZcdiU4tBPEWSbc+2U9qfElY2rIw9nhZkzcyV3Z+4/gLLQa1uxTGw/QeW30CmBYu3CZyGrVYOcu0hMK7A7eTKIXA/gd8pVF1YLAl4JCkRzc2esL43IYQQQgi5/SI+zVXNwSMnUfDGO9i1pxY5M6YGZS/vFUM5DgCCLoD37K5Eq9sFh60eZpNJWL7/4GHk5mSj1e1C7qxsIav56dZtyLCmo9XtQpPToWnKX3VNHUbGxcluY7M3osFmR5PTgVa3C2uLi8BxHHiex/oNJVixbCla3S60ul3C9FO1GOyNDqQkj0Kr24XiokKUb68Az/OqMfA8D1fTeYwZnRoUe6IlAWfOOuHz++H1dqHnyhVc5XlY08cJcTls9aiqrhUGZUoxMB5PCyp2VMJhqxe+k9r+lJhNJlxwN8Pn9+PMWScSLQlob++Q7L/V7cKKZUuxfkOJJIY9uyuD6vzTrduEOnfY6lGxo1IY5HX7fMiaNgWtbhdKNvxJNa5boVQOSu3BYknA/roqNDkdWLJ4IY4e2iesUyqHoRyHim1b0Op2YVXBCuEYyJk1UzUGsZFxcThVf/qOlQMhhBBCCNFmUA8mpz0zESXr/oClC1/E9s+/wPdtHZEOaUA4joPRGKP57ydOGI/Uxx4FAIwZnYq+vh/g9/vR1/eDMOjiOA4Z1nS0tyuXCc/zaLDZUbD6dcQnpSA5NQ2Vu3YL60/Vn0ZuTja4G4NdprPzEnQ6nRCDeH9qMZhNJkya9CQAIPHGlF//5cuqMSi52NaG8ZmPw9V0HgcOHILFkoDhw4YBkGbq0qyZaO+4WQZyMVy9MZArWP063v7ju3inqFCSBVXbnxxftw86nQ6xI0agwWZHg82OtJ+PBdA/8HskKVHYvzgGnufh9XYF78/vh73Rgdl5+UIMbo2ZN7ZNfFKKJButRqnNKJWDUntQo1YOarTUhdlsktmSEEIIIYTcbYN6MMkYYx6GQf8g/Jd7Ih3KgLBBWLTBEPa23T4fent7B/zZOp1OyBgFZhnvJF+3Dz1XrtxSDGazGb29vfischfGjhkNALh27RrKt1dgyaIFslldpRgA4L0/vg2zyYQTJ74SlvE8r3l/gSaMfwIv/Xo5jMYYPBQdHfLvr/I8eq5ckW0HZpNJyOK1ul3YX1cFiyUBQP/gb2RcnOw+WWavyelAX98PId8cPPfFOaiqqRUG9ie//gbArZXD7aI1BrXyIIQQQgghd889MZj0dv0/8Pw1xI80RzqUAbnK8+jt7YUhOvzB5Kn608iwpkOv1yMq6gGcOesE0J/NqqqpVc3ScByHlORR2Ltvv+z6kXFxqKqulUzBBABDtAFN58/Dee67oP1pjeHMWSceSUrEPxmNqjGwGNk+maioKJhiRyA3JxtZ06Yg9bFHodPp4PP5ANzMTp048ZViJpHFwLJjQ4cOxWurC1BVUxs0PVhtf6Vlm4OefYyJ+RkyrOOwZPFCzJieBbPZhIttbYg2GITpr2x/QP9U5+ZmDx5JShQGiYxBr4fRGCMZ5DJq04BDCXzulH0Wm2ba5HRg4oTxIctBqT2oUSuHUELV7cW2NspOEkIIIYQMAhEdTLKfBdn4UTkuebvw1rsbUbHzSwA3n5cseOMd/O/KPfj1wnw8OHxYJMOVxV4okmbNRN3efZg8dbrkRTZA/0Wx0RgjmVqp5uTX3yA5NQ3xSSkAIDxPJs4qpVkzkTsrW8jwibeZnZePD0o2wWZvxLPTpsDr7ZJ96UvOrJkwGmOE7VjcBr0eb/3+TRQWFQe9CEUthvaODqRZMxGflIIGmx0vLVoAAKoxAP1TeY8cOy55GU1X198B9D9Dt3L5y8LfDvnpEOTmZAvTO//R3S3JXinFwIi/W3VNHTiOU90f0D/o7vr7/4Ovu38g2+3zoa+vDxzH4Xe/fU0yOGRv72UxVNXU4rXVBXCe+06oF1Z2lbt2o2DVb+Dz+yXlyurib3/zYsnLK9Db24vY2BGybYXFnZyahpTkUZJYzGYTXK4mdN8YgKtRKwe19qBEqRwCp1RrjYHxeFpwwd0sTJslhBBCCCGR85Pr169fj3QQ9zOPpwUbS8uCntNT+/vdX3yJV19ZrnrhHUpp2WY8kfn4XfvdRp/fj/UbSvDa6gLNg2ax6po6XGxrkwwc73YMSmz2Rmz66GOUfPC/Brxfm70Rp+pPS76fz+/Hjs934qVFC26prpV4PC0oKn4XRYVvBmVD70U8z6N47Trk5mTT75ESQgghhAwC98Q013sVz/P9A8OVy2/r4OZ+xLKvg+kH6dnPddzqQDISSss2Y9krq+6bgSQAHDh4GBnWdBpIEkIIIYQMEpSZJIQQQgghhBASNspMEkIIIYQQQggJGw0mCSGEEEIIIYSEjQaThBBCCCGEEELCRoNJQgghhBBCCCFho8EkIYQQQgghhJCw0WCSEEIIIYQQQkjYaDBJCCGEEEIIISRsNJgkhBBCCCGEEBI2GkzeQTzP473318PjaYl0KD86Pr8fawqL4PP7Ix0KIeQuomOfEEIIuXsiPpj8vq0DbxS9j7fXfYjLPVeC1n/rdKHgjXdw8MjJCESnjc3eiPikFMQnpWBNYRF4ngcAcByHvOefw8bSMrqwuYt4nsf6DSXIzcmGQa+PdDhEhsfTgqyZuYhPSsG8BYvp+CC3jUGvR25ONtZvKBH6YkIIIYTcGREdTH7rdKF67yHMz38e3JAhQesv91zBgcMnkDIqKQLRacPzPE7Vn4bDVo8mpwMAcODgYWG9xZKAZ55+Cjs+3xmpEH90Dhw8DKMxBtb0cZEOhcjweFqwsbQMO3dsR6vbhYptW2jQT24ra/o4GI0xkr6YEEIIIbdfRAeTY1NT8MrS+eC44IEkAFTvPYSfj3kU8SPNdzky7TiOw8rlL8Og14PjOGRY04P+ZtKkJ+H1dgnZl+qaOpSWbZZMg7XZG4WsplKmE5BmQVlGp7qmTlgmt666pk6yrc3eCKB/Oti8BYuFbdjy6po6ZM3MFabnlpZtDopDjjjbFJ+UInyuOAaPpwUrClZLMlHi+NnneDwteO/99eB5XoiztGwzgP4B/JrCoqC42TpX03nMmJ4lWbamsEjYN9tfYLkE7s/jaRG+e2AGrbRss2p5BdbDQKnVhVL9qdVFYHzi5Uqxi+siHHJtFQDOnHXiicf/BXPmzkd8UopQr6wdsH+r7S+wDNg27HuLyyJQYLmJyyJwimRp2WZJ2xWXqVz5ibF2Z7M3SspQvE+lughs43J/H1gWam1SqS4Cy0LLNmoC4xbXk1K5Kn2WeJvAY1jpc8RmTM+Cq+k8ZScJIYSQOyji01yVfOt0wX+5B5Mm/EukQ9GM53k02Owwm02S5UM5DgDQ3OwBAOTMmgkAaLD1X/h1+3yoqq7Fa6sL0Nl5CYf/chRNTgda3S5kWNPx6dZtAPovZit2VMJhq5dkdHJmzUSr24Wjh/ZhyeKFaHI6grI94m2t6eOEqaArli1Fq9sFh60eFTsqhQvJREsCzpx1wuf3w+vtQs+VK7iq4aJs4oTxaHI6ULLhT7LlU769Aj09PcIym70RDTa78H3XFheBu1FeAHBVFOfK5S8DAD7dug25OdmycXd2XgIAxMaOkHy2TqfD5Z4edHZeQnOzB8OGDcPFtjYA/VmMVrdL2F9Vda1w0bv/4GHhs3JnZQdlmFn8VV/sgsWSAABYufxlYX8rli295ay0XF34L19WrT9Avi6qa+owMi4OrW4XmpwONNjswgCE53n09f2Ao4f2wWGrh9lkCopFq8C2umLZUmHa4cW2Nhw4dBg7d2xHk9MBr7cLNnsjcmbNxJ7dlYr7UzouzCYTLrib4fP7ceasE4mWBLS3dyjGZtDrUbFtC1rdLqwqWIE9uyvR6nYJxyVjszfig5JNkmWsTFvdLtk2LsZxHF5bXYCq6lp0+3wAbh7zObNmqtbFp1u3IcOaLrQjFhtrW3t2V2JVwQrZYyawTarVBSs/tm5/XZWmbdTodDocPbQPRw/tg06nC1ofWK5K/ZoYKw/2XTmOw9riIqF8MqzpQVlIQ7QBnZcuCX0CIYQQQm6/QTmYZNNbc2ZMlZ3+Olh9unWb7PRKjuNgNMZIls19cQ62btuOT7aUY3ZevvB835mzTnyypRzJqWmIT0pBwerXhW3OnHXimaefCntKYMHq1/H2H9/FO0WFwrZsYJiYaAHQf4H9SFIiun0+XGxrw/jMx+FqOo8DBw7BYknA8GHDQn5Ot8+H3t5exfXsYk88SDlVfxq5OdmSi2Hm5NffIM2aidycbKFMfX4/7I0OzM7LR3xSCtKsmXDfGKQrucrz6O3tRdrPx+Kv/9WAw385ivGZjwvrxRmnNGsm2jtuDkQmThiP1MceBQCMGZ2Kvr4fhAvq2Xn5qKquReGaNyTxizOts/PyVWMLRaku+KvK9QfI1wW72VGw+nXEJ6UgOTUNlbt2a4rj5NffCG1SnL1S0u3z4ZGkRKG9sThZu1uxbKkkmy8e/H1QskkoP5ZxVDoufN0+6HQ6xI4YgQabHQ02O9J+PlbTd1Lj8/lRsaMSSxYvvKX9sOf3Zufl45Mt5di6bTvmvjhHtS7YTYNJk54M+/Pk2mSoupAzkG3Y+s5LyoM3uXJV69faOzqQZs3EyLi4oMG+OEsr7ieZoRyH2BEjgpYTQggh5PYZlIPJ1ovtuOTtwsaPylHwxjvYf/g49h8+jg8/3g7+2rVIhyertGwzvN4uvLRoQdA6lvGJNhiEZb5uH8wmE/JfyMOSxQslF9MlG/4k3HFvdbuEjNxAvffHt2E2mXDixFeatzGbzejt7cVnlbswdsxoTdu0t3fAaIyRHRj+o7sbDTY7Fi74V80xTJwwHu/98W1UVddKMiLiTIo4mxLK2DGj8VnlLvT29sJs7p86zbKlSxYtEDJ8Shm5wAHap/9WhvaODjjPfScs83ha8OfqWhw9tE/IIGOb9WkAACAASURBVN2q21kXLGskbl9soM4G3YZoQ9D+xBm54qJC7N23/5a/lxKWcRNnLQH142LC+Cfw0q+Xw2iMwUPR0bccw7HjJ/DM008hJXnULe+rvb0DSxYvRP4LeTCbTPB19w/41epioOTa5N3EvptcGwLCL1ezyYRP/60MVTW1kmm2Nnsj7I0OoR+QyxKrtWdCCCGE3B6DcjA5NjUFJev+IPyXNeUpZE15qv/5ykGYqayuqYPX2xWUoWLkLmr27tuPZ6dNhU6nw5RfTMaRY8fh8bRgzOhUHDl2XPb5JLPZFHRRpcXQoUP7p9vV1AoX5oFTb/uf23Qg2mBAVFQUTLEjkJuTjaxpU5D62KPQ6XTChaIcuWcVxYrXruvPvhqk2YeRcXFBg0Wx3JxsGI0xwpRGg14PozFGcWDMprcGTm0zGmOQ+tijyJo2Bbk52TDFjpBkGdnU5BMnvpJkJsVO1Z9GhjVdqONogwFv/f5NlJZ9LMnUPfjgcBiiDeB5HlXVtZJ9BD7jF4pSXVzlrwKQrz+luuA4DinJoxQHgs3NHhiNMWFnvllmV/wMXLTBIEw9BSDU11COk9S5z+/HkWPHMWZ0qupnqB0XMTE/Q4Z1HJYsXogZ07NgNpuEKcxA8PODobR3dMDjacGz06Zo+ns1Pr8fDTY7pvxiMnQ6HZ6dNhXl2ysAQLEu2LEZzs0fRq5NqtWF2n7C3QYInWWUK9dQ/VqGNR25s4Lfzmo2mTCU4+Dz+1FVUxu0Hctah4qZEEIIIQMX0cEk+1mQjR+V45K3C2+9uxEVO7+MZEhh83ha8MnWbajctVuYghf4sooTJ76SXKSzi+4Ma38WItpgwLy5+SjfXoHY2BF45umnkGbNDHqxijV9HHJnZQvrwnm5i0Gvx1u/fxOFRcWorqkDx3FYOH8eCouKEZ+UgslTp2Pl8qWIjR2Brq6/C5+nJSvK8zyK167DJ1vKMXnqdGHaWcHq14Xvmv9CnjBdVCxn1kwYjTFC2cm9SOOlRQvg9XYJ6+a+OAdVNbWKP8cSeJHu6/ahr+8HAP3PnImzPxzHCdMQ45NS8I/ubklmUjy9k8UrZrEkYOXypZg8dTps9kZYLAl4JCmxf3ru8y8EfeehHAezyQSvtyvk82c8zyvWxZCfDlGsP7W6eHbaFHi9XbIvapqdl48nRNN/xcTlsOmjjzH3xTnCOkO0ATE/e1gygGNvMWZttaqm/5lgjuOEwURyahrSrJmYNzdfkllm01yTU9OEaeOB+2PHRbfPh76+PnAch9/99jXZDLXZbILL1SRMAdZCaep1OMQ/UcNmJWRYb75lVKkuhGctRW1c7UU/geTapFJdqO0j3G2qa+qEtsba5CdbylG8dh2u8f0zSuTKVUu/xvqJJS+vgM/vF46r5NQ0FKz6DSY+OSEonr379iMledQt1yMhhBBClP3k+vXr1yMdxP2M/QyC+HnF+w3P89j4YRnynn9OcjFfXVMHs9l013+igw1uxc9aDoTH04LdX3yJV19ZflsvSFlW8lanL8uJRF2w8s6wpgcNtgcDj6cFRcXvoqjwTU3TocnAsAGvuA14PC04duIkFs6fd1djsdkbZZ9nJoQQQsjtNSinud4veJ7vH4ysXH7fDiQHI/FbNG/lZzluNzYdFLgzA8lIsNkbkZyaNmgHkqVlm7HslVU0kPwR8fn9wtuxaSBJCCGE3FmUmSSEEEIIIYQQEjbKTBJCCCGEEEIICRsNJgkhhBBCCCGEhI0Gk4QQQgghhBBCwkaDSUIIIYQQQgghYaPBJCGEEEIIIYSQsNFgkhBCCCGEEEJI2GgwSQghhBBCCCEkbDSYJIQQQgghhBASNhpM3kE8z+O999fD42mJdCiDlsfTgvfeXw+e51FdUwebvTHSId02Pr8fawqL4PP7Ix0KIT9KpWWb76s+JZJs9kaUlm2WXVddU4fqmrq7HBEhhJDBIOKDye/bOvBG0ft4e92HuNxzRVj+rdOFgjfeEf778OPt4K9di2Ck8niex5rCIsQnpSA+KQVrCovA8zwAgOM45D3/HDaWltGAQoHFkoCoqAeQnJqGqppaJCZaIh3SbcHzPNZvKEFuTjYMer2mbWz2Rtl2NBgEtnO6QCeDHRvcWNPHSZb7/H7MW7A4rGOMtf95Cxb/aPtyVo5yg8Znp01Bg81O/QIhhPwIRXQw+a3Theq9hzA//3lwQ4YErU8b8xhK1v0BJev+gFeWzpf9m0jjOA5ri4vQ6nah1e2C0RiDAwcPC+stlgQ88/RT2PH5zghGObitXP4yWt0uVGzbonngNdgdOHgYRmNM0IWsEpu9EVXVtWhyOtDqdmFtcRE4jrvDUWrD8zyK165Dbk620M61fi9CIsHjacGRY8cx98U5Qet2fL4TyaNGQafTad4f69PNJtNti/FeNPfFOThy7HjQbBuO47Bw/jxU7Kj80Q62CSHkxyqig8mxqSn9g0Ru8A0SB4LneXi9XTCbpRcckyY9Ca+3S3KSZXfHAzM9Hk8LsmbmCsvjk1Ikd4JLyzYHLff5/Sgt24z33l+P+KQUZM3MFU72gftj28h9DotDPPWU3ZFn8VXX1En+nt3dD5zSKZ4SFZjVCvw+bN82e6OmbIG4DOKTUiTZAvE6tpx9vjjWeQsWS8pPXBfs7wI/J3CdUtw8z8PVdB4zpmcFtQ+lcvj2zFmkPvYoklPThHUsLnF9qu1PHI/439U1dZoyKkptsrPzEozGGFRV10rKlbUFpalv4jamtS6UqB0XSnGrEU/LCywvcYY4sNyUjiel9iA+ltg6cXnJHc+AclsJ1SbFy9nnVNfUST7T42nBioLVIduDWntVKgelugjsN+TaRKh9hZMRP3PWiWeefiro5pTN3givtwuzZv5S037Ydz1y7DgWLvhXzduI24O4b1SbyRJYRuy4D9W/y/XVrOxYvbP6kmvjgTHs+vf/EOo28Ng26PV45umncOasM+g7WywJeCQpEc3NHs3lRAgh5N4X8WmuahxnzgnTXL91uiIdjiJ24k5OTZPNRg29kWFiJ1k2BXLFsqVodbvgsNWjYkelcIEwccJ4IUNVsuFPwn6qa+owMi4OrW4XmpwOybQie6MDKcmj0Op2obioEOXbK8DzPCyWBOyvqxK2cTWdh8fTIixvcjqwZPFCHD20TzbjdODgYVTu2i1ZVrLhT8L+dDodOjsvqZbPp1u3IcOaLhu3uAw3ffSx1iLHnt2VQtmJswUsy9nqdmHFsqVCRlin0+FyTw86Oy+hudmDYcOG4WJbGwDgxImvkDurP+t29NA+IWPB9rVndyVWFayQzRjKxc3KIzZ2hKZyYIMO57nv0OR0wGGrx5Fjx+Hr9uGTzZswccJ4xXJl2cLANjTjl1k4VX9aGNgOGzYMvm6fYnmqtclunw8flGwSPit3VjZ2fL4TObNmYs/uStn9+fx+lG+vwM4d24W6WL+hBDzPq9aFGrnjItSxFIrH04KKHZVw2OphTR8n+Xdg3ADQ7fMha9qUoGNT/L21tmO141ncVlrdLuTMmgkgdJsUHxfsBlbgzSylgVYgpRiUykGtLnJmzRSOryWLF6LJ6RBmIqj1D2aTSaiLPbsrcar+dMhyZW1+zOhUyXKf34+KHZVYOH+e5qw/z/Mo316BeXPzYTDc+qyJwJksGdZ0yUwWcd8qPu6V+nexwL7abDLhgrsZPr8fZ846kWhJQHt7BzyeFhz+y1HhWMqwpuPTrdtu7ufQYezcsR1NTge83q6gvtpsNqHBZpe96TcyLk5THRFCCLl/DNrB5NjUFGGK66vLFqKq7iC+b+uIdFiyDHo9KrZtQau7f8AbeDeX4zgYjTHCv6/eOAmz5wMNej0eSUpEt0/9Yr/BZkfB6tcRn5SC5NS0oAuHSZOelOz3qijzw7Y5+fU3mr8XuyOf/0KeZLk4hpTkUbBYEgAA7R0dSLNmIj4pBbPz8oW4+/p+EC7sOI5DhjUd7e3SuhzI1DM54rv7LIarPI/e3l6k/Xws/vpfDTj8l6MYn/n4LX0OozXuUOWg0+mEi9zA9tDb24vJU6cHZSvsjQ7MzstHfFIK0qyZcN+4WdHe3oG0n4+F19sl1LcpNlY1vlBtclXBCuFGw5jRqejr+0G4mPygZFNQNqy52YPKXbtl2sO121oXAzmWmILVr+PtP76Ld4oKhYFVt8+HR5IShX+LjyUt5NpD56VLQdurHc8+vx9eb5dwPIdD3B7Y87oGvR5GYwyamz3geR4X29pC7nsgMQy0X1M7LsR9yqaPPpadtqrVjs934pmnnxL6Ky3Cna4uJq6L9o6b/Z04g1yw+nVN+1Lq35nAvtrX7YNOp0PsiBFosNnRYLMj7edjAfTfTPhkS7kwCyIwhtxZ/e1Gqa+ONhgU+7vAWTmEEELuf4N2MClmjHkYI/4pJvQfDgJPZD4Or7dLcteWXTBFGwy3tG+dTidkENWeXfN1+9Bzpf9lRjs+34n0cWmyd7tDqan7T8ybmy8ZCAM37563ul242NYmTEsLzCJodeGCG319P4Q19UyOx9OCP1fXCmUUGMPYMaPxWeUu9Pb2wmw2C8tzZs3ExbY2xCelYPLU6ejt7b2rcYcirneWlbjGX5OUd6vbhf11VcKF8kPR0TAaY/DSr5djwvgn7mh8LEMWmMlgy9l/a4uLMOTGlHalurib3vvj2zCbTDhx4ivN27S3d2BkXJzsOrn2wJ6ZDhxUA9qP53CwzGST04Gq6lqhLmZMz8K3Z86is/MSkpNH3fKzyWrlcDuJ2/hbv38TfygqHtAzeezmCxu8T546HZ9sKUfu8y8oZrHZgJ/dLEmzZgo3SLRMt5WbPWGzN8Le6BC+k1x2O+R3EfXvjFJfPWH8E3jp18thNMbgoehoYbm4D291u7By+cuynyU3Y6Db50NU1AOy2d271S4IIYQMHvfEYPL8BQ/+5v079A8Oj3QoIZ2qP40Ma7rkRMsyY4bo/sFk4LRXj6cFNrtDdbDJcRxSkkdh7779IWM4c9Ypya6wk7vz3HeaM5Mnv/4GUVEP3PLFLcdxiIp6QHjGxuf3o6qmVnIH+7PKXch7/rnb8sKZBx8cDkO0ATzPo6q6VlhuNMYg9bFHkTVtCnJzsmGKHSFk19hgOHCaayhKcbPpreLpv2rlwNaxuvV4WnDB3az6Zlu9/kEYjTGKAyGz2YQZ07OwZPFCZFjHISrqASFDFPg8FaDeJqMNBtjsDuGie+++/UhJHqVaX4mJFlxwN8teqKvVRbgGciwJ2w4ditdWF6Cq5uagK9pgEKYGAhDKdyjHKU6fZJTaA5viKb7BoXY8s+8UziA3lNjYEejr68Nf/6sBSZbQb0xWi0GpHAbar4XqH8LFylb8XJ949oh4um3VF7sUM5WBU1Idtnrkv5AnTIkeKLPJhKEcJ3zXcAX270p9dUzMz5BhHYclixdixvQsmM0mXGxrw5jRqf3T6DU8Q33B3RxUz2oDxottbZSdJISQH5mIDibZz4Js/Kgcl7xdeOvdjajY+SUA4OCRk8LzktV7D6Hg5QV4cPiwSIYrK/AlESPj4iTPFgH9F2RGY4xw8mdvvissKhbukq9cvjTk9Ktnp02B19sl+3IQ8XSwBpsdLy1aAKA/I/HJ1m2IT0rB4b8c1ZyZ/NnDDwe9QIZhd/fjk1Lg9Xbh2WlTVPc198U5qKqpvTn9bla25MIna9qUsKaeKWEvgEizZiL3+ReQ+tijAPrv5Pf1/QCg/5kz8Wf7/Zdx5Nhxxe+qRilupYGCWjnMfXEO7I0OxCelYNkrq/DqyuVCexFPcy0sKhamw4r3J36RBssmWCwJ+N1vXwsa3AzlOJhNJkkGXa1NWiwJ+FVOthADAEkbZ5kb8TPDBr0e8+bmC9sILxVSqYuBGOixxBj0erz1+zdRWFSM6pq6oExiVU0tXltdgKs8jyUvr0Bvb2/Qs7BMuO1Y6XjmOE4Y5Mq9/EYNm1oZ+Pw2x3EYGRcH57nvFOMXU4rB5/crlsNA60LtuBD3a5OnTu9/dlFDVlXrgOluY31ScmoaClb9BhOfnKBpO6X+HZDvq7t9PvT19YHjOPzut69J6iCwjQe+2Ij172nWTMybmy/Z1uf348ix47I3VLTcBCOEEHL/+cn169evRzqI+5nH04KNpWWS57JuN5/fj/UbSvDa6oL75qc17nXin9MYjD+jwbKSStPbyP2ntGwznsh8fFC2xzuhuqYOF9va7vk2fjf7d3bTIvCGKFNatln2hulg7+8IIYTcOffENNd7Fc/z2P3Fl5IsE/lxEDI71bWDKjvCfiIAoIHkjwV74cvIuLgf1YU+G/Bo/TkRoo6Vo9xA88DBw8iwpv+o2hchhJB+lJkkhBBCCCGEkP/P3r1HRXGm+QP/zjl7ljKgdjsJPUrjYENGSFCDtOcn0ajRUYOrCJvkcCLxMGqMY7yE0UzGjcOGxMltRhOChEwu6jAGHWfMcHO9jvckuGs3vdFOGldoGLkYyA7dIkgxf6y/P7DKqu6uvqCmSeb7OSfnxKqut55637cuT71vNxQyjkwSERERERFRyJhMEhERERERUciYTBIREREREVHImEwSERERERFRyJhMEhERERERUciYTBIREREREVHImEwSERERERFRyJhMEhERERERUciYTN5BoijitTc2w+lsDHco3wpFxSWwWGvDHQaFkcvtxsb8Arjc7nCHQkREREQBhD2Z/GtzKzYUvIGXXn8bV7quqtZd6bqKl15/G3kbXva5fjARRREb8wuQu3S5/CAsCAKyH38UbxUV8+E4gIrKagCAOXVimCP5x2ax1iIuIQlxCUnYmF8AURTvyH6KiksQl5Akt7tEr9MhKzMDm7cU3rF9ExEREdHtEdZk8nO7AxX7DmNJzuMQIiJU6650XcVvt5XhJzmPofD1f8eLG57F8GFDwxRpYAcPHQEAGGNiVMtNpjGY9fAM7PxoVzjC+lZwOhtx9PgJLH5yUbhD+YdmsdaivKIKdXYbmuodeGVTAQRBuCP7Wrv6GdTZbThrsXollObUiTAYouVzioiIiIgGp7AmkxOSk/DsyiUQhAivdWfO2vDA+Pvww9gYH1sOLlIytGzpT3yunz79IbS3d6hGJ6WRGem/ouISuazX3tgMURTl0U7l1E/ldspRUKezEekLsryWS2VI2ygf3JXTSisqq5G+IAtOZ6PXNsoRqorKauz+wx/lfUlxV1RWq47HMw5l3J7Jw7nzdsx6eAb0Op28TBmPtL0Uh3L0LC4hST4Gl9uNouISvPbGZsQlJKm2r6islvcrbS9tp1WeFpfbjdyly1Vtlr4gy2d5yjrw136eda6MQdm2yvobyLRgf/3h83PnkXz/fUhMTpHXSceqrEt/5XnWgbJ/edaFIAhYtiQXjroLXqOQ8+el+1xORERERINH2Ke5avmq/WuIYh82FLyBvA0vo3TXx+EOySdRFLFtRylyF+dAr9f5/MyQG6M7DQ1O1fK9e8rQVO+AzVLjlWwC/aOdZbv3eJW3d08ZbJYaeRTU5XZj245S7Nq5A031DqxZtVKeJvj+h9sxyZyKpnqHPBLkmYBYrLU4a7Gi/E+7YTKNgSAIeGVTAZrqHWiqd2CSOVU1SnTw8BHs2rkDdXYb2ts7YLHWInPhAjTVO3Ds8H6sWL4MdXYbSrd/AL1Oh4rKaoyOjfUZgyiKcNRdwPhxyV7HGW8ag3Pn7XC53Whv70DX1avoFUWYUyfKsdksNSivqJLrzlprQ1LiWDTVO7CpIB/bdpSqEhKnsxGlO/vrT5pS6688LcaYGFysb4DL7ca583bEm8agpaVVVb5nW2i1HwC8/+F2ZGVmyDGU7iyTk7dOlwvpc2ejqd6Bwi2/9htXIFr9QRRFOJ2NsH/xJersNtgsNTh6/ARcnS68V7IV06ZO0SxPK+75/5KOz2rOyG08dOhQuDpdqu07XS50d3d7lasfoUfb5ctoa7t8S8dLRERERHfOP4U7AF/Evj64r3TBfaULBf+WBwB4b/sufG53YEJyUpijUzt46AgMhmiYUydqJiCCIMBgiPZa/lh2jvz/e/eUQa/TyQ/b0mhnzhPZ8mdEUUR7e4dXOQ0NTpTt3qNKPHOeyIYoiujpuSYnaoIgYJI5FS0trXIi9Vh2DnKeyEb+xg2qKY1FxSV4s3Cr/G9lEpO1MEMeRfQsz5MoijhrsaJs9x7krX/+ZhmZGT4/L7nU3IwpaZPhqLuA3t5emExj5CTF6WzEqmfXweGoAwBMnzZV3s4YE4Pp0x8CAMTHmwAAvTcSubz1z2P6tKkofPM3qlFQf+X54up0ISoqClFRUThrseKsxYqUByYA6E+O7k2Il8v3jMFX+7ncblhrbar6TkpK9BuDRNmH1uWtwdrVz2h+1l9/SL7/PkRFRSH78UchCAIEQcC9CfHodLkwatRIdHd3Y+aceXJs77z9JvQj9Jpxt7S0IuWBCXA6G3Hqk08BADGjRsmfU9b53j1lXtNphwgCRo0cGVQdEBEREVF4DMqRSSEiArrhwzDjockQIiIgREQg8Ufx+Kr963CHpiIlSm8WbkVcQhJSzGko270HKeY01eif9BA/Qq9XbS+NTNbZbSivqFJtU1n9H8hdnKNKQntFEV1Xr3qVA/QnEtLoWijfd3v/t8VoaW2F/Ysv5WUWay2stTZ5dM3faNil5uaA+4iKisKxw/tV8QXzQztGoxHd3d34fdluTBg/DgDQ19eHbTtKseKppfJomOf3VCWuThe6rt780abXfvUSjDExOHnytLxMGlkOpjxPU6c8iKd/uhoGQzS+P2JEwM/7az9jTIxc3031DhyoLofJNAZAf2I2OjbWZ5nKPtTTc+2O/XKwsg2lEd8+sc9v3N8fMQIGQzSe/ulqTJ3yoKo8k2kMDlSXa/aFXlFEd3c39CO864qIiIiIBodBmUwCwA8M9+C/z/UnOGJfH+r+pwE/MNwT5qjUPKeD2iw1yHkiWzWFEgj9wfjUJ58iMvIur4fshgYn7k2Ilx/WJfHxJlysb/BKJARBQGTkXTh33g6gfwSsvLIKRuPNZGmEXo8Xf/kCiorfVW1vjInBEEGQt/HF5XbjYn2DzymqyhiSEsdi3/4DftdLMUoiIyMRM2oksjIzkD53tjxy5nL1j9xKx3Dy5Gm0tLb6LPvcebtqlHDIkCF4bn0eyiurvKb6+iuvqLjE6/t+0dH3YJJ5IlYsX4b589JhNMbgUnMzRuj18vRXqTygf6RNq/30Oh0MhmhVkivxNw04EM/vnfrrD9I6qZ2czkZcrG+QR1Z90emGa8YN9Nfp/HnpWLF8GSaZJyIy8i503mg/i7XWq06VpNHfIXfoB4CIiIiI6NaFNZmU/izIW+9sw+X2Drz46lvydyPnzpoGAMjb8DI2vPgGEn8UP+imuAbr5MnTMBiiVVMrgf4pinEJSUhMTpGnygLAPXffjfnz0lWftVhr8Vh2jtcoaN66nwMAchfnYOaceV4/rLL4yUUor6ySt8lamOGVpJpMY7B29UrMnDMPFmstku+/DwCQmJyCvHU/x7SH1NM+89Y/L5eXuzjHKzny9Mjc2Whv79D8UZrx45L7v5+n+DGajo7+UWhz6kTV1M2If45AVmaGXHd/6+xUjSS2tLYixZyGuIQknLVY8fRTS1Wx6HU6vPjLF5BfsAkVldUQBMFveQAwOjYWHV//rzwFudPlQk9PDwRBwL/94jnV8Uu/3ivFUF5ZhefW58H+xZea7edyu1XtJP3o0VdftWPFM2vQ3d2NUaN8T/lU9qGkxLGqWIzGGDgcdXICB/jvD4ufXARrrQ1xCUlY9ew6/GztarnPStNc4xKSkF+wCcuW5EIQBJ9xi6Ioj1ibTGPwb794LuRfhd23/wCSEsfesV+TJSIiIqJb973r169fD3cQ32VOZyPeKirGywX5XslkKCzWWnxWc0aVWLncbuz8aBeefmrpN/bQLSWpmQsX3PZyLzU3+/3OXyAutxubtxTiufV5t1TXnizWWmx9512v71qGWsY33X5OZyMKNr2KgvwXAib8g4n0J0o8v8dLRERERIPLoJ3m+l0giiL2/Olj1QgP+SYlp6H+qYs7SfqzF7eaSIZDUXEJVj277luXSLrcbpRX9I/mMpEkIiIiGtw4MklEREREREQh48gkERERERERhYzJJBEREREREYWMySQRERERERGFjMkkERERERERhYzJJBEREREREYWMySQRERERERGFjMkkERERERERhYzJJBEREREREYWMySQRERERERGFLOzJ5F+bW7Gh4A289PrbuNJ1FQAg9vXh7Xd3IG/Dy6r/Prc7whytb05nI9IXZCEuIQlxCUmoqKwOSxxFxSVhj+F2s1hrUVRcEu4wvlOU/TV36XK43O5wh0RE/2BEUcTG/AL5nmWx1oY7pKA5nY147Y3NEEUx3KEQEYXdP4Vz55/bHThx+gyW5DyOin2H5eVCRASeXblE/rfY14fSXR9DN3xYOMIMyrSpU1D+p904eOhIWPZfVFyC0bGxaKofnAk3DQ5OZyPeKirGrp07oNfpwh0OEf0DEkURm155HVmZGXhlU0G4wyEiolsQ1pHJCclJeHblEghChN/PXbjohBARgR/GxnxDkYWm0+VCd3e3z3UVldXym9f0BVlwOhsBAC63G7lLl8vrNuYXBPWW02KtlbeRRpWkkSVH3QWv/Xi+/VWOWG7bUYrdf/ij1zrPbYKJzeV2Y2N+AVxut7y9tJ2/GIqKS+Q30r7KeCw7B28WblW9uVZuY7HWquJT1ndcQhKKikvgcruxJm+9XCdSGVIcodaDKIp47Y3NqraU4lb+v+d+Kiqr5f93OhuxJm99wFFBzzfgyjL8vdn31U8A4Nx5Ox6c/P+waPESuX6kY8hdulwVX/qCLLlMZb0q61urjrTqwbNveO7X87wIZrRCq/2Ux+FZD/5mE3jGINWRsi2k47BYa73qwLM8rbbw7KvKelXOlIuGHAAAIABJREFUMlBuo1zuuZ3yvAiW1rnpGZtnHMpjUraTvz6pVa/KPq3k2YeUsxSU55W0bmN+ARx1F+Q2kupKeT3U4nm80jYutxtFxSV47Y3NPsvSOi88+5dUd05nI4qKS+Q6CqZPSnWtPBel7Soqq1UxSWU76i6ori/K/jqQevBs81BmNPiqo7a2yzAYolFeUeVVnlaf9NcWWv3B331L63yWYlZeZ5XX+6LiEsycMw/vfbANickpmtfjYO61Wu0niqJmf/C8JyjPC3/3GH/3TX9CbXdlDJ59V+v67q8e/J2byuuDRLlcua3FWutVp55xKI/V87li9x/+KG+rnC2lda0m+kcS9mmugYh9fThz1oYZD00Odyh+GQzREATBa/ml5mbs3VOGOrsN06ZOkZefPHkaWQsz0FTvwLHD+xEVFRVwH05nI0p3lsFmqUFTvQOl2z+AXqeDq9OFA4eOIClxLJrqHdhUkI9tO0ohiiLe/3A7JplT0VTvQJ3dhrMWq3zh7Onpgf2LL1Fnt8FmqcHR4yfgdDZCEAS8sqkATfUONNU7MMmcGtKIq7TPVzYVQBAEvzEEKmPvnjKsy1uDvXvKsPWdd1UXapfbja3vvOu1beGWX8uxr139DPQ6HWY9PAPnztvl7drbOzB9+kN3tB4s1lq8WbjVa7koiti2oxRdXV1Bl+XL+x9uR1Zmfx+yWWpQurMMTmejVz9Zs2olNm8phCiKuNTcjIOHj2DXzh2os9vQ3t4Bi7UWep0OhW/+BmctVrjcbuzbfwCbCvJhTp0Ii7UWZy1W1Nltcj28/+F2OY6oqCgcO7xfsx971kNUVBSudHWhre0yGhqcGDp0KC41N0MURWzeUog1q1Z6HZM/Wu3ncruxbUcpdu3c4VUPJtMYHKgul/uko+7CzZcDnS4kjh2LOrsNe/eU+dznwUNHULZ7DwB49ZNjh/fDUXdBfiDUagvgZl+ts9sQFRWFtrbLAIC1q5+Ry1uzaiV2frRLtVw6L5rqHfJ5NhBa52bmwgXysaxYvgx1dpt8vZFI+1+Xt0ZVnq8+GWy9Bmv+vHS5jgHgs5ozyMrMQMQ//zOA/mvlxfoG2Cw1WPHUUuzbfyBgmcq2UF6rrbU2n9fWQOfFtKlT5HXKujtw6IhcR1kLM+S29dcn5/9LOj6rOQNRFOGou4ChQ4fC1ekCAMSbxuDcebt8Xeu6ehU/+IEB9ybEo6HBCQBoa7uMqKgoJN9/34DqIVA/1uJZR1Jf7XS58GbhVp/14O9+odUWWv0h2PNCeT77IyVJ0nmxv+rP+HNFFZzOxgHdawHf7dcb4BoViL97jNZ90xetZ45QtzWnTgx4fdeqB0D73PTH5XLj6PETOHZ4P/buKUN5RRVGjRqJA9XlqLPbsGL5Mhw7vB9N9Q6YUyfC6WzEkb8c0zyffd03Ae1rNdE/kkGfTF646IQo9sEQfXe4Q9HU0tL6jezn3Hk7Zj08w+fFfNrUKXhk7mwAQHy8CQDgvnIFPT3XMH5cMoD+h95J5lRVvNINV6/T4d6EeHS6+h9QlG/b8tY/H1R8La2tSDGnYXRsLDIXLgDQf1MLFMNj2TmIS0hCijkNLa2t6OvrU20DAMn334fEsWPlBygA2PnRLiSOHRtUIj5+XLL8sNHQ4MQkc6qqHm9nPQD9N7LSnWVYsXyZ1zopITXGBDfSfuqTT5GYnKKKweV2w1prU9Vd/Y0Hx06XC/cmxMvHJ/UH6ca8ZtVK6HU6r7bQ63TIysxAijkNAGBOnQigv39PMqfKD2bjxyWjp+caRFFEryii7fLloOuhVxTR3d2NlAcm4D//6yyO/OUYpqRNVsUnxevZFv74ar+GBifKdu9BijkNcQlJeCw752ZcijfkickpOPXJpwH3IXE6G3H0+AnkPJGtWia9tX7pV6/ipyuekh+a/bVF3vrn5RiSEsfCZBoDQD2ao4w7EKk/eL499yWYc1OLr8/465OBSPXgOSIgXVM862HUqJEA+pMk6QWTlCid+uRTzMv4VwwbOhRDBAHjxyUjMjIyqDh8McbEyC+elO3n77zwZ9rUKXKsym20+mRLSytSHpiA9vYOeVnMqFEA+l9WTkmbDEfdBRw8eBgm0xgMGzoUAPBg2mR8VnMGQP+9Y/aPZw74pUOgfqzFX1K3Lm+NfI2R6sHtdvvtk1pt4a8/BOLrfAbU56ZU75eam/Fg2s0X2ybTGJhTU/BVe/uA7rX+2u9WrlH+7jGh3Df9PXP4k7f+ebz0q1fxckG+vK2/67u/evBHeX1QjjC2tLZi5ux0dHV1QT9Cj/h4EwyG6IDHKo02+7rfZy3M8HnfHOi1mui7ZFAnk2JfH06cPoMZD02GEOF/Kmw4XWpuxujYWK/l0sPaCL3ea13mwgW41NyMuIQkzJwzT3Oa7DdFFEW0t3cA6H+bbK21yW8jC7f8OqgyjDExeP+3xSivrAppqsfePWXym8pgE6yLF+vR03MNCxf8S1CfN5nGIDr6HrS1XUZ9fYP8QOLpdtQDABw/cRKzHp6BpMSxquV/6+zEWYsVy5b+JOiylCMcyhiMMTFybE31DhyoLpeTkVuxYvmyoB++peReP8K7jwPa9TBh/Dj8vmw3uru7YTQaby1gBWX7ATdHz6T/pJGRnR/tQurEFJ9vuztdLkRG3qX54F1Z/R/IXZyjejhRjiK8+MsX8O8Fm4I6B5Sj6Jeam1FRWQ2nsxF/rqiS35qHMoonnUt1dht6eq4FPZIRKq1rnr8+6a9elfVgMETD/sWXXuUp60EQBMz+8UycO29HQ4MTD6ZNlsudNnUK9lf9OaiH5VC5Ol3ounr1tpWn/IqEvz75/REjYDBE4+mfrsbUKQ+qyjAajeju7sbvy3Zjwvhx8nIpmbp8+Sv09vYGnVx9Wyjbwl9/CMTX+QwMbDQsGJ7XKK3289cf/PF3jwn1vjlQr/3qJRhjYnDy5Omgt9GqB7/bKK4Pxw7vx5G/HEOf2AdjTAyOHTkQ9POERHkdkmY2+XKpuRkAbulaTfRdMqiTyQsX+99qj73XFOZItDmdjbBYbapRNIk0ZU16a6okTZcJZZqr0RjjM1HTj9Cj7sIF+QHs5MnTMBii8QODAZGRd6mmd5ZXVsFo9L7AtrVdRtfVq/JbQ2NMDIYIgrxNsCaZU5G1MEOeAiUIQtAxSCIiIlTbAID9iy/R3d0t1+Xvy3Yj+/FHQ3rTPmH8OBw/eQoANN+03o56aGlthdPZKI8UK0k/OqHX39qP3+h1OhgM0T5v1iP0elysb5D7ifSZIYKA0bGxKK+okkdCjh4/IfddaVrST1c8hZ6eHrmPGo0xOGuxyiMu+/YfkJMCf2+uterBYIhG8v33IX3ubGRlZiBm1Ej09FzD926sl6bmSeeWr5cxWpTtFx9vwsX6Bs2ESkqG7F98qXrr/1nNGdXog9KpTz5FZORd8oiKlitXuuDqdPltC3+GDx8G/Qg9RFFEeUXw518oBnJuSp9TThOX+OuTgP96HYj4eBMuNTfj83Pn5fNVjkWvR3d3N3pFEefO2/H9ESNuyz7PnbfLI3T+zotgfVZzRjW6qdUnjcYYzJ+XjhXLl2GSeSIiI++6kZxHImbUSGRlZiB97mwk338foqKi4Op0Qbhxvp84eQrfv/v7Ax6VBPxfU/xRXm88y7NYbfK5uW//ASQljoVOpwu6TyrbAvDfH7QEez4rj0ca7QVuTqdOSkoc0L3WX/tJ+wO8+4M//u4xod43tZ45AhkyZAieW5+H8soqebRQ6iu+ru+B6mEghgiCXIa0T3/HPX5cMo4ePxHwWF1uNy7WN8j3TX/Xaml0mb9IT991YU0mpT8L8tY723C5vQMvvvoWSnd9DODbMSrpcrvx0q9exanTn2DmnHny1Ii89c/jrbeLMXPOPCQljvW6gEkP8fPnpYe0P3PqRGQtzJCndUhf9tbrdFizaqU8veysxYqnn1oKAFj85CKUV1bJ086yFmaobpzSNqueXYefrV0NvU4nv8FOTE5B3rqfY9pDU0OKM3PhAhgM0VjxzBq43O6AMfgibSP9AM/Wd97Fc+vz5LpMnzs75FG4+HgTTp3+BAkJ8V7rQq2H7u5uuc1TzGko271H9V0JraldOU9k37YRAmW9KqcHmkxjMOvhGXI/Ka+skutOSuwSk1OQYk5D7uIcmExj5L6cuzgHep1OLruishrm1IkwGKLl6T/t7R14+qmlqKislvu7NML+3gfbsOmV19En9vmsB1enCz091wD0f9dE2Q8EQcCyJbnIL9gkl7d29cqg2tlX++l1OuQuzpHbSfkjFvPnpeO9D7cjLiEJR/5yDNOmTkHf3/uwMb8A1lqb5sPoPXff7XXeev7wxsw58/CvmRkwmcb4bQtAPb2zvb0Dj9zo1/cmxPefK48/EVJ/kerBc9qsllDPTZfbjbx1P1dNH36zcCsey86BxVrrs0+6b/wghr96VdYDgKAe7qUkoqenx+tlhl6vwyRzKlLMaSivrNKciRAM5VQ65bVV67wIRDltHYD8lQBffRK4OQpiMo3Bv/3iObnv/P3vf0dHx9dyLL5GUcaPS8aBQ0eQYLq1F7KB+rEW6V4gHa/yGvWvmRnyuamsB399UqstAP/9QYuv89mfR+bORnt7h3ytW/+LF+TrTaj32iGC4Lf9tPoDoO5D0j1SStr83WNCvW9qPXMEQ6/T4cVfvoD8gk2oqKzWvL6PGjUyYD/WouwPq55dh+zHH0XEjR90FIb0j1bPnDMP+QWbArazZx/3/AEx6RqlvG/eyrWa6DvlOg1Yb2/v9be3vnO90+VSLS+vqLp+1mINU1TBe3vrO4M+zrMW6/W3t75zW8pqaHBef/X131zv7e1VLb8d9XA74/y2KK+oul5eUaVa1tDgvP7h9t99o3F8G/rxd0Wny3X9hV++6HXN+3D77643NDi/0Vh6e3uvv/r6b+7ofrWOd6C0rkF3ynfpuhSoLb6J/iAJtR3v9DWK18A7y9e9johuGtTTXIluB+nHUZQ/jEJE307SSHBicgpm/3jmbfme8HeN9CcOyiuqghot/TZjfyAiCq/vXb9+/Xq4gyAiIiIiIqJvF45MEhERERERUciYTBIREREREVHImEwSERERERFRyJhMEhERERERUciYTBIREREREVHImEwSERERERFRyJhMEhERERERUciYTBIREREREVHImEwSERERERFRyP4p3AH8tbkV7277CEMEAXnPLMXwYUMBAFe6rqKwZDtc7isAgJTx9yN30aPhDJWIiIiIiIhuCGsy+bndgROnz2BJzuOo2HdYta5i32FMnpSCubOmQezrQ+muj/HX5lb8MDYmTNESERERERGRJKzTXCckJ+HZlUsgCBFe635guAd1/9MAsa8P7R3/C7e7C7rhw8IQJREREREREXkK+zRXLXNnTcMPDPdgw4tvYMwPY/HsM0sgRHgnnURERERERPTNG7Q/wPO53YGKfYfx0gs/Q+KP4vHGW7/Fla6r4Q6LiIiIiIiIMEiTSbGvDydOn0Hm/DkYPmwo5s6ahrjRRpw5awt3aERERERERIRBmkwKERHQDR+Gr9q/BtCfXLqvdOEHhnvCHBkREREREREBwPeuX79+PVw7l/4siCj2ycukPwHi+adB0mfPwNxZ08IVKhERERERESmENZkkIiIiIiKib6dBOc2ViIiIiIiIBjcmk0RERERERBQyJpNEREREREQUMiaTREREREREFDImk0RERERERBQyJpNEREREREQUMiaTREREREREFDImk0RERERERBQyJpNEREREREQUMiaTREREREREFDImk0RERERERBSysCeTf21uxYaCN/DS62/jStdVebnY14e3392BvA0vI2/Dy/jc7ghjlNos1loUFZfI/3a53diYXwCX2x3GqMgXp7MR6QuyEJeQhNyly9lGRAEUFZcgLiEJcQlJqKisDksMTmcjXntjM0RRDMv+iYiISNs/hXPnn9sdOHH6DJbkPI6KfYdV6/Z8vA+JP4rHsyuX4ErXVfyubC/iRhsxfNjQMEVL32ZOZyPeKirGrp07oNfpwh0O0aBXVFyC0bGxaKofnC/yiIiIKPzCOjI5ITkJz65cAkGIUC0X+/og9vUh8UfxAIDhw4ZCN3wYmi61hCPMAVOOhAX7Zt9zG+V2FZXV2P2HP8rrlSOi/kbdlKMLynXK5cp1TmcjiopLsDG/wGubispqOR6nsxFr8tbL6yzWWq+4XW43cpcuVy1XHlNRcQks1lp5+435BRBFUTUaIYoiNuYXyJ/zRxmDMu5z5+14cPL/w6LFS7zqzjNGaT9a9eB53J7xabW79Dlf/cGzLaT4PLeR6sez7pQj4p6j40XFJZr7Cna0ybNtlfv1VXe+1knxSscg/VtZn1rHBPT3PV/14C/m9AVZcDob5e2lNvR3LmmdL54jZMpzQasfK2P2LFO5fbA8+5by+PwJtu9Jy6VjdtRd8LkfZX8Ipi389UllPYiiiNfe2Czvq6i4BDPnzMN7H2xDYnKKKm6t/rBtRyl2/+GPPq+fyuOQzm3peuPrnPVsc+VMFK1rlHK5VLfBtJO/NpLi54wKIiIabMI+zVWLKPbBfaULQP9UWMf/1Ic5Im1vFm6VHwBSzGloaW0FAJhMY3CguhxN9Q7U2W1w1F0I6sFv2tQpqLPb0FTvQOGWX6vWHTx8BLt27kCd3Yb29g5YrLVwud3YtqMUu3buQFO9A2tWrcTmLYWqB7y9e8pgs9TAGBOjKm/vnjI01Tu81h04dARZmRloqncga2EGdn60S7WdKIrYtqMUXV1d8r+P/OUYjh3er4pbr9OhdPsHaKp3YF3eGnl/mQsXqMpzud3Y+s67Puvj4KEjKNu9J2C9OZ2NKN3Zf5ye9XCpudln3YmiiM1bCrFm1Uq5Hkp3lsnt5KseTKYxuDchHg0NTgBAW9tlREVFIfn++7zaUNl+73+4HZPMqXJ/OGuxqpIvZVu0t3fA5XZDEAS8sqkATfUONNU7MMmcioOHjgSsC4nFWos3C7fK/66orJZHm3zF4M+6vDVyOwIIWHeuThcSx45Fnd2GvXvKAADm1ImqY+jtFbHnTx/jZ2tX+x0xtlhrcdZilc+LSeZUvP/hdr/xmlMnYlNBPvbtPwCX242zFisK3/yNvB9f/QEA1q5+Rq7vNatWevV9fzz7cebCBWiqd+DY4f1YsXwZ6uw2lG7/4JZGx5XXhxVPLcW58/aA2yj7nvL80+oPrk4XDhw6gqTEsWiqd2BTQT627SiVE68jfzkWUlsoefZJLVIyJdXd/qo/488VVXA6G/32h56eHti/+BJ1dhtslhocPX5C7pPxpjE4d94Ol9uN9vYOdF29il5RHPC1WuLrGuV0NuJifQNslhqseGop9u0/4LeMQNcHIiKiwWhQJpNCRAQy58/B7r1VyNvwMir2HcaYH8aGOyxN0kO2Z1KmHJlJTE7BqU8+veV9ZS3MgF6ngyAImGRORUtLKxoanCjbvQcp5jTEJSThsewc+fOiKKK9vSPk/UybOkVOjsaPS0ZPzzVVciolA57J6UDt/GgXEseORVRUlGq509mIo8dPIOeJ7IBldLpcuDchXn5Qj483AQB6b8S9ZtVKr7qT1kmf1et0uDchHp0uFwDtengwbTI+qzkDoH/Uc/aPZ0IQBDmO7u5uVWyiKKKn5xrGj0sGAFUMkseyc+QXElmZGfJxKEeO8tY/rypXuY30EkPicrlRurMMK5Yvk2M4a7Eib/3zcp8MJkkHoIpTEqjutDwydzbOWqx4s3ArFv9kGZISx8JkGuP3mFpaWjHJnCrXsa8+6Ys5dSIAeNUp4PtcAtQjXspzCQBOffIpEpNTfLYFoN2PtUhtEewIn2cMZy1WPDJ3tt/PS4nT9OkPqZYH6g/Tpk6Ry1aeS+fO2+WRQq160IzFo09KlDFI18lLzc14MG2y/BmTaQzMqSnodLkC9oeszAwIgqDqk5eamzElbTIcdRdw8OBhmExjMGzoULmOBnqt9nWNOvXJp5iX8a8YNnQohggCxo9LRmRkpGYZwVwfMhcuuOUXEURERLfboEwmAeCHsTF4veAXKHz937Fi6SIAgG74sDBHFZqdH+1C6sQU+U3ztKlTbmv5l5qb5f9XJrRN9Q68sqkAgiCgVxTRdfUqRuj1A96PZ3L0t85OnLVYsWzpT+RlgiDgpyuewku/ejXkB8yLF+vR03MNCxf8i9e6yur/QO7iHBgM0QOO/3ZR1oOUYF6+/BV6e3tVo5ItLa0wGKLlB91gSSOTdXYbyiuqYLHWwmKthbXWJo+2eo5Ua40sA8DxEycx6+EZSEocKy+LioqSR4+l/6SEy59Lzc0YHRvaC51OlwuRkXd51YOUhOY8kY11eWtU/TjQMQ1EZGSkV/LiSYrB6WzEnyuq5DqSRlQl/mYN+OvHWgq3/FpuB4MhGvYvvgy4jTKGrMwMbHrl9QH/OM1A+4My7qZ6B9aufiao/fnqk8rybvd10vNlmtFoRHd3N35fthsTxo+Tl9/KtdrXNWra1CnYX/XnoF8qEBERfVsN2mRS6eQn/wkhIgI/jL09o2DfJOkB3P7Fl7dlZFLicrtxsb4B48clIz7ehIv1DT6nZTU0OHFvQrxq5CdUn9WcUY0CbHrl9f5RHv3NN+SeUx49H7T9+X3ZbmQ//qhX0nHqk08RGXlXUA+3ADBCr8fF+gb5O0UnT54GAAwRBIyOjUV5RRVEUYTL7cbR4ycwflwyhtzYpzRltX8Knc1n8q2sB+FGmSdOnsL37/6+HLsoinDUXcD8eemqbQVBQGTkXfKURJfbjfLKKhiNgfu0MSYGQwRB3iYYLa2tcDobVaNWgiAgKXFswOl2nrRGtgLV3Wc1Z1QjS5KTJ09jkjkVBkM0Uh54QDXFVIvRGIOzFqucNO3bf8BnouqporIaPT09+OmKp1RTcD2PTzqXAGD48GHQj9BDFEWUVwRX34B2Pw43qZ2k80Hirz/oR+hRd+GCnNyePHkaBkM09Dodxo9LxtHjJ0L+7p6vPunP6NhYefQfuDltND7eFHR/aGu7jK6rVxEfb0JkZCRiRo1EVmYG0ufORvL99yEqKgquTpe8PyC0a7W/a5Rer0d3d7c8mvv9ESM0ywnm+sDvTBIR0WAU1mRS+rMgb72zDZfbO/Diq2+hdNfHAPp/6VX6syBftX+N3EWPhjPUAZk/Lx3vfbgdcQlJOPKXY7fljbs0HSzFnIbcxTkwmcZAr9Mhd3EOZs6Zp/rxBou1Fo9l58jf6Uwxp6Fs9x7krft5wAcS5VQ6AKrvOOY8ka0aiQMgP3R6Lg9G+tzZPpPde+6+2ysp88dkGoNZD8+Qp/uWV1bhufV5EARBfoBNTE5R1Z0gCFi2JBf5BZsQl5CEmXPmYe3qlXI8/uph/LhkHDh0BAmm/imAoihi0yuv470Ptsltkbf+eeStfx4VldVY/OQilFdW3ZzKujBD9RAqTe9MTE6BwRANc+pEuT4Tk1OQt+7nmPbQ1KDrQ5rqp/TI3Nlob+/w+QMzvrjcbuSt+7lqGvWbhVvxWHYO7F986bPuRo0aiY35BbDW2uTpkRLpu25SewwZ0l//pTvL/MZhTp0IgyFabov29g48/dRSv8dvsdaivLIKi59cJJ8jq55dJyeUvs4l6fuwKeY0ZD3+REj9Wasf+6Oc5iodZyDKPplfsAnLluT6TWAFQcBz6/Pkvqf8cRet/qDX6bBm1Uq5T561WOX69jzPPH94yR9ffVKLFJv0Azzrf/GC/N3aQP1BinvVs+vws7WrMUQQ0NHxNYD+OvYcSfV3rVbWt3Q9lY7X3zVKr9dhkjkVKeY0lFdWeb2M8RTo+kBERDQYfe/69evXwx0EBUd6APT88RotFmstPqs5o3pwcrnd2PnRLjz91FLNhzqns7H/R1GeXT3oRlm+SYHqwbN+RVHEW28XI/vxR1VJRUVlNYzGmG/lg6HL7cbmLYV4bn2e6rta23aU4uHp025pxDucQj2XKHxCvR4VFZfgwbTJd+x8u9PlExERfZt8K6a5Eg0m0p9FKK+oCjg6RkRERET0XcWRSSIiIiIiIgoZRyaJiIiIiIgoZEwmiYiIiIiIKGRMJomIiIiIiChkTCaJiIiIiIgoZEwmiYiIiIiIKGRMJomIiIiIiChkTCaJiIiIiIgoZEwmiYiIiIiIKGRMJu8gURTx2hub4XQ2hjsUopAUFZfAYq0NdxgqFZXVqKisDncYRERERHRD2JPJQ0dPIW/Dy8jb8DJKd32sWle662N53ed2R5giDMzldiN36XKkL8hSJY6CICD78UfxVlExXG63ahtRFLExvwBxCUmIS0hC7tLlXp8hCgcpYTOnTgxzJGqPzJ2NsxbroEtyiYiIiP5RhTWZvNJ1FV+1f43XX/oFXnrhZ2i61CInjYeOngIAFL7+73jphZ/h4JGT+GtzazjD9cnpbMS/F2zCi/kbkRBv8lpvMo3BrIdnYOdHu7zWRUVF4djh/bBZamCMifkmwiXyy+lsxNHjJ7D4yUXhDsWLIAhYtiQXpTvL+OKFiIiIaBAIazI5fNhQ5C56FEJEBIYPG4q40UYAgNjXh6ZLLZjx0GQAgPtKF1xXrqDufxrCGa5PJtMYbC3cAr1ep/mZ6dMfQnt7R9APwBWV1fKI5cb8AoiiCODmCKi0ThoJdbnd2JhfIJdfVFwijy4ppyt6Trv1HB1Vjvh47ktap5xqaLHWqtZJ/1aOtEr7kI5DKjfQdMWKymrVSG9RcYlchr+4PddVVFZ7HYtynb9jdTobkb4gK6RtfK0rKi7RjE061qLiElX7WKy18vEq61XZH5Rtq+wD/vqDsv2czkasyVuv6pfnztsx6+EZ0OvU/dlXn/RVP/7qT9nmRcUlPpd7rvMcsTeZxuDehHg0NDj99h8iIiIiuvPCPs1VIo1S6oYPQ1/f3yGKfdANH4bP7Q78rmwvUsbfH+7g/1svAAAgAElEQVQQB2yIIACA6gG4VxTR3d0N/Qi96rMWay3OWqyos9vQVO/AJHMq3v9wu7zeGBMDm6UGTfUOHKguh8k0xmv7Nwu3BhXX+x9uR1ZmBprqHbBZalC6swxOZyNEUcTmLYVYs2olmuodaKp3eE15dDobUbqzDDZLDcypE1X/bqp3YM2qldi8pRCiKCIqKgpXurrQ1nYZDQ1ODB06FJeamwPGF28ag3Pn7XC53Whv70DX1avoFUXNuKVjmmROlePOXLgAep0Opds/QFO9A+vy1mDvnjJ5neexepY3beoUuS0Kt/waAAJu4+p0IXHsWNTZbdi7p0xV31JsdXabPGUzc+ECAMBZS38S1ulyobyiCs+tz0Nb22Uc+csxzf4QiFZ/EEUR23aUoqurS7XMUXcB48cle5Xhq0+aTGNwoLocdXYbVixfhmOH93v1Fan+pLoD+hPT0bGxXvUgxdDTc83viP3o2Fh8VnMm6DogIiIiojtjUCSTYl8ffle2Fw+Mvw8/jL358Pjf57/EidNn8Iuf/RS64cPCGOGtEQQBBkO0apmr04Wuq1e9PtvS0opJ5lQINxLQ8eOS0dNzTR6N8sflcqN0ZxlWLF/mVabXZ91uWGtteCw7B3EJSUgxp6H+RrLb1nYZUVFRSL7/Pp/7yVv/PF761at4uSBfHsHqdLlwb0K8/O/4G1N+3e4r6O7uRsoDE/Cf/3UWR/5yDFPSJgc8lkvNzZiSNhmOugs4ePAwTKYxGDZ0KK64r2jGLSWd06c/FLB8Se+NepXi1et0uDchHp0u123dRkqSpERNEARMMqfKbbP4yUX4cPsOvPfBNjyWnYOszAzodTqcO2/Hex9sQ2JyCuISkpC3/nlVucp6aGlVt7NWfwCAg4eOAEBQ06sH2ic7XS50d3d71cNZixV5659HXEISEpNTULZ7T8AYlIxGTgknIiIiGgz+KdwBiH19eG/7LuiGD8PcWdMAABER/wwA+O9zX2LF0kUQIiLwVfvX+IHhnnCGOmBSIjFCf3MUstPlwrChQzFEEOTk5FYdP3ESsx6eoVq2+MlFyFv3czkJSUpKRPbjjwK4OcrpOaUx0K/Pvvarl2D/4kucPHlaHlULZML4ccgv2ISJD0yA0WjE1//7vwG3MRqNsH/xJX5fthubCvLluLTiHizfo+t0uRAZeZecfAXD1emCMSYGOU9kIyoqCi0trfIIX+GWX2vW8949ZTCnToTL7cbmLYWqdb76AwD8rbMTTmcjli39CbZt/10IRxaalpZWGAzRXvUgfVfYc1Qd0B6x9yx3dGzsbY+XiIiIiEIT9pHJPR/vg274MOQuelReJkREIPFH8Uj8UTyEiAj8tbkVjX9tRuKP4sMY6cD5ekD+rOaMarRHYjTG4KzFKo/67Nt/IKjEpKW1FU5nIx6ZO1u1XDnFs85uw7SpU+TlBkM0Tp487VWWfoQedRcuwP7Flz73NWTIEDy3Pg/llVXy9MQRej0u1jfICZ1UrjQqm3z/fUifOxtZmRmIGTUy4MhWZGQkYkaNRFZmBtLnzkby/fchKioK//d//6cZtzSd2Nc6LZ5TkPu/r2hTJf6hbvNZzRk86DH6KggCIiPvwrnzdgD9iW95ZZU8yrZv/wE8MncOoqKiMPvHM3H0+Ak4nY0YPy4ZR4+fCDlR1uoPALDpldf7Rz49vucrCAKSEsfKMUoG0ielKbPz56X73Me+/Qd8btfQ4ITBEO31okDpUnMzRyeJiIiIBoGwJpOf2x2wnfsCtnNfyH8C5O13d0Ds68P0qf8Pdf/TgLwNL+Otd7Yha8Fc1RTYwUL6sZUUcxqq9+3HzDnzVD+SAvQnN8oH5IrKalhrbT6nY5pTJ8JgiJanNba3d+Dpp5YGFUtWZkZIo2GLn1yE8soqrx9W0et0ePGXLyC/YJPPH5gBoPpMRWW1/Ku1KeY0xCUkobyy/zt/165dQ0/PNQDA2tXPBPXnJkRRREfH13J9rF39TFBxC4IgJ7laP+7iSfqFUOlYZ86Zh7WrV/ocNQu0zahRI7ExvwDWWps8BVYr7hRzGrIWZsCcOlGOcZK5v25G6PXIXZyDbTtKMWrUSFW9+moLLVr9IeeJbM0pzL6S11D7pCiK2PTK63jvg22YOWeePD03b/3zqKisxiNzZ6O9vcPrR3YqKqvxWHaOVyKu5HQ24mJ9g8/6JSIiIqJv1veuX79+PdxBfJc5nY14q6hY9f1CosGsorIal5qbvZL4YImiiLfeLkb244+qkvKKymoYjTED/vuVUpKalZkx6P4GJhEREdE/orBPc/0uE0URe/70MX62djUTSfrWkL6fGewI6Dfl4KEjmGROZSJJRERENEhwZJKIiIiIiIhCxpFJIiIiIiIiChmTSSIiIiIiIgoZk0kiIiIiIiIKGZNJIiIiIiIiChmTSSIiIiIiIgoZk0kiIiIiIiIKGZNJIiIiIiIiChmTSSIiIiIiIgoZk8k7SBRFvPbGZjidjeEOhSgkRcUlsFhrwx1GUFxuNzbmF8Dldoc7FCIiIqJ/KGFPJg8dPYW8DS8jb8PLKN31sc91nssHG4u1FnEJSYhLSMLG/AKIoggAEAQB2Y8/ireKin0+6DLZpMGoorIaAGBOnRjmSIKj1+mQlZmBzVsK5XOPiIiIiO68sCaTV7qu4qv2r/H6S7/ASy/8DE2XWvC53QEAcgKZPntGOEMMSBRFfFZzBjZLDersNgDAwUNH5PUm0xjMengGdn60S7WdxVqLxOQUvPfBNsycMw9FxSXfaNxEvjidjTh6/AQWP7ko3KGExJw6EQZDtOrcIyIiIqI7K6zJ5PBhQ5G76FEIEREYPmwo4kYb5XW5ix7F3FnTwhhdcARBwNrVz0Cv00EQBEwyp3p9Zvr0h9De3iGPTjqdjSjdWYaa08exYvky7K/6M9rbO1BRWQ2nsxGvvbEZoihCFEVszC+QpxsWFZfII6BxCUlyAuo5za+ouEQeXVJOV/QcCZXKl8pTTmt0ud3IXbrca11FZbVctjQiK61TjtDmLl0Ol9st70MasZXKlcrQUlFZjfQFWXKsRcUlchn+4vZcV1FZ7XUsynX+jtXpbET6gqyQtvG1TmonX7FJx1pUXKJqH4u1Vj5erZFvZdsq+4C//qBsP6ezEWvy1qtGzc+dt2PWwzOg1+nkZco+KR2bsu/5qgeX242i4hK89sZmxCUkqdqyorJaVafSOs94PPu/vzoHgPnz0uGou8DRSSIiIqJvSNinuUqkUUrd8GHhDmXARFHEWYsVRmOMavkQQQAANDQ4AQCdLhfuTYiHXt//wC4IArIyM3CpuVm13cFDR1C2e4/877Wrn0FTvQNN9Q7YLDWqBFVisdbizcKtQcX7/ofbkZWZIZdXurMMTmcjRFHE5i2FWLNqpbw/zymPUkJss9TAnDpR9e+megfWrFopTzuMiorCla4utLVdRkODE0OHDvU6Vl/iTWNw7rwdLrcb7e0d6Lp6Fb2iqBm3dEyTzKly3JkLF0Cv06F0+wdoqndgXd4a7N1TJq/zPFbP8qZNnYI6uw1N9Q4Ubvk1AATcxtXpQuLYsaiz27B3T5mqvqXY6uw2nLVYYbHWInPhAgDAWUt/ctTpcqG8ogrPrc9DW9tlHPnLMTmGSeZUvP/h9qDaF9DuD6IoYtuOUnR1damWOeouYPy4ZJ9l9SqOe+3qZwLWg7XWhqTEsWiqd2BTQT627SiVE73CLb+W62Ha1CkA+kfx702Il8+TtrbLiIqKQvL99wXVJ/Uj9Gi7fBltbZeDrh8iIiIiGrhBkUyKfX34XdlePDD+PvwwNibwBoPU+x9uh8EQ7fWQKwgCDIbokMqSphvmPJEtL1OOzCxavATLluSqRpBcLjdKd5ZhxfJlqrJaWlq9yne53bDW2vBYdg7iEpKQYk5DvY+HeF/y1j+Pl371Kl4uyJf3LyfIN/4dH28CALjdV9Dd3Y2UBybgP//rLI785RimpE0OePyXmpsxJW0yHHUXcPDgYZhMYzBs6FBccV/RjFtKOqdPfyhg+ZLeG8mNFK9ep8O9CfHodLlu6zaiKKKn55qcqEmj2FLbLH5yET7cvgPvfbANj2XnICszA3qdDufO2/HeB9uQmJyCuIQk5K1/XlWush5aWtXtrNUfgJtTsY0xwZ1vpz75FCnmNGRlZsj9O1A9GGNi5LaQPtMbYNTwwbTJ+KzmDID+UdLZP54JQRAC9kmg/6XNqJEjgzoeIiIiIrp1YU8mxb4+vLd9F3TDh30rprVqKSouQXt7B55+aqnXOimRGKHXAwBG6PW4WN8Al+vmdL7yiio8qEiyKqv/A7mLc1RJqHKEbdfOHXirqFj14z3HT5zErIdnIClxrLxs8ZOLUF5ZhbiEJCQmp+DUJ5/K64wxMfJIYlO9Aweqy2EyjQl4rK/96iUYY2Jw8uTpoOtnwvhx+H3ZbnR3d8NoNAbeAIDRaER3dzd+X7YbE8aPu+W4vymdLhciI++CcGNEOhiuTheMMTHIeSIbK5YvU70AkEbxpP/Wrn5GXieNstosNV6Joa/+AAB/6+zEWYsVy5b+JOj4pk2dgtd+9RLKK6oGNI3U1elC19WrAT8nJYuXL3+F3t5ev8mjp15RRHd3N/Qj9CHHR0REREShC3syuefjfdANH4bcRY+GO5QBq6isRnt7B/I3bvCZQHg+5Eo/ypP20MN474NtmJfxr5hkTpVHfE598ikiI+8K+GuaXV1d8ihQS2srnM5GPDJ3tuozygRUOaVQr9PBYIj2mRDqR+hRd+EC7F986XO/Q4YMwXPr81BeWSV/b01OkG9Mu5XKlUZlk++/D+lzZyMrMwMxo0aip+ea36QkMjISMaNGIiszA+lzZyP5/vsQFRWF//u//9OMW5pOHEqS6zkFuf/7ijY58R/INp/VnFG9GAD66yEy8i6cO28H0D+KWl5ZJU+J3rf/AB6ZOwdRUVGY/eOZOHr8BJzORowfl4yjx0+E/GcvtPoDAGx65fX+kU+9TrVcEAQkJY6VY/SUlZkBgyFanmYbSt2dO29XjVxrEQQBo2NjceLkKXz/7u/L51OgPgn0J6xRUVFyXERERER0Z4U1mfzc7oDt3BewnftC/vMgb7+7A2Jfn/xnQQ4cOSGvl37pdTBxOhvx3ofbUbZ7jzwVUfrxGcnJk6dhMESrHqQzFy5And2GFcuX4djh/fL35gDgnrvvxvx56V77Uv4AT4o5DakTU1QJZ1ZmRkijYcpRS+WPu+h1Orz4yxeQX7BJ88dOlJ+pqKyWE+QUcxriEpJQXtn/nb9r166hp+cagP7vfAbz5yZEUURHx9cA+n+lUzkS5y9uQRDkJNfzR260CIKAZUty5WOdOWce1q5e6XekU2ubUaNGYmN+Aay1Nnlap1bcKeY0ZC3snzIqxTjJ3F83I/R65C7OwbYdpRg1aqSqXn21hRat/pDzRLbmiF+g5PXpp5aivb0DG/MLAMBv3bW0tspxn7VYfY7aa8Vw4NARJJhu1mEwfXLf/gNIShwb0jlARERERAP3vevXr18PdxDfZU5nI94qKlZ9v5BoMKuorMal5mavJD4ULrcbm7cU4rn1eSH3e4u1Fp/VnAlp/xZrLcorqjRnBxARERHR7Rf2aa7fZaIoYs+fPsbP1q5mIknfGtIoebAjoLeL9CdQyiuqgh7FBG5MGb7x67dMJImIiIi+ORyZJCIiIiIiopBxZJKIiIiIiIhCxmSSiIiIiIiIQsZkkoiIiIiIiELGZJKIiIiIiIhCxmSSiIiIiIiIQsZkkoiIiIiIiELGZJKIiIiIiIhCxmSSiIiIiIiIQsZk8g4SRRGvvbEZTmdjuEMhIqJBxOlsxGtvbIYoiuEO5TvN5XZjY34BXG635me+K23BZw4iCoewJ5OHjp5C3oaXkbfhZZTu+lheLvb14e13d8jrPrc7whilNlEUsTG/AHEJSYhLSMLG/AL5hiQIArIffxRvFRX7vJFVVFbL26UvyOINgIi+9SzWWp/XQ7rJ5XbjraJiZD/+KARBCHc432l6nQ5ZmRnYvKXQZ1/01RbKe3NcQhJyly6Hy+1W9e24hCQUFZd804fjV6BnDiKiO+F7169fvx6unV/puoqKfYeR/eh89PX9HYUl25E5fw4mJCfhc7sDX7V/jbmzpuFzuwMV+w4j75mlGD5saLjCDUpRcQlGx8Yic+ECeVlFZTUuNTdj7epnVMvKK6tQ+OZvoNfpwhEqEdFtZbHWoryiCvkbNzBJ8sPXfYLuLK0611ouiiI2vfI6sjIzYE6dCKC/f39Wc0a+l0vJpPLePhj4euYgIrpTwjoyOXzYUOQuehRCRASGDxuKuNFGed2E5CTMnTUNABA32gjd8GHhCjNooiiivb0DRmOMavn06Q+hvb1DflMoiiLOWqxYs2qlz0RS+VZUerPvcruRu3S56q1oXEISKiqr4XK7UVRcgtfe2Kwa5XS53ViTt1414llUXIKKymo5Dl+jqp5Tfioqq+VtlP/vdDZiTd56uNxu1VQiqVzlqERRcYkq5ltRVFwCi7UWgPcUJuV+pLfJoZRXUVmtGiX21RZOZyPSF2R5tYVUhvLttTKGispq7P7DH+VtlW+1PdtXK56i4pKAoz2e8Sm391ynbAutenA6G+X9eh6TZx9Stotnf1Uer9aovFZ5/vqkVt1p8Xcu+Ws/f5R1Z7HWqtrIc39SPWidS/4o60GqK2m//s4Lf8c0kHPT13kBAJ+fO4/k++9DYnKKV3mhnhcVldWqPuNZR56jRFp9T9mHQj0vfNWjFJO/ttDqx1KZ7e0dmD79Ia861eoPWn3IXwz++DtnfPUHrXtMoBg89xPsSLWv64Ova73ynPW8vnj25fnz0uGou6Dav1ZbBGv+vHRcrG8I+hrh2f+DPZ89p68Gus95PnMQEd1JYZ/mKrnSdRVftX/tM2lsutQCAIiI+OdvOqygSDfMxOQUGAzR8ltMyZAbb+gbGpwAgN4bN7P4eJNXWRZrLc5arKiz29BU78Akcyre/3A79DodSrd/gKZ6B9blrcHePWVoqnfIb1OttTYkJY5FU70DmwrysW1HKYYIAmY9PAPnztvlOD1vnFFRUTh2eD+OHd6PqKiooI9ZFEVs21GKrq4ur3Xvf7gdk8ypeGVTAQRBQEVlNUbHxqKp3oE6uw1nLdagHngGYu3qZ9BU70BTvQNrVq3Ezo92Bb2tVPflf9oNk2mMZluYTGNwoLocdXYbVixfhmOH96Op3gFz6kQ4nY0o3VkGm6VGjkE5verg4SPYtXMH6uw2tLd3wGKthSiK2LylEGtWrURTvQM2Sw1Kd5bJDw7xpjE4d94ut1/X1atyH/JFik+qhxVPLZX7gHJdnd0GR90Fr+nVnvUAAAcOHUFWZgaa6h3IWpgh1+v7H26Xl3vGbYyJketh754y1T4uNTdj754y1NltmDZ1irzcX3m+BKo7X/ydS4HaLxCX242t77yrXtbpQuLYsaiz27zqQToGrXPJn4OHjqBs956An/N3TAM5N7XOC+lFi/2LL1Fnt8FmqcHR4yfkFxKhnheeD8Tnztsx6+EZqhdw6/LWyO0o1aW//jBt6hQ57lDPi1Dawl8/bmhwwmCI1pyR4qs/BOpDvmLQ4llH0rULgN/+4Ose43leeMZw8uRpZC3sr4dQ7jFa1weJxVqLNwu3BlWWRD9Cj7bLl9HWdlleFqgtgikT6G8ff0RRRE/PNRw7vB82Sw2MMTFenwm2/YDA9znPZw4iojtpUCSTYl8ffle2Fw+Mvw8/jFVfZP/a3Iry6kPInD8HQkREmCL0T/lwCsDrexSCIMBgiJb/7ep0oevqVZ9ltbS0YpI5VZ4iNn5cMnp6rgV8mDXGxMhJopSk9ooixo9Llt/GNjQ4McmcKt84e0URbZcv+yzv1CefyqMLeeuf91p/8NAReb9y7K2tSDGnqaYMSaOweeufR1xCEhKTU4K+YfrzWHYO4hKSkGJOQ0trq7xc+Ub7seyckMrznJ43kLbodLlwb0K8XMfKtgCArIUZ0Ot0EAQBk8ypaGlp9Xq5oNfpcG9CPDpdLlxqbsaUtMlw1F3AwYOHYTKNwbChgad6K+vhUnOz3B7KkYLE5BSc+uTTgPUA9D+EJ99/n6oevvqqHdZam6ot6m/h4cXldvstz1ef9Fd3AxGo/QLZ+dEuJI4dG9KLGV/nUiBOZyOOHj+BnCeyVct9nRdax+S+cmVA56a/8yIqKgrLluRCEARVWwzkvNDrdDAYotHQ4IQoirjU3Kx6EdbS0gpPgfqDsg+dtVjxyNzZAPyfF9J1Teua4tkWgfpxILezP/jS1nYZUVFR8vksCXSt1rrHDCSGW+FyuVG6swwrli8LabshgoBRI0feoahuTah1F+g+5/nMQUR0J4U9mRT7+vDe9l3QDR8mT2uV/LW5Fe9u+whZC+Z6JZmD1YNpk9He3qFKOKS3kiP0/W8xg32bOVDKZNVkGoPo6HvQ1nYZ9fUNqocxaf9SPErKN/iFW36tWve3zk6ctVixbOlPVMuNMTF4/7fFKK+sUk2vkUY/pTepyjfhAyWNJinf8jqdjfhzRZW8L603+L68/9titLS2wv7Fl7cUVyguNTcH9Tmj0Yju7m78vmw3JowfF9Q2mQsXyHU9OjZWfsGx86NdSJ2YIo88eL71D6YeOl0udHd398emGH1sqnfgQHW5PJqpxfN8UB2rn/L89cnB4OLFevT0XMPCBf+iWt7pciEy8i6f3yHUOpcCqaz+D+QuzvF6YPR1XvhzJ87NW6U8L+bPS8fn586jre0yEhPHqkaQLjU3Y3RsbEhlK/tQVmYGNr3yOkRR9Hte+BthB3y3xUDOC0C7P/jrQ1oxDESw/cHXC1FfMWQuXIBLzc2IS0jCzDnz5OuGP/6uDwBw/MRJzHp4BpISx4Z0bL2iiO7ubp/3u4Hydw8NZd+htF8w97lAdUhEdDuFPZnc8/E+6IYPQ+6iR1XLr3Rdxe/K9uKJxzIwITkpTNGF7rOaM6q39oD3jUR6W+5rmpDRGIOzFqu8fN/+A34fInw5d96uGgWYMH4cjp88Je9b+TnPaWPBkH6UQK/33m6SORVZC2/+cp4gCEhKHIt9+w9olid9X+lWv0sJAMOHD4N+hB6iKKK8oiro7Ubo9Xjxly+gqPjdm9M0B9AWI/R61XdoTp48DeDmtCOJy+3GxfoGjB+X7DUlyelshMVqwwi9HpGRkYgZNRJZmRlInzsbyfffh6ioqJBfRChfcEgP4PYvvvQamfRVD56kPv6DHxhgMETLxxgsaZrZqFHqUQJpJCqU8vzV3UAE236+/L5st89f5/ys5gweTJvscxt/55KWU598isjIu4JO+rSOSTd8eMBz0xet80Kn0yEy8i65POf/Z+/uo6K47/2Bv3tOz3USEHdtwlYBiwupkKAJgufGaDTRqwarCNfkcCLx0PgQa6KGaJrYGBoMTWNSTQgSUxMfSg1aGnMB8foYH/NgWnbZq64uXmGhAiaYW3ZF0CF//Pz9Qeab2WVmHxCzat+vczwJszszn/k+zXzn+51ZZwPO1tUjLs7cq3oBdJeRzs5O/O3v1Yg3mz2+p/Ws27WUB1/1Qo9WXvgrx3FxZt3n2fTKg68yFGx5MA40ovbMmR43jAJpqxXe5xi9GJQ2PZhprnrtA9A9Sux0NogR5WC42lwIDw/3KHO+8sIfZTpyIOdQX9Npg80/wP957np0nImI9IS0M3nc7oDtxCnYTpwSPwHyznubIXd1oWLnPrjcF7H5w4/EZ3sPHA1luJq8XzCg9Va4I0c+7XEiWbLoaZhMkWLKlfKSgdSUkR7LW1sv4Kl5c/zGoZ6KVW2xeqwTF2fG0U8/Q3x8nFhWUVmF3GUviClNEyZPxfoPNqLgtVXo+vZbn/vKfjyrxxQptYwZ02EyRWLB04vhcrvxyJRJaG29oPvCAONAIyLvvCPgkTo9ZvNQ3BUfh+TU0ch87HGfMeqtv2TRQkyYPBUWa02v8sJsHoqJDz8k8qK8cgeeX5YrOhhKeienjkbO7GyYzUMhSRLmPpmDvPwCkRdLFi3E4MGDcOHCNwCA1JSRAb+Zz/tlIus3bBJTD6dNTcP6DZsQG5+I/Z8c1HweyTsdAM/pgQBEGZ/9xCyUV+4I+AUbFmsNJkyeisSEYZqd8mC3p5d2gYwCafGXf76kTZnksV/lhRrWGpvm89GA/7qk5c477sC0qWkBf9/XMfmrm1p81YvZT8yCtcaG2PhEPPPsUjy3ZBGMBkOv6gXQnb9DYmJgP3VadC5cbjdyl/4apdvKxPbeKlyLR7OyYT912md5UJfjvPyCoOpFMHnhqxz76mx6l4euri6/ZSjY8mA0GPDKyy+JNFK/gMdXefB1jtGKweV248Chw0HF5q99AIDMjHTNz94qXCvizl32AtZv2ORxQ2znrt09tquXFxWVVWKa76NZ2R7poOwnISkZo1JT/L6Rt6KyCo9mZeveDPCVf8pU6YSkZKz/YCM2bi7B4MGD/J7ntK45iIium6t0XdXXO68uenbp1TaX67rto83luvrSy6/o7qO+3nn196v+cPXKlStiWXnFjqvlFTt6fG/Dpj9dtzj1XLly5epLL7/SI55bjVaa3wy0yg9RX/FXL95Z++7VaotV/K3X3m3Y9Ker9fXO6xZnX2pzua4uenbpTRWvr3PMjebKlStXf7/qDyJ9qy3Wqy+9/IpmG3az5EWg7fAPcc1BRKQW8mmutzJZllH20cfi7vwPTRmhWvm73+NXC+bdkL/7ZrHWBHyHl4j+dSg/fzAkJibkz3H2NaPBgOeWLELZRx8H/KZg6h2X243yCv0ZBrdSXoT6moOI/jX96OrVq1dDHQQRERERERHdXDgySUREREREREFjZ5KIiIiIiIiCxs4kERERERERBY2dSSIiIiIiIgoaO5NEREREREQUNHYmiYiIiIiIKGjsTBIREREREVHQ2DaUwecAACAASURBVJkkIiIiIiKioLEzeR3JsozX31gNp7Mh1KEQERERERH1qZB3JvceOIrc5a8id/mrKNn6sVh+3O4Qy3OXv4rjdkcIo/RPlmWsyMtHzpz5cLndAABJkpD12Ey8XVQslgGAy+3Girx8sczldmNx7jJ2Ool+QE5nA9KmZyI2PtGj3hIRERFRYH4cyp1fbL+Er1u/waqVL6Kr61sUrtuE43YH7k1KxL1JiShc9VsAwD+aWvCX7VWIHRKNARH9Qxmyrj179wMAoqOiPJabzUMx8eGHsOXDrViy6GnNdY8c+RR19c7rHiMRdXM6G/B2UTG2btkMo8EQ6nCIiIiIbkohHZkcENEfObNmQurXDwMi+iN2SLTm99wX2yFJ/dCv37/9wBEGxulswIFDhzF3zi81Px8//kG0tl7QHPlwud1w1J7ByPvu9ViWM2c+YuMTERufCIu1pscy5V9FZRUAwGKtEcvUoywVlVXY9pe/ihGYouJ1Yj9FxetgsdaI9Vfk5UOWZTidDXj9jdWQZVmMuCrf06MVn7IvXzFoHauSpsr3Y+MTkTY9U4zcKjF5r6O1npI+yvHqLVe2oR41VqeDchwVlVU9lqs/s1hrPGKtqKwKaNRr4+YSbPvLXzXjU+etkkdKuilpqRy3Oj/1yoOybfU0bO90U6ftD5kOyne9j1cvb53OBizOXSa2q5SNL459KcqtOs6i4nWoqKzCiZN2PHD/v2PW7Cd7lEkiIiIiCkzIp7kqlFFKw4AIsUyZArtt+w5kTJsMqV+/EEaoTZZlbNxcgpzZ2TAatUc4bpMkAEC9xujjlg+3YuyYBxAeHi62t3pNIRY/sxCNdQ401jmQmjISRoMBJZs+QGOdA0tzF2N7WSka6xzImDEdTmcDSraUwmY5hsY6BxY/sxCr1xSKi/A9+/Zj65bNqLXb0Np6oUfH0OV2Y+2772nGvmfvfpRuKwsoLaKjokQM28tKPbejEYP3sdosx1CypVR0QMaNHYNauw2NdQ4smDcHJ07aAQDvb9iEzIx0zXXU6xWueVMsq6iswpCYGDTWOVBrt6HaYvXbQe6N1JSRKMjPw85du+Fyu1FtsaLwrT/4Hf3q7OyE/dRp1NptsFmO4cChw6KTt/+TgyIdRqWm4P0NmwB0p/fZunq43G6cOGlHnHkomptb/JYHLWbzUOyuKket3YYF8+fi4L5douz9kOlgsdag2mIVx/taQT6k7+pPm8uFtCmT0FjnEHlrNg/FXfFxom6dP/8VwsPDMTL5Pjy/LBflFTvQ5nIBAKot3fmdMWM6zjU1+a0XREREROTbDdGZlLu68KfS7bhvxN34Wcz300SnTByHwlW/xcK5T2Dzhx/hH00tIYxS2569+2EyRfq86JYkCSZTZI/l9fVOdHZeRlLS3WKZcjGcdM/dPb6vp83lwl3xceJCPS7ODAC48l3nIXNGOowGAyRJwqjUFDQ3e6bjlg+3ImHYMNGhVSgjrtmPZwUcix6tGJT4lHiNBgPuio8TF/9HP/scCUnJiI1PRLXFikemTILL7Ya1xoZHs7IRG5+I5NTRHlOE21wudHR0eOxblmVUW6zIXfYCYuMTkZCU3KODrN5ec8v36aOOIXfZC5rLvTshSllITh2NzIz0gKdRZmakQ5Ikj3Q4cdKO9R9s7BGDq82F8PBwDB40CNUWK6otViR/N7rtrzyo0+HoZ58HFNsPlQ5fHPtSpEOgHhh9P7449iUA4MRJOyb9xwSRjpkZ6Xg0KxvrP9iIDZs2Y/YTs8R6i59Z6LNeEBEREZFvIe9Myl1dWL9pKwwDIjBl4jjN75gi74DRMADui+0/cHS+KZ2UtwrXio5I6bYyJKeO9riwlmUZnZ2XMdBo9Fi/vGIHJv3HBDFy+UM419Tk8ffZs3Xo7LyMGdN/0eO7lVX/jZzZ2Zod4b6MQY96ZDIzIx0Fr61Cl9zlMQLaWOfA7qpymM1DAQDNzS0wmSJ7dEbCw8PFaJt6xFehjPTaLMc8nntVx6Ae6VSWby8rRXnFDly5csVjf2FhYVgwf27QaQN0l5fW1gvi78I1b3rErX72duyYB/DUrxbBZIrETwYODGj7yvZq7TaMGzsmoHVCkQ7emptbMCQmpsdy5cbLV199jStXrnjciGlubsGC+XOR/XgWoqOi4Gpz9UksRERERHQDdCbLPt4Jw4AI5Myaqfud1gv/B1nu0n2mMlQkScJrBfniIt9mOYbsx7Ngsxzz6KhckWV0dHTAOPD7zqQy+uU9AmkcaETtmTOwnzodcBwDjUYx3RHofqEPgB6dVJfbjbN19RgxPEks+3PpNmQ9NrNH5+voZ58jLOz2Xk9z1KOOwXv6r9PZAIvV1qPTrWYwDIDJFCmOUU2WZThqz2Da1DSP5ZIkITFhGHbu2t2HR6KvorIKnZ2d+NWCeT2m4Abi/Pmv0H7pEuLizBgxPAkHDh3WfNYwMvJOjEodiQXz52La1DRER0fhXFNTwOXheutNOgyJiUF5xY4eU3KVvFWXXYUkSRgSE4PDR47iJ3f8RJRlZXrtpP+YgPDwcDwyZTI2bi6BLMse+3G53Thw6LDmtomIiIhIX0jf5nrc7oDtxCkAEP8d+rMYLJgzC0c++xt27z8MADAaBiD36Tk37Jtc/Tly5FOYTJEe0/wiIiIw98kcSJLkceFsNBjwyssv4Zlnl8LhqAXQPWrmq1OnvDE2OXU0AGD8uLEofOsP4qI6d9kLYmri9rJSMYoHAGlTJsFsHtrjQv/OO+7o0Sm7FnoxzH0yp8exKvEc/exzrP9gIwAgMTEB777zFiRJwuwnZiF36a/F9rIfz8Kvl+XiD2sKUbqtTKyj9siUSSh4bRVi4xM90qi3b/JUYlPiUp7ntFhrUF65Q2w7Z3Y2nnl2Kd595y2PdNfyaFa2x7EaDQYYDQaPvFXSCOh+zlKSJPzmxecBAG3W7lE3f+WhL/V1OijPMyYkJQPoztvFzyzEiy+9jOioKAwePEhzvRHDk5Bf8Hvk570E4PtnjzMz0sXNiVGpI2H7n//Bnr378ciUSai2WMV+vOsFEREREfn3o6tXr14NdRC3MuUnCF7NzwvJTxAob+7MmDH9B9/3DxmDLMt4+51iZD0206NTUFFZhejoqD4fYe1rRcXr8MDo+2/4OG9UFmsNvjj2pe7P7xARERFR3wv5NNdbmSzLKPvoYzy3ZBF/y47oOlB+AqW8Ygeemjcn1OEQERER/UvhyCQREREREREFjSOTREREREREFDR2JomIiIiIiCho7EwSERERERFR0NiZJCIiIiIioqCxM0lERERERERBY2eSiIiIiIiIgsbOJBEREREREQWNnUkiIiIiIiIKGjuTREREREREFLQfhzqAvQeOYvf+wwCA5BH3IGfWTI/Pj9sd2PzhR0ib9BCmTBwXihCJiIiIiIjIS0hHJi+2X8LXrd9g1coXsfKl59B4rhnH7Q6Pz/fsP4LEYfEhjJKIiIiIiIi8hXRkckBEfzESKfXrh9gh0R6fV+zch/tG3B2K0IiIiIiIiMiHG+aZSWWU0jAgAkD39Fb3xXaMH/vvIY6MiIiIiIiIvN0QnUm5qwt/Kt2O+0bcjZ/FRInprRnTJkPq1y/U4REREREREZGXH129evVqKAOQu7qwftNWGAZEiCmvykt3vA39WQwWzJnFDiYREREREVGIhbwzWbL1YwDo8RZXtb0HjgIA3+ZKRERERER0gwjpC3iO2x2wnTgFAOK/HH0kIiIiIiK68YV8ZJKIiIiIiIhuPjfEC3iIiIiIiIjo5sLOJBEREREREQWNnUkiIiIiIiIKGjuTREREREREFDR2JomIiIiIiCho7EwSERERERFR0NiZJCIiIiIioqCxM0lERERERERBY2eSiIiIiIiIgsbOJBEREREREQWNnUki6jWnswGvv7EasiyjorIKFmtNqEMiIiIioh9IyDuTew8cRe7yV5G7/FWUbP1YLD9ud4jluctfxTvvbYbc1RXCSPVZrDWIjU9EbHwicubMh8vtFp85nQ1Im56p+dnN6lY8Juods3kowsJuR0JSMsordyAuzhzqkIiIiIjoB/Kjq1evXg3Vzi+2X0LFzn3ImjkNXV3fonDdJmRMm4x7kxJx3O7A/5w4jZxZM0MVXkCczgbkF/we+XkvwWweiorKKlRbrMhbsRznz3+Ft4uK8Wp+HowGQ6hD7RNOZ8Mtd0xERERERBS8kI5MDojoj5xZMyH164cBEf0ROyQ6lOH0yomTdvxnRjrM5qEAgEemTEJ4eDjOn/8KJ07a8cD9/45Zs59EbHwiiorXAejukG3cXAKX240Veflwud0oKl4Hi7XGY9qgLMtYkZfvMXWwqHidGAWtqKzyGZvL7UbOnPni+97rbdxcgm1/+avm9tSjrSvy8iHLsjherWPyXkc9YllRWeWxf/X21OvExieKY1Wng7INJT4lrZT1fW3PXxp5b6+isgpp0zPhdDb4XMdX2umN3KqXa8WmzltlPb3yoPy/1rFWVFZ55IvT2YDFuctEHFplSCkr6jKaNj3TI1208s9XXujxLg/q9PaVrnoxeKerknZKvXr9jdU99qOXF0r5UR+3sj3vslFUvE7E4Z0f3tN91dshIiIiulWEfJqr4mL7JXzd+g0MAyLEMtuJU2Ka63G7I4TR6TvX1ITo6CjxtyRJCAu7HW0uF841NWHPvv3YumUzau02tLZeCOqZsj1796N0W5n4u6KyCkNiYtBY50Ct3YZqi9Xn9owGA0o2fYDGOgeW5i7G9rJSNNY5kDFjOgCgs7MT9lOnUWu3wWY5hgOHDsPpbIDT2YD9nxxErd2GxjoHRqWm4P0Nm8Txah2T09mAki2lsFmOobHOgcXPLMTqNYXigr9wzZsibqWzDQCpKSPRWOdAY50DNssxlFfsCPiC2+V2Y+2774m/ZVnG/k8O4uC+XWisc6BwzZsBpzXQ3ZGotlhR/tE2cXNAj17audxubNxcgq1bNvdIB7N5KHZXlYt0cNSeER0TWZbR2XkZB/ftgs1yDNFRUT32qS4PkiThtYJ8kXYH9+2Co/YMZFnG+PEPorX1gkjHEyftmPjwQzAaDD7LUHRUFM7W1cPlduPESTvizEPR3Nwi0kWrPOjlhT/q8jBu7Bi/6eovhnFjx4jPSjZ9IEbNrTU2JCYMQ2OdAwX5edi4ucRvXkz7RRq+OPYlZFmGo/YM+vfvD1ebCwAQZx6KEyftcLndaG29gPZLl3BFlvH+hk3IzEgX5bhkS6nfGxJEREREN7sfhzoAAJC7uvCn0u24b8Td+FlM90X0vUmJKFz1WwDAP5pasPnDj2AYECE+v1ksfmahuLAdlZqC5uYWDDQa/a7ndDbgwKHDyH48C0B3Z6PaYkXptjLkLntBfC8zI/2a4svMSIckSZAkCXfFx6HN5UJzcwvWf7AR6z/YKL63NHexz2MCgLvi48Ry5dm5K991JnOXvSDiLlzzpuisOZ0NeObZpXA4agEA48eNFfs5+tnnHjF4dw63fLgVCcOGXdPxKx7Nykb241nIW7EckiQFtI5W2rW5XCjdVuZxE0DJQ5fbjdylv8aRo58BABITE5D1WGDTuL3Lg7JMSbvx48ai8K0/iHhMpkjU1zuRdM/dONfUhNlPzPJZhlxtLoSHhyM8PBzVFiuqLVYk33cvAKC5uQWjUlNEuowYniQ6roq+zAu9MukvBi3RUVEYP/5BAJ5l8oosa+ZFc3MLku+7F05nA45+9jkAIGrwYADdN1LGjL4fjtozuHLlCszmoXA6G3DRfRHWGhveKlwr9puYmOARR8aM6eImDhEREdGtIuQjk3JXF9Zv2grDgAhMmThO8zumyDsw6KeRP3BkgRkSEyM6U8D3I0yBdBh9qaz6b+TMzobJ9P1xh4eHi1E35V9qyshr2o9ClmW0tl4QfysjR8q/JYuevqbtq7d3rqkJFZVVkGUZGzeXYMG8OWJERz0ipx5t8u5Inj1bh87Oy5gx/RdimSRJ+NWCeVj5u98jNj7Ro8Pkz/t/LEZzSwvsp04HfWzeabc0d7FH2r1WkA9JkrDlw61IGZmsOSJ3RZbR0dEB40DtcqNVHtSja6+8/BJ+m18gRiOnTU3D8RMncf78V0hIGCY6+f7K0NgxD+CpXy2CyRSJnwwcGNDxa+VFX/BO12vlanOh/dIlAPCZFz8ZOBAmUySe+tUijB3zgMc2oqOj0dHRgT+XbsO9I4Z/vzwqSozKN9Y5sLuq3O/oNhEREdHNLuSdybKPd8IwIMLni3bOnHX2mAJ7oxgxPAkHDh0WF/F79u5HR0cHBg8ehCExMSiv2AFZluFyu3Hg0GGMGJ7kd5tHP/scYWG3e1zkS5KExIRh2Llr93U5jvPnv0L7pUuIizP3OCY1vWMaaDSKKZIAcOTIpwCA2wIY5VOmCR858imaW1r8fLvbn0u3IeuxmR6jiLIsY/WaQix+ZmHQ01wHGo145eWXUFT8XtDTE9VpFxdnxtm6et1tDImJAQDYT50WI18AUF/vhMkUqflSI63yoOXixXYxHXPw4EHo7OzE3/5ejXhz94icvzIUGXknRqWOxIL5czFtahqio6PENO5qi1WMAu7ctRthYbeLtNfKi76gTld/MQTixEm7x+i5Xl5ER0dh2tQ0LJg/F6NSR4pp62FhYYgaPAiZGelImzIJSffcjfDwcPy///f/YDJFijKvhc9MEhER0a0opJ3J43YHbCdOeTwbqfwEiPonQyp27kPu03MwIKJ/KMPVZDYPxcSHH0Jy6mjExieKN7lKkoRHpkwCACQkJSM5dTRyZmeL0Yrt/1WB5NTRKN1WhuTU0XircC3KK3ag69tvcecdd2Da1LQe+3pkyiS0tl7Q/RmS3ng0Kxux8Yl45tmleG7JIhgNhh7HpH6hiN4xea9TXrkDzy/LFRf7ucteENtqbb2AR6ZMgiRJyMxIFzH8s61N81lBLWlTJvUY+VFGFZPuubtXaWE2D8WSRQsxYfLUgJ5t1Uo7o8GAnNnZmDB5ao+Xu0ybmob1GzYhNj4R+z85KEbDKiqr8GhWNh4Yfb/mfrTKg/cLXyZMnurxIihJkjAkJgb2U6cxePAgsZ5eGWpzudDZ2QlJkvCbF5/3SNvUlJEwmSKRkJQs8u+peXPE51p5cS200tVfDHqaW1o86qayjl5enGtqAtBdFn7z4vOi/H777be4cOEbkR7eI/Wzn5iF8sodmi8IIiIiIrpVhfSnQeh7TmcDyj76GM89u6jPR3j0FBWvwwOj7++zqbL/Sm6GtLsZYvTWlzG73G6sXlOI55fl8mdsiIiIiK6DkE9zJaK+pfz0x5CYmJuqI0lERERENxeOTBIREREREVHQODJJREREREREQWNnkoiIiIiIiILGziQREREREREFjZ1JIiIiIiIiCho7k0RERERERBQ0diaJiIiIiIgoaOxMEhERERERUdDYmSQiIiIiIqKgsTN5HcmyjNffWA2nsyHUoRAREdENpqh4HSzWGrjcbhQVr4Msy6EOiYgoKCHvTO49cBS5y19F7vJXUbL1Y4/PLrZfwspV7yB3+atYueodXGy/FKIofXO53ciZMx9p0zM9Oo6SJCHrsZl4u6gYLrc7oG05nQ1Im56J2PhExMYnYkVePk8uREREt6BpU9OQl1+A5NTRGBITA0mSQh0SEVFQQtqZvNh+CV+3foNVK1/EypeeQ+O5Zhy3O8Rnf9xYil9mP4rCVb/FK8ufxYCI/qEMV5PT2YDf5hfglbwViI8z9/jcbB6KiQ8/hC0fbg14m+PGjkGt3YbGOgdMpkjs2bu/L0MmIiKiG4DZPBS7q8rRWOdAxozpoQ6HiChoIe1MDojoj5xZMyH164cBEf0ROyRafPZltQ33jbgbP4uJCmGE/pnNQ7G2cA2MRoPud8aPfxCtrRcCHp30Fh3dnQayLGNFXr4YtayorALQczRTGSFVvq+MbiojqMp6yt/KespUm8W5y+B0NsBirRHTblbk5cNirUFFZZVY33sar8VaI7aVM2e+x/FqfeYdtzoOp7MBr7+xOqhRWe/jiY1PRFHxOvF5UfG6HmkHABs3l2DbX/6q+Zk6bvUosTI1Sdnvirx8cbzBpoP3ciUNAjlW5fiUtFTWU6ftteYFAFRUVummg/r7esfkHYN6e+oR/d6USe964StflPRSl2OnswGLc5fp5oW6POhRl4eKyiqPY9JKB19101c51qsX6uVKnigxqNNaKz+06oUy5e71N1b3yCPv9A509oRe+6XHX33Wq5vB1mclLmXb3u1koPXZu+x5l2OtslFUvC6g9POVdlp101/bquxXfUzqeqYoKl6ne55RL1eXSXXdUtcLi7XGIz5lHb22LJj6p3cO9Ecv/yoqq7DtL38V21S3G+oyqG47vPPcX7vmnXbqNo2I6GYS8mmuCmWU0jAgAgDwdes3kOUuLM9/Q3MK7M3ktu+mrdTXOwP6/tHPPkdCUjJi4xMBAKkpIwEA72/YhFGpKWisc6DWbkO1xQqLtcbjzmZjnQML5s3BiZN2AEB4eDgutrfj/PmvUF/vRP/+/XGuqQmyLGP1mkIsfmYhGuscsFmOoWRLKVxtLjy3ZBHKPvoYV650Xxzs2bsfo1JTRBxanM4GlGwphc1yDI11Dix+ZiFWrykUFw7qz0o2fQCjwSDirrXbsGD+XBzctwuNdQ6f+/EnOipK7Gd7WalYXlFZhSExMT3SDgA6OzthP3UatXYbbJZjOHDoMJzOBjidDdj/yUExSjwqNQXvb9jkc/+9SQclj5X8s1mOobxih9+bD9FRUThbVw+X240TJ+2IMw9Fc3MLXG43Nm4uwdYtm/skLyzWGlRbrLrpsL2sVMQdHRXlNx0A4FxTE7aXlaLWbsO4sWMAoNdl8v0Nm5CZke6xTqDPKcuyjI2bS9De3i7+3v/JQXH8hWveDGg7CiWtyj/aBrN5qM900KubSt5qlWN/nM4GnK2rh81yDAvmzcHOXbuRMWM6GuscOLhvFxbMn4tau03ku696Ya2xITFhGBrrHCjIz8PGzSWQZRmSJOG1gnxRXkelpgQ0e0LdfgU6CqOXDr7qZrD1WZIk5K1Yjs7Oy3A6G3DkyKfInJGOjBnT/ZZjAFiauxiNdQ4szV0MQL8cK2UyzjwUJ07a4XK70dp6Ae2XLuGKn86kXtrp1U1/bevuvftFncmckY4tH26F0WDAxIcfEucOJb7x4x8UcSizZoKtFy63G2vffa/H8iuqtFqy6GkAniN1tXYbHLVnAqrP6hk96nOgP975p9izbz+2btmMWrsNra0XYLHW9LgxfOKkHRMffki04+ryuruqHGbzUL/lQexv736UbisLKGYiohvJDdGZlLu68KfS7WIkUu7qgvtiOxrPNSP/N7lYtfJFuC+2iymwNxtJkmAyRQb8ffVJEejuCMmyjM7OyxgxPElsc1RqCpqbW8R3lLue55qakDFjOq7IMjo6OpB8373429+rsf+Tgxgz+n4AEBcvcd9NzTUaDLgrPg5tLhfM5qFITBiG2b+ci7cK16LaYsUjUyaJ+HKXvYDY+EQkJCXj6GefAwDaXC7cFR8nTqrKdq/Ico8TbqDUnepA7zRrkWUZ1RarR9zeJ+3MjHRIkuSRDidO2rH+g40ihtxlL3is82hWNmLjE5GcOhrNLS3XlA7qO+vq7elxtbkQHh6OwYMGodpiRbXFiuT77gXQfdOidFsZklNHIzY+EY9mZYv1epMXzc0tGJWaIp7lGTE8CZ2dl32OpvhKBz29KZMutxvWGptHXtSpbto0t7RopoNC6QQpneBr8WhWNsordiBvxXKRVnrp4HZf1K2b/ujVi6OffY6p6f+JiP79cZskYcTwJISFhelux1+9iI6KEh0J7/xTj2Z61wstWh2Ta+GvbgZbn5Xn2595dqlHe+evHCvtr5qvcnyuqQljRt8PR+0Z7NmzD2bzUET09/34hq+0603dBLrPMUn33N1jnRHDk+CoPQNZllFf78So1BRx7G0uFzo6OjS3py6TWuVhy4dbkTBsGMLDwz3WSU4djcyMdI8biOpRPPU5xh91DN7nLD1a+afInJEOo8Hgca41GgwwmSJRX++ELMs419Tkt0z7Kg8Kp7MBBw4dRvbjWYEcKhHRDSXknUm5qwvrN22FYUAEpkwcBwCQ+vWDYUAEHnrwfkj9+kHq1w8JP4/D163fhDja3lE6ggONxqDXfWD0/WK0whdl9KGxzoEhMTEeU3HuHTEcfy7dho6ODkRHR/vYyvfONTVhae5icXJTdwIK17wp7horo0rXg7pTXZCfh527dvd6W+Hh4eLuvPJPawRUlmW0tl4QfyvHqvxT7p4D2iNyvaGMji2YNyfo7Y0d8wCe+tUimEyR+MnAgWK5crdd+fdaQf4N82KH3tYHvTKpHg1Qjwh4f+Y9wvfPtjZUW6yYO+eXYpkkSfjVgnlY+bvfB9xRUrz/x2I0t7TAfup0wOv0pm7q1YtxY8dg147/8rhg9yfQeuFqc6H9UvcL0CzWGlhrbCJdgx2l6iu+6qYimPoMdKdhMDf+zjU1YUhMTFBxR0dHo6OjA38u3YZ7RwwPat3rQd1JNJuHIjLyTpw//xXq6uo9OkrNzS0wmSI12xF1mfQuD2fP1qGz8zJmTP9Fj3Ve/91KlFfs8Oj8bvlwK1JGJgd9jlHHkJmRjoLXVvntVAeaf+pz8LSpaTh+4iTOn/8KCQnDgr5JqqWy6r+RMzs7qLJHRHSjCHlnsuzjnTAMiEDOrJkey39quhP/c6L7okzu6kLt/9bjp6Y7QxHiNVNGCI0Dg+9MfnHsS/GGt7Cw2z2mIJVX7hDPU3prbb2ALrkLJlMkku65G2lTJiEzIx1Rgwehs/MyfvTd95Spt93Po9kw0GiE09mAzs7LSL7vPphMkRiVmuL3BUIDjUYx5RIAjhz5FED3FN/o6CiUV/qftnm9SJKExIRhAXVGvll3lwAAIABJREFUz5//Cu2XLiEuzowRw5Nw4NDhoOK+lnRQ8vLIkU/9jkwCQGTknRiVOhIL5s/FtKlpiI6OwrmmJsTFmXG2rl5zJLc3eREdHYVqi1VcmO3ctRthYbf77Jz6Sofz578CAAwePMhjHe/p4IGUSWWkQNl+MApeW4XMjHSP5529p6QF01EaaDTilZdfQlHxeyLt9dJBma2gVTe75K6gj0VhNBrR0dEhRsLVNxi8BVMvTpy0e4zQRUdF4TZJEu2QP0re9iaftARaNwOtzy63G28XFSPrsZkYEhMjpsz6Ksd6I4a+ynFYWBiiBg9CZkY60qZMQtI9dyM8PByuNhf0+Eq73tRNb18c+9JjdPPeEcNx6MhRABD5LcsyHLVnMG1qWsDbVfy5dBuyHpupGVNmRjpMpsgejw8oHTz7qdMBj0wGK9DRcpfbjbN19WJW0ODBg9DZ2Ym//b0a8eaeL93z5qs8AN0jqmFht1/T4x1ERKEU0s7kcbsDthOnYDtxSvw8yDvvbYbc1SVGKXOXv4rlr7yBhJ/H4d6kxFCGq0mZkpOcOhpVO3dhwuSpPV6ocOTIpzCZIgO+g+n9zKTyfMzsJ2ahvHKHmM6XOaN7epD3ywfWb9iEuU/m4PLly+jsvAwAWLLoaY+TlSRJmPtkDvLyCxAbn4gJk6diyaKFMA40iouq227rPgk+MmWSeGZEj/LWWmVKYXnlDjy/LBeSJCE1ZSQyZ6SLz7xfYhFIOqx99z3MfmJWQOmnRTkGvRdpKNMkn3l2KZ5bskg8R6g+pkBejNObdJAkCZkZ6SKGf7a1+R2ZbHO50NnZCUmS8JsXnxcjcUD3BWDO7GxMmDy1x0ssepMXqSkjYTJFirxobb2Ap+bN6VU62E+dxoTJU5GYMKzHxWVvy6S6XgTzQpjsx7PEVD+FMqrovTxQZvNQLFm0EBMmTxXPM2ulg6+66Y+vemE0GjAqNQXJqaNRXrnD74Wyr3qhniJcbbGKPFfSJiEpGblLf41xD471G7MkSXh+Wa5HPgXyYhU9/upmMPVZuYEw8eGHYDYPFWlSVLxON/+uyDJyl/7aYzr5W4Vr8WhWNuynTmuW48GDB+HChe7ZNakpIzVHUoNNu97UTUD/HAN0T8c8+ulniI+PA9DdkSx4bRXWf7BRtCm5y15A7rIXAsrDtCmTPNonb0/Nm4PW1gui3k6bmob1GzYhNj4R+z85GPDIpPqY8vILMPfJHN1Otcvt1s0/pRwp07+TU0cjZ3a2OAZJkjAkJgb2U6d73BDToteuKdu78447etVJJyK6Ufzo6tWrV0MdxK3M6WzA20XFeDU/r0+mw1DfKypehwdG3887w0TfcbndWL2mEM8vy73p2q0foj7rpc/GzSV4ePw4n52nUHM6G1D20cd47tlFmp0t789lWcbb73TfzFEfV0VlFaKjo27KdtNf/ikzgPReEsVzBhHR90I+zfVWJsty90n5uzvjRERENyJlhsvK3/0ev1ow74Z5xvpGorx4akhMDDuSRETf4cgkERERERERBY0jk0RERERERBQ0diaJiIiIiIgoaOxMEhERERERUdDYmSQiIiIiIqKgsTNJREREREREQWNnkoiIiIiIiILGziQREREREREFjZ1JIiIiIiIiCho7k7cYl9uNFXn5cLndoQ6FiIiIbkEWaw2KiteFOgwiugH86OrVq1dDGcDeA0exe/9hAEDyiHuQM2sm5K4urN+0FQ3/aPL47pNPPIZ7kxJDEeZNQZZlFLy2CpkZ6UhNGRnqcIjoX5DFWoNHs7IBANmPZyFvxXJIkhTiqIhuLUXF6/BW4VoAQOGaN5ExY3pIYhgSExOSfRPRjePHodz5xfZL+Lr1G6xa+SK6ur5F4bpNOG534N6kRDy78EnxPbmrCyVbP4ZhQEQIo73x7dm7HyZTJDuSRBQSFmsNyit2oNZuYweS6DpROnGNdY6QxjH7iVn4bX4BRgxPgtk8NKSxEFHohHSa64CI/siZNRNSv34YENEfsUOiNb935qwTUr9++FlM1A8cYWAs1hrExiciNj4ROXPmw+V2w+V2I2fOfLFc+VdRWQWgexRxRV6+WL4iLx+yLPfYnno5AFRUVonP0qZnwulsENtz1J7BtKlpAcXni9PZgLTpmbr7UcetHI/eOsr3leNQ0kVZzzudLNYauNxuLM5dBqezQUylUbaj/G2x1oj11dN6fR2r1mfecavjcDob8Pobqz3SXzlWZXlR8boeaaRHnXf+0lU5PqezAUXF68Rn6mPSW0crTZTpSHr5pxWjkme+ymqgx6qO3V8MSpp655NWXijfV469orLKI12DLfu+1lHHFUwaqcuYdwxa9dnXVHXvdKiorPJZl/TyI9DyoEernADA8RMnkXTP3UhISu6xPb10raiswra//FWkkRJbRWWVxzQ6p7MBi3OXadZ17/KvlQ6+2jXvz9RpqleX1Hmhbp+0YgikzugJpj6r9+NdXtV1Sa9NUZcndXoraa2uZ+r19M5ZGzeXYNtf/hp0+dI7p6rToah4ncf2tPLdV/uuF7evc1Zv21bvOLzTPJhyoqznqD2jee7Ru0bwVS+Ucqx8R13GteqFwmgwYOLDD+HESXtA+UpEt6Yb5plJZZTSe/RR7urCl9U2PPTg/SGKzDenswElW0phsxxDY50Di59ZiNVrCnGbJKFk0wdorHNgae5ibC8rRWOdw2M6SHh4OA7u24WD+3YhPDxcbG//JwdRa7ehsc6BUakpeH/DJrHOuaYmbC8rRa3dhnFjx4jl589/BQAYPHiQz/hKNn0Ao8Hg97jGjR0jYlgwb444Wby/YRNGpaagsc6BWrsN1RYrLNYamM1DsbuqHI11jh7rhIeH42J7O86f/wr19U70798f55qaIMsyVq8pxOJnFqKxzgGb5RhKtpTC1ebCc0sWoeyjj3HlSveJdc/e/RiVmuJz1FUvL2RZ1k0HJe5auw0L5s/FwX270FjnCGh01+lswNm6etgsx7Bg3hzs3LXb7zqFa94UaafOv/c3bEJmRrpHOigXAbv37hefZc5Ix5YPt/pdR49e/gHdF0bVFqvI99cK8iFJEiRJwmsF+SJvR6WmYM/e/T73kzFjOhrrHDi4bxcWzJ+LWrtNpLmvGGRZRmfnZRzctws2yzFERwV+A0mJv/yjbTCbh/osD3p8rbNk0dNorHNge1kpluYu9kgjQLs+u9xubNxcgq1bNmvGoFefg6VXl9TlQSl7jXUOLFn0NADf5cFfOnu3UUo9s586jVq7DTbLMRw4dBhOZ4PfvNizbz+2btmMWrsNra0XYLHWYPz4B9HaekFcPJ84acfEhx/yaL+UfFiauzigdNBr19TtV63dBkftGb91SW3P3v0o3VYm/j5y5FNkzkgXdUApD33NX91UzjvedUmvTVHIsoyNm0vQ3t4ulk37RRq+OPaluHHZv39/uNpcPs9ZnZ2dmuXBl0DOWRZrjZjiqcSrznelDffVvvuKW++c5Yu/uqQue8ox6dUlX1xtLuzeux+JCcPQWOdAQX4eNm4u8dmmBNI+XFF9R2kfAqkX0dFRqLZYe32zhIhufjdEZ1Lu6sKfSrfjvhF39xh9PHPWCVnuginyjhBF51uby4W74uPEyS4uzgygu2H25Yos4/xXX/VYfuKkHes/2Cju7Ocue+Ga4tO6AAvE0c8+FzFUW6x4ZMokcaE/YngSgO4LmVGpKWhubgHgeUf0XFMTMmZMxxVZRkdHB5Lvuxd/+3s19n9yEGNG3y/SAPg+zYwGA+6Kj0ObywWzeSgSE4Zh9i/n4q3CtSIGxaNZ2YiNT0Ry6mg0t3Tv31de9EU6qO/yHv3sc0xN/09E9O+P2yQJI4YnISwsLKhtK1xuN6w1No9jqqt3is/HjR2DpHvuBgCMGJ6Ezs7L+PrrVp/rNLe0IDl1NGLjE8Xza/7y74tjXyIzI11zeqJ6lONayqS/GHzRywuguzyUV+zweD6vN3Wzr+tzfb0TpdvKeuSFP+r88x5lVKeDkhe+6pKe3uZFc3MLRqWmiHRWyqQsywgPD8fcJ3MgSZJHDP7SNXNGOowGg0cMRoMBJlMk6uudkGUZ55qaMH78gx5xePOXDlrtGuA5apOQlIyjn32umRda+ed0NuDAocPIfjzLZ7pdC18x9KZuarUp6s6A0iFVOqDNzS1Ivu9etLZeEGkTNXgwAP/nLKVNCaRMKtvz1Va7XG6UbCnFgvlzxbLz579CeHi4OKZA6MXt65wF9K5t1eOrLvkybuwYUXYDaaMCqRfJqaN7vG/BV71QDDQar9vNEiK6OYS8M6m8bMcwIAJTJo7r8dnhT7/EQw/eD6lfvxBFeH242robceNAY4/P1CMI6lEE5YQ10Nhznb6mvouamZGOgtdW+T3BKaNRjXUODImJ8Ziidu+I4fhz6TZ0dHQgOlp7OrO3c01NWJq7WFykqU+Wenfc+5o6HQry88To47ixY7Brx3/12Uk0OipK3IlvrHNgd1W55jMobS4XOjo6/K6j/mx7Wek1xWax1sBaYxPbK1zz5jVtzxflQk6rXujlBQC8/8diNLe0wH7q9HWLzRdf9VkZPVP+KaOZvuqzOv8O7tuF/Z8cFPVPnQ7XMy9CRT0CNG1qGo6fOInz579CQsIwjw7GuaYmDImJCWrbeu3alg+3ImVksuasAX91qbLqv5EzOxsmU6RYljFjOs41NSE2PhETJk8Vdba39GLoi7qpblMA4J9tbai2WDF3zi89vveTgQNhMkXiqV8twtgxD3h8pnfOUpNlGa2tF4KOz9uhw0cw8eGHkJgw7Jq35StuvXNWX7atfa231wjjxo7B679bifKKHR7neV/1QtHmciEs7HY+I030Lyzkncmyj3fCMCACObNm9vjszNnukZZhd5l/6LACNtBoxNm6ejEV68iRTwEAt/lpWPXuvo4YnoQDhw5rPi+lN5VVvUz5jiI6OgrllTv65KdCJElCWNjtYmqYy+1GeeUOREdrd+ZaWy+gS+6CyRSJpHvuRtqUScjMSEfU4EHo7LyMH333vfrvRtS6n5G0YaDRCKezAZ2dl5F8330wmSIxKjWlx1Qsb77yoi/TQWE0GtHR0SFGPn8ycGDvtvPdCIwSry9fHPsSo1JT8NOfmgJeR+Ev/4bExPS4mFBER0XhNkkS6/SWvxjq650wmSKDHkEeaDTilZdfQlHxe2LEsjd1s6/rc1ycGWfr6jWn9vmqz8FS4tOqS3qCrc8K72ltO3ftRljY7TAYDAgLu1108pVp4HFx5oDT1eV242xdvRjhGTx4EDo7O/G3v1cj3mz2+F5r6wWPkcrepoNC6ZjaT53WHIHRcvSzzxEWdnuPafHKs2V601yLitcF/AyvP9daN5U2RekMKG8ENxo9y3J0dBSmTU3DgvlzMSp1JMLCbkeby+XznKV2/vxXaL90SYyO6R6Pj7a6uaUFTmeDxywVoPsmTu2ZM0HdTPIVt945q0vu0txWX9clXx0z72M9cuRT0WbqtSmB1IvMjHSYTJE9ptn6qxfNzS1B39QholtLSDuTx+0O2E6cgu3EKeQufxW5y1/FO+9thtzVddOMSprNQzHx4YfEtJfyyh14flmuz5NBRWUVcpe9gNxlL4g71+s/2IiC11Zh8OBBHttTprhZrDWYMHkqEhOGaW5bkiQkJgzr8dxeaspIZM5IF9sL9AJGPR0sL79ATF2b/cQslFfuEFMrM2eki+dP1A/qr9+wCXOfzMHly5fR2XkZALBk0dMeF12SJGHukznIyy8Q6bBk0UIYBxrxdlExsh6bidtu6z7WR6ZMEs9S9SYv+iId1r77HmY/MUt8ZjQaMCo1Bcmpo1FeuaPHhW0w1Onq/SIGdQwAxHO3vtYJZD/q/FO2azJFin0p21OmjiUkJSN36a8x7sGxvT5OXzFUVFbh0axsPDBa+/loX3kBdOf/kkULMWHyVPEcb7B1s6/r822ShJzZ2ZgwearHSyz81Wf1VLpnnl2KrMdm+oxBry75e8Oir/KgJzVlpEc5aW29gKfmzRHbs9bYRNzPLVkknk32la5K2iWnjkbO7GwRtyRJGBITA/up0+IC2eV2I3fprz2mD79VuBaPZmXDfuq0z3TQa9emTU3D+g2bEBufiP2fHAz4+dU777ijx0vPXG43Dhw6rPkyNMWQmBhc+Ob/xIh2b/W2buq1KUD3z7l4TxdVRovN5qH4zYvPe5RF77z1npatTMVXlwdf/LXVWlPxjQYDXnn5JZHv3jFo0Yvb1ebSPWf50td1SY/RYMDiZxaKdK22WPHUvDk+25RA24en5s1Ba+sF0fb7qxdKWVdu/hDRv6aQ/87kvyLlrrX6BO50NuDQkaOY+2ROr7fL35m89TidDSj76GM89+wiTiO6QV2v+vyvQiv91IqK1+GB0feLNs3ldmP1mkI8vyzXo2OycXMJHh4/7qb4iQKLtQZr330PhW/9IehR+Gv1Q7Yp3nlHtxb+ziQRATfANFfqO5Ik4flluSiv6NvpnEREPzTlxTJDYmJumc6I8vMRoepIEvUVZeSXHUki4sgkERERERERBY0jk0RERERERBQ0diaJiIiIiIgoaOxMEhERERERUdDYmSQiIiIiIqKgsTNJREREREREQWNnkoiIiIiIiILGziQREREREREFjZ1JIiIiIiIiCho7k9eRLMt4/Y3VcDobQh0KEVGvuNxurMjLh8vtDnUo1436GC3WGlRUVoU6JA8Waw2KiteFOgwiIqIeQt6Z3HvgKHKXv4rc5a+iZOvHYvnF9ktYueodzc9uNBZrDWLjExEbn4gVefmQZRkAIEkSsh6bibeLigO+EKuorBLbUv7xIoKIQkGWZaxeU4jMjHQYDYZQh3PdGA0GjEpNQXLqaOTlF2DE8KSA1pNlGSvy8kVbbbHWXJf4UlNGAsAN18klIiIKaWfyYvslfN36DVatfBErX3oOjeeacdzuAABU7NyH+0clo3DVb7Fq5YuQu7rwj6aWUIarSZZlfHHsS9gsx1BrtwEA9uzdLz43m4di4sMPYcuHWwPeZuGaN9FY50BjnQPby0r7PGYiokDs2bsfJlOk6MzcyjJmTEdjnQO7q8phNg/1+31ZllHw2ipkZqSL9vp6ptPsJ2bhwKHDnOlCREQ3lJB2JgdE9EfOrJmQ+vXDgIj+iB0SLT77qelO1P5vPeSuLrRe+D+43e0wDIgIYbTaJEnCkkVPw2gwQJIkjEpN6fGd8eMfRGvrhWueJlZRWYVtf/kr0qZneoxYek9DKypeF/AdbPVIqHpUVW+01VcMOXPme4yoKnfpKyqrRDxOZwMW5y7zSItgY/BFvU7OnPke+ykqXqf5WVHxOhGrd1rqxeZ0Nog08N6erxj0qGOwWGvEvtTbCnR76mNQRk6U7XmPpCj5ouSfkp/K8VmsNT2OVWs97zz3TkfvaXrqvFCXVb28UH/fOz98xaBXJnuTdoB2efCVdloxKN9T1ws1Zbl6XWVfvtJBb5RMSb/X31iN2PhEpE3PFB0S77xVxyPLMhy1ZzBtappmOmmluV45VrbnXfa00kcdhzo+ddmvqKzyOI6i4nUeaaRXhtT5r/7MXxul5fz5r2AyRaK8YkdQ7Y1em6KOQan36niNBgMmPvwQTpy0+4wrEHoxqPetjltrxozymXe+em9PKx2czga8/sZqzTZdnQ7qR0W864v3YyS9OV/olWO9dlLvM3/l2LsdV/bjXf/UZdo7n9SfeW9PiUFdntX7cjobsHFziWZ9UOeFcmzqcqfXVhMRKUI+zVWhjFIqHcYpE8fhoQfvx/JX3kDFzn149uknMSCif4ij9E2WZVRbrIiOjvJYfpskAQDq653XvI89+/Zj65bNqLXb0Np6ocfFscVag7cK1wa0LYu1BtUWK2rtNjTWOfBaQT4kSYLT2YD9nxwUy0elpuD9DZv8xhAdFQWb5ZgYUf3i2Jce+5NlGRs3l6C9vf2aY9DidDagZEupiGHxMwuxek2hx0XF9rLuz6OjonxsSTs27xjGjR0jPivZ9AGMBkNAMfjicrux9t33xN+pKSPFqEdjnQMpI5ODKkfvb9iEUakpIl2VvxvrHKi121BtsXrk39m6erjcbpw4aUeceSiam1t6HGvhmjcBfD8FcvEzC9FY54DNcgwlW0r9jpxUVFZhSEyMZgx6lix6WpSrpbmLRVkB4DMGf2UymLTzVR58pZ13DIE6cuRTpIxMFjMe7KdO66aDkrfKKJl3OlhrbEhMGIbGOgcK8vOwcXMJZFmG2TwUu6vKRV44as+Idc6f/woAMHjwII+4vPNda0TOuxyr01NZJ2PGdBgNBpRs+gCNdQ4szV2M7WWl4jOX242Nm0uwdctmzboUZx6KEyftcLndaG29gPZLl3AlwHqmR6uN0tPmcuGtwrUizTNnpIsZKLIso7PzMg7u2+XR3vhrUwDPdsw7XaOjo1BtsQbcnmjxFYN3+6W0a8qo7cF9u7Bg/lzU2m3iM0mS8FpBvsjXUakpYnaOXjr0td6cL3yVY1/tZLDlGPBsx22WYyiv2CFuLqjb1gXz5njcLDjX1ITtZaWotdswbuwYEff+Tw7i4L5dHu2xwuVy48Chwzi4bxe2l5WivGIHur79NqB03LN3P0q3lYm/e9NWE9G/nhuiMyl3deFPpdtx34i78bOY7pPNcbsDFTv3YeVLzyHh53F44+0/4mL7pRBH6tv7GzZpTgmTJAkmU2Sf7CNzRrrHKKhywQp0n0RKtpRiwfy5AW3ri2NfIjMjHdJ3nV3FiZN2rP9gIxKSkhEbn4jcZS8EFENzSwuSU0cjNj4Ra999D7OfmOWxnnKBob6g6G0MWtpcLtwVHyee7YqLMwMArnx3x7W19YLuuo9mZSM2PhHJqaPR3PLd8TS3YFRqiohtxPAkdHZe9nkh5yuGQGz5cCsShg1DeHi4WKa+MzwkJiagqXRKXgyJiREXNMqFnfI8mDr/XG0uhIeHY/CgQai2WFFtsSL5vnt97kM5JuUYjQYD7oqPQ5vL5RFDbHwiHs3KFjFUW6zIXfYCYuMTkZCU7HHxAmjnRV/EoFUmA007QL88fP11a9Bpp1DSwXs0JXfZC8hd9gKGxMToznhQc7ndsNbYPNKuTnXTIToqCuPHP+iRVle8RnUTkpJx9LPP/cZ8/vxXCA8PR9I9d+t+x7scKx0+JYZA1Nc7UbqtrEcZArovsseMvh+O2jPYs2cfzOahiOj//c1GvTKkLF+Rlw/5Ss86qdVG+bI0d7Goj4G0D/7alNxlL2Dl736PV/PzNJ9RHWg0erQNveErhhMn7Zj48ENBPx+rbqMCaasB4Ohnn4v23XtETt0+qMuksjxnzny4XN+PAvfmfKFXjn22k70ox4DnCKR3mVSnQ7XFikemTApq22rNLS2YMCkN7e3tMA40Ii7OHPC1h9PZgAOHDiP78SwAgbXVRETADdCZlLu6sH7TVhgGRGDKxHFi2eFPv0TGtMkYENEfUyaOQ+yQaHxZbQtxtPqKitehtfUCnpo3p8dnyslpoNHYp/s819Tk8fehw0cw8eGHkJgw7Jq3rX5us7HOgSWLnvYbg3oE5pWXX8Jv8wvE3dd/trWh2mLF3Dm/7PMYAnFFltF+6ZJuHih3kq/n3XN/zp6tQ2fnZcyY/guP5cpoVGOdA+eamgKaahQdFYX3/1iM8sodfqfrqY0d8wCe+tUimEyR+MnAgUEfg3cMWiNy4eHh4q661shWX+aFrzLpa50fKu3UZdxkioT91Gmx3HvEwR/1sfp69s/V5kL7pe4bc1s+3IqUkcli5EEZ/bgWeuW4N5TRV+WfMgoLANHR0ejo6MCfS7fh3hHDPdbTK0PKKA8AnDx1ymOd3rRReq7IMjo6OmAcGFyb//rvViI6KgpHjnyq+Xmby4WwsNt73HwLJYu1BtYamyh76nLrKx3UI3IF+XnYuWu3+EypF95lUlmeMjIZh48c9dheX54v+pIy2r1g3hzNMqlOh8yMdBS8tkpMOdW6bpAkCb9aMA8rf/f7Hh3n6KgoHNy/u1ftZmXVfyNndrZH59NfW01EBNwAncmyj3fCMCACObNmimVSv34wDIjA163fAOjuXLovtuOnpjtDFaZPFZVVaG29gLwVyzVP8r29sPDF5XbjbF29uHva3NICp7MhqLuaQ2JiUF6xo8ed9BHDk3Dg0OGAns1Tx+CL8qIKo9Hzjve1xqA20GgUUw0BiAuy2yQJ9fVO3BUfF9CLNRTeU8p27trt90LOVwz+/Ll0G7Iem+n3QtH7JoKeUakpyJyRLqYGSpKEsLDbxTQql9uN8sodYlp2ZOSdGJU6Egvmz8W0qWmIjo7yuS/v6dtOZwMsVpvPmyaSJCExYZjHheO16E0MgfBOO0C/PPT7t38LOu0CoWxDeXbR1zEZDQaYTJG6nRC1EyftHqPnQ2JiAHRPo1WPAinTW5XprmJfA42oPXNGdHy9aZVjJZ8CiU8RF2fG2bp6zWnTYWFhiBo8CJkZ6UibMglJ99yN8PBwuNpcAW/fm14bpWeg0QiL1Sbi27lrNxIThkH6rr0xmSJ7jPD5a1Nuu+02PL8sF+WVOzSnEzY3t4j8UisqXhfw89m+YoiOjgr6JgrQ3Ym5TZJEm6LQS4e+1pvzhV459tVO9qYcK5R29siRT/3OuAACn2bufdPpNkkSdUFpF/v927/53NfRzz5HWNjtHh3Fvm6riejWFdLO5HG7A7YTp2A7cUr8BMg7722G3NWFjGmT8WW1DbnLX8XyV95Aws/jcG9SYijD1eR0NmD9hk0o3VYmpqp4n9SPHPm0z06oypST5NTRyJmd7dE50pou6kvGjOkwmSJF3Mo0O+UNtMr0Mu8XQejFoJ5SOGHyVOTMzhbHnP14lua0uN7GoMV7nfLKHXh+WS7sp07j0axsvFW4VsRduq0MuUt/7fPiIzVlpEdseiPPgcQQSL6kTZnUo7Pr/aJ/zH54AAAgAElEQVQFa40toKmaCiV9Fzy9GC63G7OfmIXyyh0iHTJnpCM1ZSTaXC50dnZCkiT85sXnA+p0S5KEuU/mIC+/QOT5kkUL/a77yJRJaG29oPlykmD5i8FXmfTHO+30ykNv0k6hnuYKwONiLumeu9HaegEJSckIC7vd73bVees9bVadDtUWqyjH06amYf2GTYiNT8T+Tw56jALpXUwaDQa88vJLIs2966ZWOZYkSXSSAn2Zh9FgQM7sbEyYPNVjHVmWceHCNyK9ghmBejQrGwlJyTCZIntMHdZro/SYzUPxnxnpIj6gu8xUVFbh0axsPDD6/h7rBNKmqNNXnUYud/ezcFo374bExODCN/8XUGfaVwypKSOROSNdlJVA6qaSZglJychd+muMe3AsAPhMB8BzemegU9CV+tLaegGPPDJZLO/N+cJXOdZrJ3tTjiVJQmZGuphi/c+2No+RQ3U65OUXYO6TObCfOo0Jk6eKmxNqSudXr6xKt0mY9B8TMGHyVOTlF4gXaG3/rwpx7ktOHY23CteK5ynvvOMOzRdt9WVbTUS3rh9dvXr1aqiDuJU5nQ14u6hY9xmYYCgnLfVzXD+0GyGGYFmsNfji2JceF50utxtbPtyKp+bNuaGmjBH1NZfbjdVrCvH8styg2yD1z19weltoFRWv6/Ecr8JircHad99D4Vt/uKV/D5T6jtPZgLKPPsZzzy7iOZCIrsmPQx3ArUyW5e7GeskinuCJ6KajjMSsXlOIuDgz27EQUUbMvDuSSme/uaWFHUkiIgoJjkwSERERERFR0EL+Ah4iIiIiIiK6+bAzSUREREREREFjZ5KIiIiIiIiCxs4kERERERERBY2dSSIiIiIiIgoaO5NEREREREQUNHYmiYiIiIiIKGjsTBIREREREVHQ2JkkIvoBuNxurMjLh8vtDnUoFASLtQZFxetCHQYREdENKeSdyb0HjiJ3+avIXf4qSrZ+LJbLXV14573N4rPjdkcIoyS6+RQVr0NsfCJi4xNRUVkV6nCuK4u1Rhzrirx8yLIc6pA8yLKM1WsKkZmRDqPBEOpwKAipKSMB4JavQ0RERL3x41Du/GL7JXzd+g1WrXwRXV3fonDdJhy3O3BvUiLKPt6JhJ/H4dmFT+Ji+yX8qXQ7YodEY0BE/1CGTHRTKCpehyExMWisu/VvwlisNSiv2IFauw2SJIU6HE179u6HyRQpOiZ0c5n9xCz8Nr8AI4YnwWweGupwiIiIbhghHZkcENEfObNmQurXDwMi+iN2SDSA7lFJuasLCT+PE98zDIhA47nmUIarST11TZZlrMjLFyMjyt/eo0Mutxs5c+aLqVNOZwPSpmfCYq0R/6+so16vorJK8+64slzZrjI68/XXreJvre15x2ex1oh4iorXic9y5swXU/O84wvkbr06blmW8fobq+F0NgDwHFFSx1BRWeWxXyUeWZY9jlO9jq/4vI9V2bZWequ3qbcv7+WBjIZVVFZ57COQdXzlhV7aKZ87as8gNj4RadMzRXrrlUl/6aCO3Tturc+80yc2PlGUd70YfG3P1/LjJ04i6Z67kZCU3KOeqaeVqqcr+opB7zP1SK93HEXF60RaWaw1HvHJsgxH7RlMm5rWYx/e6aXsS5233vXv9TdWe6SJOj6tGLzLnXqbvtqoouJ1eP2N1T3KUG/4Kg8VlVXY9pe/ivKnLPfOv6LidR7lVSsd/JVjvRFsvRgURoMBEx9+CCdO2nudBkRERLeikE9zVSijlIYBEQAAWe6C+2I7AOAfTS1w/G9dKMMLyPsbNmFUagpeK8iHJEni78Y6B2rtNlRbrOKiJjoqCmfr6uFyu3HipB1x5qFobm4BAIwbOwa1dhsa6xwoXPNmwPs/cuRTpIxMRq3dBgBobmlByf9v79yjorizff+ds+46lqFNupkZ+kTAIJARDD6Qdt0QjRozanQij5NkcSNxMb7iGB8hmkm8STySkIeZ8YGIZoyvQwg4Tszw8miU+MA8zAzdcKJo49jdMPIwTe7QLdJSzL1rcf/A+qW6uqq6GjCNyf6s5R9Wdf1q1/7tvX+//fvtKvbvQZPNirXZq3H4UDGabFakpc5n8qanpaDJZkWd+RwKi4rZhPHY8Sp2Lj01BUUflgAAoqNH41hlKXsma8PlAU0yTUmT0GSzMhlKyyrgcruRljof6akpqK7+DA5HIzyem9jw6noAwOYteVi9coWs3GL9iXVXf/ESjMYwdk1EeLjX8zTU12H5siU4deIommxWmJImsdJE4V7CcUHX6al9+jl14ih0Op2m583b8jumO51Oh7a2a36vUeoLJd25Olw4drwK8XFj0GSzIjdnA/YdKATP84o2qaYHs6UWNWYLs8nJpiS8v3c/APicE2wf6LPxOvM5NNmsOHyomD2Pml8otackA8/zcDgaUX/xEhrq61BnPoeTp8/4tUk1GcTnxP6yZtVz7FnWZq/2eV6gLwHasfM9r3sJfTxy5L1ex3U6Ha53dqKt7RrsdgdGjBiBq83NcDgaUVhUzHS3euUKbN6Sp7l0VypDWup8ZqfLly1BQ30dCvfvgUGvV9WDpbZO1ob6i5I9AMAnJ6pQUnQADfV1cDrbvRaIgD672Jq3w+891OzY4WhE1aenZO1YiwwREeGoMVuGXAk1QRAEQQSTIZFM8j09+M/iw5g4fizuiwwHN2wY0h6fjYOHK5C9/g2UHTmB0fdFBltMRVpaW5FoSsaoyEg28eR5Hh7PTYwflwAA4DgOk01JaGlphavDBZ1Oh5H33osaswU1ZgsSJ07QdK/sdS/Jrqxnr3sJ2etewqjISHYvNVxuNyy1dXgyIxNRsfFINCXDZnew89OmTkHCA2MBAOPHJcDjuemz4xSXkIizn38RkNzSa8Q7CYmmZLS0trJzj82ZhRqzBSufX4uMp54Ax3HovvW8MTHRAPp2DO6PjUGHywUA6HC50NXVpUkmf7S1XYNOp2N6GAzEeoiPG6OpZE6pL9R0N23qFDw2ZxaA73Tlvn5d0SbVaGlpxWRTEkuaxDJ8ee4rpKelaC4vVfMLAIrtqcmg0+mwZFEWOI7zsQfBN6Ni4/FkRqZfGVxuN5zOdkyf/rCm55FS9GEJ4saM8bu40M3z6OrqQuLECfjLX2tQ9ekpTEl+EECfDd8fG8PerRT6T7D9s59/wXZhs9e91G8Z/PVFRHg404NUhsEmPbXvXVI5m3S53CgsKsbyZUu8rvGnBynnL9Rj9559iteoyQAAoQaD5kUjgiAIgvixEPRkku/pwe79JdDfczfmPDqNHb8vMhybcl5G3qb/wPLFCwCA7VoONSLCw/H+HwpQWl4R0Jcap055CM/+ZhWMxjD8NDRU0zXCzlaTzQqjMQz1Fy+x44HsYgpyCzsFTTYrjlWWyiY34gSt6MMSJE1KZDsZ06ZOCUhu8TU8z2PfgUIsX7rYZ8dQwGgM03wPoC/pMBrDfJIRU9IkjIqMlE28+kNa6nxcbW5GVGw8Zs6epzmBFfff1ebmgD/qIfSFFt0R6rthg82VKzZ4PDeROv9Xmq+ZMH4cPig+iK6uLkRERGi6Rq1yoT8yaMHV4ULnjRuD2qYSV5ubvf5/+kw1Hn1kBuLjxngd708Fh9j/mmxWrFn1nCYZgD7fCwm5a8i+l0sQBEEQwSDoyeShj49Af8/dyFrwhOJvqj//C7hhw3Bf5NCdLE82JSE9NYWVo3Ech5CQu9g7Ni63G6XlFYiI6HuGsLCfY7JpEpYvW4LH581FRES47AQmEIQ2hHe0Qg0Gxd8a9HoYjWGorv7Mb7tfnvvKa1doVGTfLnH9xUuadyb9yQ30lY6Kk7z39+7HqMhIZDz1BLblF8DldmP4LRnst3ZRHY5GmC11CDUYZN9NExCXSWpNvAyhBjRcvswSdjFCEhhometAkfaFnO6kcldXfwajMQz/ZjSq2qQS0vK+I0ePsUn1qMhIlJZVaC798+cXSu0pyaDX6xEScheOHD0GoM8ertjsbCctUBkE+9LiF1I+KD7IdtDFCOWt0pJmozEMCQ+Mxdw5s5CeloLwkffC47mJkJAQVgIvlmW4hiRGSQY5/PWFmPMX6r12S4G+dxjF73MOBi63G1dsdrZb2tLaCoejke2yD4Tx4xJw8vQZv/JKZRBoaWllsY8gCIIgiD6Cmkx+XW9F3fmLqDt/kf0JkO3vHQDf04Ov663s2DfOb1WTzaFCWup8GI1hWP7carjcbix8ZgFKyyvYblh6agpMSZPQ4XLB4/GA4zj875dfDOjrgOIyVwBeX4dMeGAsnM52xCUkIiTkLr/tiuWTls2KS8iEZwOAx+fNxe69+xEVG4+qT08FtGsoheM4pKelsFLbf3R0sCSvrLwSTmc7HpszC9HRo/HoIzOQvfa36OZ5LFmUhQ05uWxXcM2qFRg58l7kvrUJu/fsw8zZ81gZW/a6l/DR4T+jtKwioHJMoC/h3vjaK+xewoc8XG43Tp4+I5u0+kPcf8Lz+UOuL9R0Z9DrsXrlCnauxmzBs0sXA4CiTaphSpoEozGMyeB0trP2BJsXzmn5qJCaDErtqcmw8JkFsNTWISo2HiufX4sX1qzy++c3lGTgOA4vrsv28gutu8dzb9mqFI7jEB83hiW8QN9On8dzE0Dfu5jiPhgddR8efWQGK88tLa/Ai+uyNdmukgxKqPWFuERYbEMCoyIj0f7t/4Grw6X5fkoIfpFoSkbWwkyvZwjUb5UQ4ojwTNKPd6nJIPi8NMEkCIIgiB87P+nt7e0NthDE0MLhaMShjz7GC8+vumNKuniex7btBch46gmvSWBZeSUiIsLv2D/JcCf2BeELz/PIfWsT0tP8J+9DAZfbjc1b8vDiumzFxNxsqcWOne8hb+vvB/S3M4VkXViwCgb+ZBD+1E4wZSQIgiCIoUhQ/84kQRDEjwFhx3PzljzExEQPKPkKNkJi3NLaOuBE8k5A2L2kRJIgCIIgfKGdSYIgCIIgCIIgCCJggv4BHoIgCIIgCIIgCOLOg5JJgiAIgiAIgiAIImAomSQIgiAIgiAIgiAChpJJgiAIgiAIgiAIImAomSQIgiAIgiAIgiAChpJJgiAIgiAIgiAIImAomSQIgiAIgiAIgiAChpJJgiAIgiAIgiAIImAombyN8DyPd97dDIejMdiiEARB+OByu/Hqhhy43G6YLbUoK68MtkgEQXzP5BfsgtlSC5fbjfyCXeB5PtgiDYiBxjWHoxHvvLv5jtcD0QfNxW8/QU0mr3fewOubtiN7/RvIXv8GCks+9jpfWPIxO/d1vTVIUqrD8zxe3ZCDqNh4RMXG49UNOSwAcRyHjKeewLb8Arjcbs1tutxuZC1extrML9h1u8T/0SEMmgRBAAa9HpNNSUg0JWNDTi7Gj0sItkiEAvkFu9iYQEk/MZg8Pm8uNuTkItGUjFGRkeA4LtgiDYiBxDWX241t+QXIeOqJIacHs6VWdq5JqNPfuTihnZ/09vb2BlsIAOB7erB7fwlmPPwgJiTE4/jJs/jG+S2yFjyB65038Id9xfhfT87HfZHhwRZVlfyCXRgVGYm01PnsWFl5Ja42N2PNquf8Xu9yu5G99rdIT03xaoMYHPILduGh5AdhSpoUbFEIgiA0ITeuEAQx+AxVXzNbalFaVoENr64fcknunUIgc3EiMIZMmWtPzz/B8z3Q33M3+J4eNF1twYyHHwQAuK93wnX9Ohr+Zg+ylOrwPA+nsx0REd4J7/TpD8PpbNe0ImK3OxARHo7H5sySPS+3Oi2Uprzz7mZExcZj7vx0tp1fVl7Jfi9dzRLv0pkttV7npLuj/nbzxGUlQttl5ZVs51ZoW2hXkF26syu+j9wqnMPRiLnz072eSYt8wnVb83bgyYxMZC1eBpfbDYejEauz1zG5BXnMllqfUpey8komt1h3ZeWVTOfSa8yWWrazLL5eel8lfavJINaPVAf92d0W21ZUbDzTkXDfQFdEpX0ryF1WXomDf/wT60exbErPJO13sY2L+0Jqh+LrpM8jtkGhBEbJjsX3EbfpT69S/5PKoeTPggxS/xHLI+jr1Q05sDZcxr4DhV7XivWiRQ9Sm1RCbJOCnQl6ULJjoV/FPiPIIdWRuG/V7FhplV7JN6X2rRZXxDpR8mfxOXHckMogja1KKPmL0B/Whss++hGeUU4P+w4U4uAf/+TTnpINifUnZ6tifYuPq/mmmj8rxTU1m5S2p3WHNtD4JbUVsd0p6UcuNgvxQm2MkY5nSmOjFptUimuAtjFGasdKSNuSjj9Ku+hKNqkmn5o9DGZcE2RwOtsxffrDXsfV5lFKfqGGUnyQ2re4va/PX0DCA2MRl5Doozs5PYjbFY9dgi7645tqcU2pL7TqQTqPyi/YxexfKQ4JcivN26SxLpC5OBEYQU8m/97civU572Lj29swcfxY3BcZ7pVYfl1vxX8WH0bi+AeCLaoiQhCMS0iE0Rjms+s1/NYqkt3u8NtWS0srJpuSZFeeysorMSoyEk02Kxrq61BjtjBHtNTWIT5uDJpsVuTmbMC+A4XMyfO2/I5do9Pp0NZ2zUf+HTvfY//neR6bt+Rh9coVaLJZ0WSzBrSTZ7bUYmveDvZ/nU6H652daGu7BrvdgREjRuBqczMA4P29+5GeloImmxV15nMoLCpmwaTq01NoqK9Dk82KyaYkvL93P6KjR+NYZSka6uuwfNkSnDpx1K98QtnKzu1bsTZ7NQ4fKkbSpEQUfViC6OjRuD82hvVNW9s16HQ6JDwwVvOz1pgtKP3oIKKjR2u6hud57DtQiM7OTvZ/sb7FelDDlDSJ9U+d+RxKyyq+S047XIgbMwYN9XU4fKhYk1wAcPhQMWsvIjzc6xmlfeGP9/fux2RTEpNRvNL7yYkqlBQdQEN9HZzOdmbHas80beoUJsPypYtx/kK96v1dbjf2HShESdEBNNmsWL1yBTZvydNcGiS1Y4EjR49h+dLFqDOfwxWbXbWf0lLno8lmxakTR7F82RI01NehcP8eGPR6VX+W6vCt3BxwHIfH582FteEye4Yvz32F9LQUDPvXfx2QHqQ2qYVukd2uWfWcXzt+/Fdz8eW5r8DzPKwNlzFixAi4OlwAvGPUtKlTvpNdwY6V4oMYqW+uWfUcmmxWHD5UjLXZq9FkszK9CnFFkMHacDmg92s+OV6F4oOHfI5LY6saYn8R24Orw4Vjx6tk47uab3o8HtRfvISG+jrUmc/h5OkzcDgaFW1IPOYcPlTsFQMcjkYUFvUdk7MhJd9U82d/yMXJqk9PsZift+V3mtqR6kjoczUEWxHkFk9AxedWr1yBog9LvK4V68qUNMnvGCPWnfiZlOyhP2gdY5TsWI6I8HBmD4cPFePLc18BUJ+nKNmkljmH1B5uR1yz2x0wGsNg0Ot9zsnNo/z5hT+k8UHsL002K5ImJcJud7AFLzndKekh4YGxmGxKwifHqwAA3d08Dn30MV5YswoGvX5AvimVezDGWuk86tjxKjY3TE9NYX4mJ3c3z+PFddkoLatAh6tvTKkx99mceN4RyFycCIygJ5P3RYZjU87L2PT6y2j4mx3HT55l5/77wiWc+ewrvPzCb6C/5+4gSqmOQa9H4f49aLL1vdcp3a3gOA5GY5imtoQkSwrP86gxW5C97iVExcYjLiHRK+hHhIez1bSYmGgAfZM9AF7XxMeN8Ul6ij4sQdyYMdDpdAACT6jEuFxuFBYVY/myJUyGrq4uJE6cgL/8tQZVn57ClOS+HWeX2w1LbR2ezMhEVGw8Ek3JsN1y8vMX6rF7zz62Cpe97qWAZWEydbgw8t57MXLkvezY4/PmwuO5CZ7n8VDyg2wgPH+hHrN+OZNNNs5+/oWiDE9mZPar7EQI7sJETegnod8Mej3uj41hQVFJBvFKYKIpGS2trQHpRSvSBY7x4xKY7pRQWuEVSE9NgUGvB8dxmGxKQktLn+xqzyTWQ43Z4rV7L7Yh4Rq73YHig4eQaEpGVGw8nszI9JJB7BdnP//CW36JHYvvszVvByIiwmHQ6zFxwnh/6pPFnz+3tLay95fEg6Fgw21t19jA789P/ekB8LVJf5z9/AskmpKRnpbCJn1qdtzS0orEiRPgdLYzXYePHKnpXnL4iw+B+qZ4V0TOHtRwOBpx8vQZZD6d4XNOGluV4HkeHs9N9m6X1C+mTZ3C7F0c3/35ppAkivtCzYaE6hopHS4X7o+NYZNs6Rij5Jta/Vkuvgdqk0rIJcv+ENvDgoWLsGRRFnt28S6VXEx5/c238UbOBq+ERG2MkcOfPbRdu8Z0L0UurvkbYwB1O5ZDiFFRsfHYsfM9LHxmgd+4BsjbpJY5h9QebkdcU0NuHuXPL/whFx/Eu7qjIiNZfNXpdFiyKMtHd2p6eGzOLNSYLdiatwMLf73Ea/43EN+Uyq2lL5RQitXTpk5h9iCOa0pyG/R6pKel4MmMTOzesw979x/AwmcWeN0rkLk4ERhBTyYFuGHDEPeLGHzj/BbDhvWtsv/3+UtYvngBuGHD8I3z2yBLqI2Hkh+E09nuszrm8dxEqMHg9/pRkZGKCaVOp2Orsmo7hq4OFzpv3GD/F1bUmmxWXG1u9tr2v3LFBo/nJlLn/yqQx1Tk9JlqPPrIDMTHjfE6PmH8OHxQfBBdXV2IiIhgx8Wrm002K45VlrJgJ5a7yWa9bXXuQsC6du0bdHd3ew1oSqvGAPD+HwrQ0tqK+ouXNN/rHx0dqDFbsGTxrzVfIyeDsOK6fOlin51EoG/yFxJy1x3xboVg7/6eSayH9LQU5L61ifmZ3I4qALYDJfwT70oo7YYBynYs7GoNBmr+HBEejvf/UIDScu/VYo7jMOuXM3H+Qj3sdgceSn5QUx+r6aG/NvnOm6+jtKxC8+rzT0NDYTSG4dnfrMLUKQ9pukbNjtXiQ6C+WfRhCZImJSragxrllf+FrIWZPpOUwY6tA0GcJKrZUDfPo/PGDU1jlRg533Tf2q3Q4s/S2CpnkxzH4TfLl+L1N98e8AKjP8QLxCVFB7Atv4BVzPy5rIL5rbTq4503X0dEeDiqqz/zOq42xgRKdPRoPPrIDMWJu1pcU0PJjpUQj90bX3sF/5GTC/f165rnKUoLF3IoxajBjmtqqM2j+oNSfBDvfGu9j5IehKQ28+kMrM1e3a+xVuqbSnKr9YUaWmJ1h8uFrq4uv3K3tLRi+bIlyHw6AxHh4azyRSCQuTgRGEMmmeR7etDwNzsmjh/LEsu4X8SAGzYMf29uRePfmxH3i5hgi+mXL8995VOmKuzOGUL9G/D4cQk4drzKp5yF4zjEx43BkaPH/LZx/kK912qZGh8UH/T5apkh1ICGy5cDSpKAvpVKh6PR531PozEMCQ+Mxdw5s5CeloLwkffC47mJ4bdWiaQDL9Cnh5OnzwxKbbsh1IC2a9e8ynuPHD2G+Lgx4DgOHMdhVGQkzlSfxU9/9lPNCViowYCNr72C/IL3NJfE5b61CelpKTAYvusbaemFw9EIs6VOU8AT3s+trv7Ma2Xxy3Nf4aFbO8ADJSIiHDVmC0sajhw95jdRFZ5Jrm/FuNxuXLHZvb62p/RMgRITE+23DFUOJTsWGBUZiZaWVvbOrRa/lqLFnyebkpCemuJTLhQTE42rzc34+vwFthKuhj89yNmkFtLTUmA0hrGySn92HBERjsfnzcXyZUsw2TQJISF3ee2MyKFkx/7iQ398c1RkJACg/uIlzTuTZz//AiEhd8lOluViqxIcxyEk5C5WHupyu1FaXtG3Ay6Jx9XVn7FSPK2+2dZ2DZ03bjB7UbIhu92B+2NjfKpXQg0GXLHZmb4Fvx6u4dn6489yNikthdRa5joqMjKgRQ85Ojs7ma3ec8/dMIQawPM8SssqvH43fPjwvnK78gqvMTzQMUbNHoDvyuflElo5/Pmmmh0HwrBhwzTPU8Q26W/OIWcPtyOuxcREB/RO3UD8Qmt8uNrczOxB0KvD0YgrNjtiYqJV9VBd/Rkmm5JgNIYhceJEr1dKgP75ppzc/R1rAW2xWjqvlpPb5XajxmzBrF/OhE6nw2NzZnu97gUENhcnAiOoyaTwvmT2+jewfuO77EuuADB96v9Ew9/syF7/Brbt3If0+XOG5JdcpS+Ny30FTDz4+yM6ejR2bt+KDTm5Pi//PzZnFpzOdtmXs8UlJzVmC55dupi1KZRnRMXGw+ls95okz50zy2fiYNDrsfG1V7xk0PquhrScyNXhgsdzE0Dfipt0sFr4zAKUllf4vNguXX0NRAYpBr0eWQszMXP2PPYBHsC7ll5I4mOj/U/OxfS9i7UCM2fPY/KJS0SEskjhXObTGT6r0hzHYcmiLKbvmbPnYc2qFarvYHIcx0o6omLj8Y+ODkSEh6OnpwevbsiBpbZOU6KhBVPSJBiNYeyZnM52L/tSkk+YVMl9bEGwyURTMrIWZiI6erTiMwmI9bohJ5eV/Cgh7vdAP9ihVhY3ffrDKC2vQKIpGZNNSZr8Wg41fxZIS50PozEMy59bzc4J9/N4PF73PvznMiSaklm50da8HSgtq8BwjlPVg5xNauXZpYvhdLbj1Q05AKBox8KKeHT0aPzvl1/0O4Hq+ae6HWuJD3K+qcTj8+Zi9979iIqNR9Wnp7x2dNT8+ec/+xkenzdXtk252KqGOBYmmpKRntpXQmzQ67F65QrmF+L47s83hWtWPr+WvSsFyNuQ2VLLnk+QofjgIWSv/S0MoQYvfZeWV+DFddmyrwMIvqkXlZ3J+bMacjYpJBqB2qrgQ4J8gX6AJ9GUjKRJiV7vPyaakpH+1NOysojHT7GfBTrGKNlDf/A3xqjZsRLiOcfM2fOQtTATBr3eb1yTs0l/cw45e/AX3/sT1wx6veICt9w8ShqHpH6hhlx8kH5cxlJbx0o1Fz6zAJbaOlndyelBeA9RmO8NH95nA4VFxejm+X77ptKcsb9jLeB/HgX0+bHavG1OR3IAACAASURBVGfzljykp6WwBZLJpr7YKJQ6A4HNxYkA6SVuK3a7o3fV82t7O1yu23aPDper95XXNt7We/xQ2L5jZ2+N2eJzvMZs6d2+Y+f3es8fK6VlFb2lZRXBFuOOpbu7u/ftTb/vtdsdqr+z2x29b2/6fW93d/f3JNmPgzvFn9XklLMhuRjY4XL1bt+xk2xoELidY8ydwp3gOx0uV++q59f6ja/E7eN2jF3fx1z8x8yQKXP9IcLz3l/PIoYewkpgaVmF3902gggmwufP4xISMeuXMwPa9SIIgGwoGNAYc2dh0OvxwppVOPTRxwMqjSaGDjQXv/38pLe3tzfYQhAEQRAEQRAEQRB3FrQzSRAEQRAEQRAEQQQMJZMEQRAEQRAEQRBEwFAySRAEQRAEQRAEQQQMJZMEQRAEQRAEQRBEwFAySRAEQRAEQRAEQQQMJZMEQRAEQRAEQRBEwFAySRAEQRAEQRAEQQQMJZMEQRAEQRAEQRBEwFAyeRvheR7vvLsZDkdjsEUhCIIgCIIgCIIYVIKaTF7vvIHXN21H9vo3kL3+DRSWfOx1/vjJs7LHhyI8z+PVDTnIWrwMLrcbAMBxHDKeegLb8gvYMS243G5kLV6GqNh4RMXGI79g1+0SmyCIQcJsqWU+++qGHPA8H2yRCGJQyS/YxWy8rLwy2OIQBEEQQ4D/Ecyb33P3CGxc/zwAgO/pwe79Jfi63ooJCfEoLPkY/2b8OebOmoFvnN8GU0xNfHK8CgAQER7udTw6ejQefWQGij4swZpVz/ltx+V2I3vtb5GemoLC/Xtui6wEQQwuZkstSssq0FBfB47jgi0OQQw6+QW7MCoyEk02a7BFIQiCIIYQQ6bMtafnn+D5HujvuRsAkLXgCcx5dFqQpdKGw9GIk6fPYMniX8uenz79YTid7Zp2J+12ByLCw/HYnFmy5+VWhl1uN/ILduGddzcjKjYec+ens9LasvJK9nvpjkl+wS6YLbUA+ibD4nPS3VHhd0pIfy+9RiyHWD7xbo70GqVzwi6w3DUORyPmzk9HVGw82yWWk03Lyrq4LancSvpRukaQWdCxcL24D6XtudxurM5eB4ejEWZLLfILdrF2hP8L93W53Xh1Qw6zMbHuxLvlSuekcovlcDga8c67m3122sTHBbsU60gJJZuUu09ZeSXKyiv71Rdy/SHoW+m4P8Syi/3l6/MXkPDAWMQlJPq0p9QXZeWVOPjHPzE5hAqEsvJKr2oEh6MRq7PXyfat+HmV9KDmm0p6kLMnQSZxP4ntUe5eWnZohT6WPqtan6shjpHia8RyC3KK9SzXT3K6k/aNVH/S/hLrSBq7pPFAKUaJn0lsQ+J+kepSKb6r9Z8Swv2sDZdl+0JuV176rFr9TBoflMYLaVxTsmW1OKnkz9L+0CqDEmpjlrhvxXJLr/GnO/F4IW5bqT2lfpL6rNLYLTfWCr8X31P8qo/anEPa71psUtyX4meV6lRLdZeaHpRitdlS6zPfEnShFNfU5PPXFwQxVAl6Mvn35lasz3kXG9/ehonjx+K+yHD/Fw0heJ7HvgOFyFqYCYNBL/ub4bd2Kux2h9/2WlpaMdmUJLu7UVZeyVaGG+rrUGO2sIBrqa1DfNwYNNmsyM3ZgH0HClkQytvyO3aNTqdDW9s1r3Zdbjd27HzP65k2b8nD6pUr0GSzoslmhSlpkl/ZI8LDUWc+hyabFYcPFePLc1+xc1ebm3H4UDEa6uswbeoUdtyUNIndo858DqVlFV6D89rs1WiyWbE2ezU79v7e/UhPS2HXFBYVw+FohMvtxr4DhSgpOoAmmxWrV67A5i15GM5xKNy/h7Vz+FAxmmxWpKXO9/tM06ZOQUN9HZpsVixfuhjnL9T76EcsQ3T0aByrLGXPJFwDADqdDtc7O9HWdg12uwMjRozA1eZmxfZcHS68sGYVDn30Mbq7+/ryk+NVmGxKUu0Ph6MRhUXFrC8EPQgTSfG5wv17YNDrmdwN9XVYvmwJTp04qrnfHY5GXLHZUWc+h+VLF+PI0WN+r/Fnk4PRF9Lr8rb8jh0T91NDfR2sDZf9JipmSy1qzBYmw2RTEt7fu5/ptf7iJTTU16HOfA4nT5+Bw9Go2hcA8MmJKpQUHUBDfR2cznaYLbU+i0/nL9Tj0UdmwKD/Lr5I/cKfHpR8sz96EPPJ8SoUHzzE/l9d/RnSU/t889SJo9DpdJrbEmJpZ2enj2xSX1Jjzarn2DU7t2/1ec2gW6QroVpEyS8AX92J6XC5MHfOLDTZrMy+oqNH4/7YGBbv29quQafTIeGBseA4Dm/l5jD5JpuS8MnxKhj0etUYJX6m1StXoOjDEs16lcZ3MdL+U2yjw4Vjx6tkxxiHoxFVn57y8Qvps546cRTWhsuaJsfi+CCMF/58Sa4v1FDyZwFxvx+rLEV09Gi/MiihNGYJCP0t7vP39+7HZFOS7Hgvh0Gvx6OPzGA+4nK74XS2Y/r0h9lvdDodTp046uWbSjYpIDd2K421WhMfqU263G7UmC1Mr+LxXgtmSy225u1g/xf7S535nKbFfH96kIvVpqRJyM3ZgCNHj7FnyNv6e69YLY1rAkKfi+XzJwNBDFWCnkzeFxmOTTkvY9PrL6Phb3YcP3k22CIFxCfHq2A0hqlOujmOg9EYpqm9q83Nssd5nkeN2YLsdS8hKjYecQmJXpOAiPBwNmjExEQD6Js0AfC6Jj5uDKKjR3u1XfRhCeLGjGGDi3jyEwgtra1INCUjKjYeO3a+h4XPLPB7jXh1M9GUjJbW1u/aa2n1+b3L7Yaltg5PZmSya2y3Jm12uwPFBw8xGZ7MyAxIfjnOfv4F222qMVvw2JxZTK+Cng16Pe6PjUGHywXAe4X1anMz0lLno5vn0dXVhcSJE/CXv9ag6tNTmJL8IACothcdPRrxcWOw8NdLsDVvB5NBQKwHQXcdLhfuj41hA5rYHuQSk0D1IF6JPfv5F5iX8u+4e8QIDOc4jB+XgJCQEL/tKdmk+D7SiVN/+qLD5UJXV5fP/cU7D3EJiTj7+Rd+ZZYu9IwflwCP5yZ4nodOp8OSRVngOM5LBrW+AID01BQY9HpwHIfJpiS0tLTCoNfDaAyD3e4Az/O42tzsNSGU8wt/elDyTTU9iK+R8yWhIiPz6Qy/utOC3KsCcr7kD/HO0czZ82CzO+Dq6NPD2c+/QKIpGelpKV4xu79+ocRDyQ+yhP38hXrM+uVMZjfiXYnsdS9pak+sh0DjmjS+CwTaf9OmTmGxRxpTdu/Zx3xT/Ezi+P76m2/jN8uX9rsM3J8vqSEXJ9X8eTBlUBuzlOB5Hh7PTYwflwAAXvFBjfHjEljCbrc7MNmUxGTt5nm0XZNftAvUJv2NteL4LhdblWyyP7hcbhQWFWP5siXfHRPFtQULF2HJoixNvq2mB7lYDYDFESGuSO+j9AqU2B7E1/UnPhBEsAl6MinADRuGuF/E3BHvRwoICd7WvB0sKAgBVjwRFgaGUIPBb5ujIiMVE0phVVFYtVLaOXJ1uNB54wb7v7DK22Sz4mpzs1e5zJUrNng8N5E6/1eBPLos4pXcja+9gv/IyYXL7VZ8fmHFbvnSxWyFThxwrzY3Y1RkpOp9xKvGwHc7NsK/t3JzBvQOm3g3LD0tBblvbUIP36N6TVrqfHb/UZGRXiU2E8aPwwfFB9HV1YWIiAhNMlxtbsba7NVs0ieeuIhXN6WD1WAi1oOwEiscP1rx54AnBUo2Kdzn8KFilJZVoLu7W1YGrX3R0tIKozHMxwaKPixB0qREn92PYCL2+8fnzcXX5y+gre0a4uLGeE1QlPxCDSXfVNOD2o4cAJRX/heyFmZ6LZSlpc7H1eZmlsjJJfJy/KOjAzVmi8+rAmq+pIS42kH6TNOmTsE7b76O0rKKQSkfa2lple0LYSHu2rVv0N3dzf5vttTCUlvH9KplB83haMSfyypY7JfrCyXU4rtc//UXsT832axsx1e8uyy2u9uBUl8A31+cVEJtzBpMoqNHIyzs52hruwabze61CCUsqBhCvcdhNZtUm7uojbVyO8sCcjZp0OuxZFEWFixchKjYeK9dRn+cPlONRx+Zgfi4MV7tCTv9JUUHsC2/QFPliVbflM7RQkJCvJJZAaW4Bnxnkw31dSgtq4DZUtuv+EAQQ4Ehk0zyPT1o+JsdE8cHthsWTKQlCXXmc8h8OgN15nNeSZ6wKyUN4nKMH5eAY8erfHZlOI5DfNwYTSWE5y/Ue62eqvFB8UFkPPWE12TbEGpAw+XLqL94ye/1WhBKGEeOvFf2fERE3+BeXf0ZWzWWK9EBwHZtqqs/82knJiYaV2z22/6nWDhuGIDvypb73mmsU1wscDrb0cP3wGgMQ8IDYzF3ziykp6UgfOS98Hhu4ie3fifXnsPRCI/nJhInToTRGIbJpiS/JW6hBgOu2Oxs0iboajjHISIiHKXlFYM6oTMYDOjq6mK7FD8NDR20tv2h1hc8z8PacBmPz5sre60w8ay/eEnTzmRERDhqzBaWhBw5egwhIXdBr9cjJOQu5ptC2W9MTLRqX4hxud24YrOznYiRI++Fx+PBX/5ag9joaK/fyfmFtJTen00ORA9A3w5fSMhdPotZwqJAoGWuuW9t6ludV3hVQMDpbA8oCfzkeBUaLl/2ir3paSkwGsO8Sxr74ReCfQl9JobjOIyKjMSZ6rP46c9+6hVfI8LDMZzj4HK7UVpeoele99xzNwyhfTZdWqbtGkA+vgPK/aeEdEyorv4MRmMYDHo9xo9LwMnTZzTp7vr1TpbUBIqaL6n1hRJK/qy2+KjVn8WojVlKcByHkJC7vEpWS8sr2FipxoTx43C6+iy7t4Da7ruSTSqN3QMZa+Vs0uV2Y1t+AXZu3xpQmWtLayscjkbFb0wIdHZ2sioNNbT4pjRWl5VXwuPx4DfLl/qUL2uNa4HKQBBDjaAmk8L7ktnr38D6je9ixsMPYkJCPIDv/izIsaozqDt/Ednr38DX9XfmV+TEA68/oqNHY+f2rdiQk+vzcvZjc2bB6WyXfflfXJJWY7bg2aWLWZtCyUlUbDycznavwDt3ziyfFVKDXo+Nr73iJYO/l+GlMsycPQ9ZCzNhtzswc/Y8xMeN8RmkOY5DeloKK/f4R0cHIsLDcd19Hdlrf+tVRrM1bweezMiE2VKLhc8sQGl5hc9L6ga9HlkLMzFz9ryAPvighri0ckNOLpYsyoL+1iqqoJ+Zs+dhzaoV7J0a8Ucgdu/djyWLsnDz5k14PDcB9L3PIZ7EcRwn254h1IBt+QXIeOoJDB/epzvBBtT6Q/iCsKC70vIKvLguGxzHwZQ0CempKeyc1g9IiPUgLWE2GPSYbEpCoikZpeUVPomOHEo2KdxH0PXw4cP71RcjR96L3Lc2Yfeefcweste9hOx1L6GsvBKPz5uL3Xv3Iyo2HlWfntK0M2lKmgSjMYzJ4HS2Mz9b+MwCWGrrEBUbj5XPr8ULa1axd1GV+kKsh0RTMrIWZjJfFJKR+ouX2ERO+NKznF/UX7ykaJOAvG8a9Pp+6QEAfv6zn/kk6S63GydPn1FM3tXIfDrDp6xeyZf8VRqIy8R2792Pja+94hN7n126GE5nO4sdgfqFy+3G8udWo6urS3GRTFgYFC8GCM8Yl5CI7LW/xbSHp6o+C/DdO5iJpmSkP/W0j56EyhjBxnfv3c8mtHLxHZDvPzUMej1Wr1zBYrV4jJHauDBeSD8mMnP2PPx7Wkq/d+SUfKmb5/32hRxq/hyoDP5sUmnM0npNoikZ6akpmpL/mJhonP3sc8TGxrBjZeWVLP4JfbF7zz7kvrUJsbdKdaU2abbUKo7dAxlr5Wyyuvoz3B8b0y/bSE9L8ZFPHAMSTclImpToV3f+fFMuVpsttSgtr8DCZxYwnax8fi3zP7m4JiD4UlxCIntVqj/xgSCGAj/p7e3tDbYQP2QcjkZsyy/AGzkbBu19HCkutxubt+ThxXXZt+0e3ydKz7PvQCEemT7ttpQHET8seJ7Htu19ibjYXsrKKxEREa55R+Z2Iky+lN4DzC/YhYeSH2Sykl/cWZgttfjy3Fea/iTUYKFk98SPB4ejEYc++hgvPL+KJVlyscbhaMTp6rNYsigrKHLeSfiL1QTxY2fIlLn+EOF5vi+o39qlIAiC8Iewqj4qMnJIJL1EYAgfACotq/C700UQg4Wwkz/QDx0RBEEECu1MEgRBEARBEARBEAFDO5MEQRAEQRAEQRBEwFAySRAEQRAEQRAEQQQMJZMEQRAEQRAEQRBEwFAySRAEQRAEQRAEQQQMJZMEQRAEQRAEQRBEwFAySRAEQRAEQRAEQQQMJZMEQRAEQRAEQRBEwFAySRAEQRAEQRAEQQQMJZO3EZ7n8c67m+FwNAZbFIIgCIIgCIIgiEElqMnk9c4beH3TdmSvfwPZ699AYcnH7Bzf04Pt7x1g576utwZRUmV4nserG3IQFRvP/pkttQAAjuOQ8dQT2JZfAJfbram9svJKr7aiYuORX7Drdj4C8T1ittTK2gpBaEUac8iGCIIgCIIIFj/p7e3tDbYQQF/yuHt/CWY8/CAmJMTj63orvnF+izmPTsPX9VaUHTmB7OcW4567RwRbVC94nse27QXIeOoJREePlv1NWXklrjY3Y82q5/y2V1ZeCQBIS50PoC/5+PLcV5quJYY2ZkstNuTkYuf2rYq2QhBq8DyP3Lc2IT0tBaakScEWhyAIgiCIHzlDpsy1p+ef4Pke6O+5GwAwISEecx6dBgCIGhXBjt+JTJ/+MJzOds27k0qUlVfi4B//hLnz0712LF1uN17dkMPazy/YxZJSNfILdnntkmUtXgaX2w2HoxH5BbvY7odwXJBBaNvhaMTq7HXsnMPRyGQTrhF2UV7dkAOe5+Fyu5G1eBlrI9BdFrmdYPGzip9JLLf0OvE5qR4EvTocjXjn3c1ecgvn8gt2MVnNllr2fGp8ee4rLF+6WDaRVNKDWl8oye3PHsS7o+L2hGeUylBWXom589NZubYgj7/nVbqPGko2KcghHJfeX6nf5WRQs0mx7qS/k7anRQfSvjBbar0qDcRya+mjtrZrMBrDUFpW4XVO6leCL4ptVKkv5HSnZkNq9qBkQ2pIqzGEtl1uN/ILduGddzd7HZe7TtwXSn6hdk1/9CC9j7hNcXzQiprcSvYtjrlSO1KLUWq+rmXsEKMmw74DhTj4xz/5HBfHVsHPBBnEcotfFVHrC3F74ueQHtf6jP2xSaWx0Z9v9ieuKR1XQ82+1FCKHXLjvfA8cvMUNRnU7EFNBoIghgZBTyb/3tyK9TnvYuPb2zBx/FjcFxnu85umqy0AgGHD/vX7Fk8TXV1dmDl7nuIEczjHAQDsdseA7/XJiSqUFB1AQ30dnM52nwmL2VKLrXk7NLd3+FAxmmxW1JnPISL8O90fO16F9LQUNNmsSE9NQdGHJV7X8TyPfQcK0dnZCaBvcrLvQCFKig6gyWbF6pUrsHlLHnieh06nw/XOTrS1XYPd7sCIESNwtbkZAPD+3v3sPnXmcygsKlZ9x5TjOLyVm4MmmxVNNitOnTgKa8NlpvM1q55j51avXMHkrr94CUZjmOyzSvUgTfy7eR6bt+Rh9coVPjvELrcbO3a+51fPPM/D47mJ8eMSZM+r6UGtL9TkBnztweFoRGFRMerM59Bks6Jw/x4Y9HrwomeUkyEmejTOX6iHy+2G09mOzhs30K2SSEnvI7YHf8jZpNlSixqzBQ31dWiyWTHZlIT39+730u2pE0e9rlGTQc0mxX0y2ZSEt3JzwHEcHI5GVH16SlaG/lBWXolRkZFoslnRUF+HGrMFZkutqtwdLhe25u3wsQeDXo+8rb9HjdkCl9uNI0ePITdnA0xJkzT1xeFDxbJ+IeheGlPk7MF9/bqqDamRt+V3TA/Tpk5hxy21dYiPG4MmmxW5ORuw70AheJ5XtQfheaR+4e+aQPUgxJrDh4qxNns1mmxWZiv9QRy7pP6sFNcAYNrUKeyZ8rb8zqddaYyS+nqTzTrgXW4lGTweD+ovXkJDfR3qzOdw8vQZH3v45HgVig8eCuh+gY5z/SFQmxSQjo1qvtlfm1SzBzX8jRdSlMYLtfEeUJ+n+JNBag9KMhAEMXQIejJ5X2Q4NuW8jE2vv4yGv9lx/ORZr/N/b25FaeVxpD0+G9ywYUGSUhlpcmM0hvkMBhzHwWgMG5T7paemwKDXg+M4TDYloaWllZ1zudwoLCrG8mVLBnyfaVOnIOGBsQCA8eMS4PHc9BowPzleBQBsgLPbHSg+eAiJpmRExcbjyYxMAADP96CrqwuJEyfgL3+tQdWnpzAl+cE+ed1uWGrr8GRGJqJi45FoSoZNQ8ItXhF9/c238ZvlS9kETrzKK8igBbEM6WkpbLA6+/kX7JjchKvowxLEjRkDnU6n2n43z6Pt2jXZc/70oNYXSnID8vZw/kI9Hn1khs9gLCSGMTHRAPomQPfHxqDD5cLV5mZMSX4Q1obL+OSTE4iOHo27R6iXm3e4XLg/NobdR2hXLQFVo6WlFZNNSayf5WxSqwxu93VFmwSAltZWJJqSMSoykpWbA326271nH+ISEhEVG4/sdS9pk/1We95+waPGbEH2upcQFRuPuIRENoHyp7u12auZLYr1YNDrkZ6WgkRTMgCw36i1x/M8nM52RdnlbEjJHvhuZRvqLxHh4Zg+/WEfuf3Zg5xfqF3THz34Q5BB6y6QeLdwwcJFWLIoi/VZf+Ma4Buj2tquQafTsZgiRbBJrbvv/khPSwHHcbL24HA04uTpM8h8OsPrGvG4JkWpL85+/oWsb4qPD8b7xUo2KSAdGwEo+mZ/bXKwxzkllMYLpfFeQG2eoiaDnD0oyUAQxNAh6MmkADdsGOJ+EYNvnN+yY39vbsV7+z5E+vw5sjuWQ5GHRJNSAWHnJNRgGNR7SXdSTp+pxqOPzEB83JhBvU+Hy4Wuri72/390dKDGbMGSxb/2+p2wOi/8eys3B8O4vgWACePH4YPig+jq6kJERAS7JiI8nK04NtmsOFZZ6vd9wujo0ThWWYommxUbX3sF/5GTy8pz/1xWgVMnjrIdAwFT0iSMioxkg1hLq/dkRVgtbaivQ2lZBZt0TJs6Be+8+TpKyyp8JlVXrtjg8dxE6vxf+dXhcI7D3SNGKE6stepB2hdKcgODaw8RERHo6urCB8UHMWH8uAG3N5h08zy6urpgCA3Mv9Rs8v0/FKC0vMJn1VzYrRD+aXmXWdy3YpvU6XTMVgdrhwgAli9bgpCQEE2/7eZ5dN64oRiblGwoGPbg6nCh88YNTb9V8ws5+qsHrTJ4PDf97tAa9HoU7t+DJpsVJUUHsC2/AA5Ho2pc80cgMUpAbONGYxjqL17SfK0acslReeV/IWthptdi68JnFqC0vIItspz9/Auva5T6Qml3VDh++FAxSssq0N3dPSjPA/japNLYKDAYvjkQewjUL9SQG+/lduWl8xQ1GeTsgSCIoc+QSSb5nh40/M2OieP7Vkuvd97AfxYfxtNPpmBCQnyQpdMGz/MoLavAqMhIr+P9neyq4XK7ccVmZ2WTLa2tcDga8dicWYN2D4Evz33ltXoqfADEYPhupTAmJhpXbHbZCZPRGIaEB8Zi7pxZSE9LQfjIe+Hx3MTwWzu21dWfDUi+69c74eroS9LuueduGEINrC8ExOVESmVsSqSnpcjuOH9QfBAZTz2hqaxNWKHdsfM9nwTFoNdr1oO0L5RQsoeIiHDZJElaiu1wNMJsqUOowYCQkBCEj7wX6WkpmDtnFhIeGAudTsd0LkeowYArNju7j/Bsw/tZAhgREY4as4Ul9EeOHkNIyF3gOA52uwNGY5jPyrWSDEKlgJxN9vA9AIDJpiSkp6Z4lW6NH5eAk6fPDMr7OhzHIT5uDI4cPeZzTk13oQYDzJY65mdHjh5DfNwYVoZbWFSM3yxfCo/Hw97RUmvPbnfg/tgY2YULJRtSsoduvm+SLmdDg8H5C/Vsh1XNHpTwZ0OB6uF209nZyRaflOKaP+RilCHUgIbLlwctSdRKW9s1dN64wXbzzn7+BUJC7vJZQBEn1dIS02D1hRJimwTkx0YAir7ZX5vsrz0EitJ4oTbei5HOU9RQsgclGQiCGDoENZkU3pfMXv8G1m98l33JFQDKjpyAy30dBz78iP15EGkJ7FBAXJoUl5CIyaYkr9I4oG/yJjfZ7Q9CCVKiKRlZCzO9BhqhnGgwEJcGAfB6psynM3xKpAx6PbIWZrJ3R4WPLbg6XPB4bgLoe89DOlCIV6G1lFVJP1Qzc/Y8/HtaCqKjRyM6ejTuj43pK5956mkmozDgqulHKL2JS0iE0RjmI+ezSxfD6Wz3km/unFkBfZU1LXU+0lNTWGmQuOxKTQ9qfaEmt9zzmpImeckgfMyA4zgsWZSFDTm5TK9rVq3AyJH3or39W3at1q8KR0ePxqOPzGD3KS2vwIvrsvttn6akSTAaw5genM52PLt0McrKK/FkRqZsRYCSDDdv3lS1SYG01PkwGsOw/LnVcLndPu0NtGzusTmz4HS2+3xYQk130dGj8e9pKczPBDldbjdef/NtZC3MhEGvZ/ZUVl6p2F79xUt4MiMTW/N2sJhSfPAQstf+Ftfd1wH42hDP84r2MOxfh8na0EC+XCwuEa4xW/Ds0sXs3nL2ICDnF0rXmC21AetBC2IZ4uPG+NWD+OMkiaZkJE1KhClpkmJc04JcjDLo9dj42iusn6R2LC5zBTDg3XJBDyufX4sX1qxi4+DPf/YzPD5vbsDtBdoXQvzckJOLJYuyMHz48IDvKUbJJgH5sVHNN/tjk4ZQQ7/twd84J0VpvFAa7wXU5ilKMijZg5IMBEEMHYbMnwb5oeJwNGJbfgHeyNkw4GRS+mdDbhcORyMOffQxXnh+1aAlp0T/oL4gbhdyf3bI5Xaj6MMSPLt0cEW9jgAAARFJREFUcdDtzeV2Y/OWPLy4Lvu2vi811PVwJ5NfsAsPJT/4g/kzNmST/vm+5ikEQQwdhkyZ6w8Rnuf7EgHRaixBEARBEARBEMQPAdqZJAiCIAiCIAiCIAKGdiYJgiAIgiAIgiCIgKFkkiAIgiAIgiAIgggYSiYJgiAIgiAIgiCIgKFkkiAIgiAIgiAIgggYSiYJgiAIgiAIgiCIgKFkkiAIgiAIgiAIgggYSiYJgiAIgiAIgiCIgPmXf/7f/xdsGQiCIAiCIAiCIIg7jH/59h/Xgy0DQRAEQRAEQRAEcYfxLzf5Hjj/jyvYchAEQRAEQRAEQRB3EP8yMiwUnV3daP3mH6CSV4IgCIIgCIIgCEIL/x+AzdBSnVoGPwAAAABJRU5ErkJggg==;" parent="1" vertex="1">
          <mxGeometry x="630" y="190" width="915" height="656" as="geometry" />
        </mxCell>
        <mxCell id="yDe0HJ88ZmJv6lRPuch8-1" value="Computer" style="shape=table;startSize=30;container=1;collapsible=1;childLayout=tableLayout;fixedRows=1;rowLines=0;fontStyle=1;align=center;resizeLast=1;html=1;" parent="1" vertex="1">
          <mxGeometry x="-170" y="90" width="180" height="120" as="geometry">
            <mxRectangle x="220" y="220" width="70" height="30" as="alternateBounds" />
          </mxGeometry>
        </mxCell>
        <mxCell id="yDe0HJ88ZmJv6lRPuch8-2" value="" style="shape=tableRow;horizontal=0;startSize=0;swimlaneHead=0;swimlaneBody=0;fillColor=none;collapsible=0;dropTarget=0;points=[[0,0.5],[1,0.5]];portConstraint=eastwest;top=0;left=0;right=0;bottom=1;" parent="yDe0HJ88ZmJv6lRPuch8-1" vertex="1">
          <mxGeometry y="30" width="180" height="30" as="geometry" />
        </mxCell>
        <mxCell id="yDe0HJ88ZmJv6lRPuch8-3" value="PK" style="shape=partialRectangle;connectable=0;fillColor=none;top=0;left=0;bottom=0;right=0;fontStyle=1;overflow=hidden;whiteSpace=wrap;html=1;" parent="yDe0HJ88ZmJv6lRPuch8-2" vertex="1">
          <mxGeometry width="30" height="30" as="geometry">
            <mxRectangle width="30" height="30" as="alternateBounds" />
          </mxGeometry>
        </mxCell>
        <mxCell id="yDe0HJ88ZmJv6lRPuch8-4" value="ID_C" style="shape=partialRectangle;connectable=0;fillColor=none;top=0;left=0;bottom=0;right=0;align=left;spacingLeft=6;fontStyle=5;overflow=hidden;whiteSpace=wrap;html=1;" parent="yDe0HJ88ZmJv6lRPuch8-2" vertex="1">
          <mxGeometry x="30" width="150" height="30" as="geometry">
            <mxRectangle width="150" height="30" as="alternateBounds" />
          </mxGeometry>
        </mxCell>
        <mxCell id="yDe0HJ88ZmJv6lRPuch8-5" value="" style="shape=tableRow;horizontal=0;startSize=0;swimlaneHead=0;swimlaneBody=0;fillColor=none;collapsible=0;dropTarget=0;points=[[0,0.5],[1,0.5]];portConstraint=eastwest;top=0;left=0;right=0;bottom=0;" parent="yDe0HJ88ZmJv6lRPuch8-1" vertex="1">
          <mxGeometry y="60" width="180" height="30" as="geometry" />
        </mxCell>
        <mxCell id="yDe0HJ88ZmJv6lRPuch8-6" value="FK" style="shape=partialRectangle;connectable=0;fillColor=none;top=0;left=0;bottom=0;right=0;editable=1;overflow=hidden;whiteSpace=wrap;html=1;" parent="yDe0HJ88ZmJv6lRPuch8-5" vertex="1">
          <mxGeometry width="30" height="30" as="geometry">
            <mxRectangle width="30" height="30" as="alternateBounds" />
          </mxGeometry>
        </mxCell>
        <mxCell id="yDe0HJ88ZmJv6lRPuch8-7" value="system_unit" style="shape=partialRectangle;connectable=0;fillColor=none;top=0;left=0;bottom=0;right=0;align=left;spacingLeft=6;overflow=hidden;whiteSpace=wrap;html=1;" parent="yDe0HJ88ZmJv6lRPuch8-5" vertex="1">
          <mxGeometry x="30" width="150" height="30" as="geometry">
            <mxRectangle width="150" height="30" as="alternateBounds" />
          </mxGeometry>
        </mxCell>
        <mxCell id="yDe0HJ88ZmJv6lRPuch8-8" value="" style="shape=tableRow;horizontal=0;startSize=0;swimlaneHead=0;swimlaneBody=0;fillColor=none;collapsible=0;dropTarget=0;points=[[0,0.5],[1,0.5]];portConstraint=eastwest;top=0;left=0;right=0;bottom=0;" parent="yDe0HJ88ZmJv6lRPuch8-1" vertex="1">
          <mxGeometry y="90" width="180" height="30" as="geometry" />
        </mxCell>
        <mxCell id="yDe0HJ88ZmJv6lRPuch8-9" value="FK" style="shape=partialRectangle;connectable=0;fillColor=none;top=0;left=0;bottom=0;right=0;editable=1;overflow=hidden;whiteSpace=wrap;html=1;" parent="yDe0HJ88ZmJv6lRPuch8-8" vertex="1">
          <mxGeometry width="30" height="30" as="geometry">
            <mxRectangle width="30" height="30" as="alternateBounds" />
          </mxGeometry>
        </mxCell>
        <mxCell id="yDe0HJ88ZmJv6lRPuch8-10" value="hardware_c" style="shape=partialRectangle;connectable=0;fillColor=none;top=0;left=0;bottom=0;right=0;align=left;spacingLeft=6;overflow=hidden;whiteSpace=wrap;html=1;" parent="yDe0HJ88ZmJv6lRPuch8-8" vertex="1">
          <mxGeometry x="30" width="150" height="30" as="geometry">
            <mxRectangle width="150" height="30" as="alternateBounds" />
          </mxGeometry>
        </mxCell>
        <mxCell id="yDe0HJ88ZmJv6lRPuch8-11" value="" style="edgeStyle=orthogonalEdgeStyle;fontSize=12;html=1;endArrow=ERoneToMany;rounded=0;entryX=1;entryY=0.5;entryDx=0;entryDy=0;exitX=-0.004;exitY=0.302;exitDx=0;exitDy=0;exitPerimeter=0;" parent="1" source="FyC12AB4mqrPU83Jo8B3-4" target="yDe0HJ88ZmJv6lRPuch8-5" edge="1">
          <mxGeometry width="100" height="100" relative="1" as="geometry">
            <mxPoint x="-150" y="420" as="sourcePoint" />
            <mxPoint x="-50" y="320" as="targetPoint" />
          </mxGeometry>
        </mxCell>
        <mxCell id="yDe0HJ88ZmJv6lRPuch8-12" value="" style="edgeStyle=orthogonalEdgeStyle;fontSize=12;html=1;endArrow=ERoneToMany;rounded=0;entryX=1;entryY=0.5;entryDx=0;entryDy=0;exitX=-0.001;exitY=0.635;exitDx=0;exitDy=0;exitPerimeter=0;" parent="1" source="FyC12AB4mqrPU83Jo8B3-4" target="yDe0HJ88ZmJv6lRPuch8-8" edge="1">
          <mxGeometry width="100" height="100" relative="1" as="geometry">
            <mxPoint x="-60" y="380" as="sourcePoint" />
            <mxPoint x="40" y="280" as="targetPoint" />
          </mxGeometry>
        </mxCell>
        <mxCell id="iDLbCLuzWER7pxR7Z87H-1" value="History" style="shape=table;startSize=30;container=1;collapsible=1;childLayout=tableLayout;fixedRows=1;rowLines=0;fontStyle=1;align=center;resizeLast=1;html=1;" parent="1" vertex="1">
          <mxGeometry x="-200" y="280" width="180" height="120" as="geometry" />
        </mxCell>
        <mxCell id="iDLbCLuzWER7pxR7Z87H-2" value="" style="shape=tableRow;horizontal=0;startSize=0;swimlaneHead=0;swimlaneBody=0;fillColor=none;collapsible=0;dropTarget=0;points=[[0,0.5],[1,0.5]];portConstraint=eastwest;top=0;left=0;right=0;bottom=1;" parent="iDLbCLuzWER7pxR7Z87H-1" vertex="1">
          <mxGeometry y="30" width="180" height="30" as="geometry" />
        </mxCell>
        <mxCell id="iDLbCLuzWER7pxR7Z87H-3" value="PK" style="shape=partialRectangle;connectable=0;fillColor=none;top=0;left=0;bottom=0;right=0;fontStyle=1;overflow=hidden;whiteSpace=wrap;html=1;" parent="iDLbCLuzWER7pxR7Z87H-2" vertex="1">
          <mxGeometry width="30" height="30" as="geometry">
            <mxRectangle width="30" height="30" as="alternateBounds" />
          </mxGeometry>
        </mxCell>
        <mxCell id="iDLbCLuzWER7pxR7Z87H-4" value="ID_Hi" style="shape=partialRectangle;connectable=0;fillColor=none;top=0;left=0;bottom=0;right=0;align=left;spacingLeft=6;fontStyle=5;overflow=hidden;whiteSpace=wrap;html=1;" parent="iDLbCLuzWER7pxR7Z87H-2" vertex="1">
          <mxGeometry x="30" width="150" height="30" as="geometry">
            <mxRectangle width="150" height="30" as="alternateBounds" />
          </mxGeometry>
        </mxCell>
        <mxCell id="iDLbCLuzWER7pxR7Z87H-5" value="" style="shape=tableRow;horizontal=0;startSize=0;swimlaneHead=0;swimlaneBody=0;fillColor=none;collapsible=0;dropTarget=0;points=[[0,0.5],[1,0.5]];portConstraint=eastwest;top=0;left=0;right=0;bottom=0;" parent="iDLbCLuzWER7pxR7Z87H-1" vertex="1">
          <mxGeometry y="60" width="180" height="30" as="geometry" />
        </mxCell>
        <mxCell id="iDLbCLuzWER7pxR7Z87H-6" value="FK" style="shape=partialRectangle;connectable=0;fillColor=none;top=0;left=0;bottom=0;right=0;editable=1;overflow=hidden;whiteSpace=wrap;html=1;" parent="iDLbCLuzWER7pxR7Z87H-5" vertex="1">
          <mxGeometry width="30" height="30" as="geometry">
            <mxRectangle width="30" height="30" as="alternateBounds" />
          </mxGeometry>
        </mxCell>
        <mxCell id="iDLbCLuzWER7pxR7Z87H-7" value="ID_HHi" style="shape=partialRectangle;connectable=0;fillColor=none;top=0;left=0;bottom=0;right=0;align=left;spacingLeft=6;overflow=hidden;whiteSpace=wrap;html=1;" parent="iDLbCLuzWER7pxR7Z87H-5" vertex="1">
          <mxGeometry x="30" width="150" height="30" as="geometry">
            <mxRectangle width="150" height="30" as="alternateBounds" />
          </mxGeometry>
        </mxCell>
        <mxCell id="iDLbCLuzWER7pxR7Z87H-8" value="" style="shape=tableRow;horizontal=0;startSize=0;swimlaneHead=0;swimlaneBody=0;fillColor=none;collapsible=0;dropTarget=0;points=[[0,0.5],[1,0.5]];portConstraint=eastwest;top=0;left=0;right=0;bottom=0;" parent="iDLbCLuzWER7pxR7Z87H-1" vertex="1">
          <mxGeometry y="90" width="180" height="30" as="geometry" />
        </mxCell>
        <mxCell id="iDLbCLuzWER7pxR7Z87H-9" value="" style="shape=partialRectangle;connectable=0;fillColor=none;top=0;left=0;bottom=0;right=0;editable=1;overflow=hidden;whiteSpace=wrap;html=1;" parent="iDLbCLuzWER7pxR7Z87H-8" vertex="1">
          <mxGeometry width="30" height="30" as="geometry">
            <mxRectangle width="30" height="30" as="alternateBounds" />
          </mxGeometry>
        </mxCell>
        <mxCell id="iDLbCLuzWER7pxR7Z87H-10" value="Row 2" style="shape=partialRectangle;connectable=0;fillColor=none;top=0;left=0;bottom=0;right=0;align=left;spacingLeft=6;overflow=hidden;whiteSpace=wrap;html=1;" parent="iDLbCLuzWER7pxR7Z87H-8" vertex="1">
          <mxGeometry x="30" width="150" height="30" as="geometry">
            <mxRectangle width="150" height="30" as="alternateBounds" />
          </mxGeometry>
        </mxCell>
        <mxCell id="iDLbCLuzWER7pxR7Z87H-14" value="" style="edgeStyle=entityRelationEdgeStyle;fontSize=12;html=1;endArrow=ERoneToMany;rounded=0;entryX=1;entryY=0.5;entryDx=0;entryDy=0;exitX=0;exitY=0.5;exitDx=0;exitDy=0;" parent="1" source="FyC12AB4mqrPU83Jo8B3-4" target="iDLbCLuzWER7pxR7Z87H-5" edge="1">
          <mxGeometry width="100" height="100" relative="1" as="geometry">
            <mxPoint x="110" y="185" as="sourcePoint" />
            <mxPoint x="20" y="215" as="targetPoint" />
          </mxGeometry>
        </mxCell>
        <mxCell id="mfMCvMLGotate3VIa-kZ-1" value="1) Каким образом выводится вывод из эксплуатации?&lt;br&gt;2)Какой пользователь занимается заполнением местоположения, назначения и сборки оборудования?" style="text;html=1;strokeColor=none;fillColor=none;align=center;verticalAlign=middle;whiteSpace=wrap;rounded=0;" parent="1" vertex="1">
          <mxGeometry x="-340" y="515" width="200" height="50" as="geometry" />
        </mxCell>
        <mxCell id="yDe0HJ88ZmJv6lRPuch8-13" value="" style="rounded=0;whiteSpace=wrap;html=1;dashed=1;fillColor=none;" parent="1" vertex="1">
          <mxGeometry x="80" y="100" width="240" height="150" as="geometry" />
        </mxCell>
        <mxCell id="yDe0HJ88ZmJv6lRPuch8-14" value="Отдел закупок" style="text;html=1;strokeColor=none;fillColor=none;align=center;verticalAlign=middle;whiteSpace=wrap;rounded=0;" parent="1" vertex="1">
          <mxGeometry x="320" y="100" width="60" height="30" as="geometry" />
        </mxCell>
        <mxCell id="yDe0HJ88ZmJv6lRPuch8-15" value="" style="rounded=0;whiteSpace=wrap;html=1;dashed=1;fillColor=none;" parent="1" vertex="1">
          <mxGeometry x="330" y="235" width="200" height="135" as="geometry" />
        </mxCell>
        <mxCell id="yDe0HJ88ZmJv6lRPuch8-16" value="Отдел технического обслуживания" style="text;html=1;strokeColor=none;fillColor=none;align=center;verticalAlign=middle;whiteSpace=wrap;rounded=0;" parent="1" vertex="1">
          <mxGeometry x="460" y="200" width="60" height="30" as="geometry" />
        </mxCell>
        <mxCell id="yDe0HJ88ZmJv6lRPuch8-17" value="" style="rounded=0;whiteSpace=wrap;html=1;dashed=1;fillColor=none;" parent="1" vertex="1">
          <mxGeometry x="90" y="265" width="200" height="335" as="geometry" />
        </mxCell>
        <mxCell id="yDe0HJ88ZmJv6lRPuch8-18" value="Заполняется автоматически" style="text;html=1;strokeColor=none;fillColor=none;align=center;verticalAlign=middle;whiteSpace=wrap;rounded=0;" parent="1" vertex="1">
          <mxGeometry x="300" y="560" width="60" height="30" as="geometry" />
        </mxCell>
        <mxCell id="yDe0HJ88ZmJv6lRPuch8-19" value="" style="rounded=0;whiteSpace=wrap;html=1;dashed=1;fillColor=none;" parent="1" vertex="1">
          <mxGeometry x="-210" y="270" width="200" height="140" as="geometry" />
        </mxCell>
        <mxCell id="yDe0HJ88ZmJv6lRPuch8-20" value="Заполняется автоматически" style="text;html=1;strokeColor=none;fillColor=none;align=center;verticalAlign=middle;whiteSpace=wrap;rounded=0;" parent="1" vertex="1">
          <mxGeometry x="-210" y="417.5" width="60" height="30" as="geometry" />
        </mxCell>
      </root>
    </mxGraphModel>
  </diagram>
  <diagram id="B8EgsQRoOBmy62Bt3zys" name="Концептуальная модель">
    <mxGraphModel dx="1434" dy="802" grid="1" gridSize="10" guides="1" tooltips="1" connect="1" arrows="1" fold="1" page="1" pageScale="1" pageWidth="827" pageHeight="1169" math="0" shadow="0">
      <root>
        <mxCell id="0" />
        <mxCell id="1" parent="0" />
      </root>
    </mxGraphModel>
  </diagram>
  <diagram id="rEh5OwTWm5xZNqkC5Y3W" name="Страница 3">
    <mxGraphModel dx="1434" dy="802" grid="1" gridSize="10" guides="1" tooltips="1" connect="1" arrows="1" fold="1" page="1" pageScale="1" pageWidth="827" pageHeight="1169" math="0" shadow="0">
      <root>
        <mxCell id="0" />
        <mxCell id="1" parent="0" />
      </root>
    </mxGraphModel>
  </diagram>
</mxfile>
